<?xml version="1.0" encoding="utf-8" standalone="no"?>
<!DOCTYPE svg PUBLIC "-//W3C//DTD SVG 1.1//EN"
  "http://www.w3.org/Graphics/SVG/1.1/DTD/svg11.dtd">
<svg xmlns:xlink="http://www.w3.org/1999/xlink" width="717.550313pt" height="415.704125pt" viewBox="0 0 717.550313 415.704125" xmlns="http://www.w3.org/2000/svg" version="1.1">
 <metadata>
  <rdf:RDF xmlns:dc="http://purl.org/dc/elements/1.1/" xmlns:cc="http://creativecommons.org/ns#" xmlns:rdf="http://www.w3.org/1999/02/22-rdf-syntax-ns#">
   <cc:Work>
    <dc:type rdf:resource="http://purl.org/dc/dcmitype/StillImage"/>
    <dc:date>2026-02-12T10:24:59.027867</dc:date>
    <dc:format>image/svg+xml</dc:format>
    <dc:creator>
     <cc:Agent>
      <dc:title>Matplotlib v3.10.0, https://matplotlib.org/</dc:title>
     </cc:Agent>
    </dc:creator>
   </cc:Work>
  </rdf:RDF>
 </metadata>
 <defs>
  <style type="text/css">*{stroke-linejoin: round; stroke-linecap: butt}</style>
 </defs>
 <g id="figure_1">
  <g id="patch_1">
   <path d="M 0 415.704125 
L 717.550313 415.704125 
L 717.550313 0 
L 0 0 
z
" style="fill: #ffffff"/>
  </g>
  <g id="axes_1">
   <g id="patch_2">
    <path d="M 49.595 370.405375 
L 427.645 370.405375 
L 427.645 25.965375 
L 49.595 25.965375 
z
" style="fill: #ffffff"/>
   </g>
   <g id="PathCollection_1">
    <path d="M 66.779091 356.797574 
C 67.372103 356.797574 67.940907 356.561967 68.36023 356.142645 
C 68.779553 355.723322 69.015159 355.154518 69.015159 354.561506 
C 69.015159 353.968494 68.779553 353.39969 68.36023 352.980367 
C 67.940907 352.561044 67.372103 352.325438 66.779091 352.325438 
C 66.186079 352.325438 65.617275 352.561044 65.197952 352.980367 
C 64.778629 353.39969 64.543023 353.968494 64.543023 354.561506 
C 64.543023 355.154518 64.778629 355.723322 65.197952 356.142645 
C 65.617275 356.561967 66.186079 356.797574 66.779091 356.797574 
z
" clip-path="url(#p304d173b30)" style="fill: #1f77b4; fill-opacity: 0.8; stroke: #000000; stroke-opacity: 0.8"/>
    <path d="M 66.779091 356.851024 
C 67.372103 356.851024 67.940907 356.615417 68.36023 356.196095 
C 68.779553 355.776772 69.015159 355.207968 69.015159 354.614956 
C 69.015159 354.021944 68.779553 353.45314 68.36023 353.033817 
C 67.940907 352.614494 67.372103 352.378888 66.779091 352.378888 
C 66.186079 352.378888 65.617275 352.614494 65.197952 353.033817 
C 64.778629 353.45314 64.543023 354.021944 64.543023 354.614956 
C 64.543023 355.207968 64.778629 355.776772 65.197952 356.196095 
C 65.617275 356.615417 66.186079 356.851024 66.779091 356.851024 
z
" clip-path="url(#p304d173b30)" style="fill: #ff7f0e; fill-opacity: 0.8; stroke: #000000; stroke-opacity: 0.8"/>
    <path d="M 66.779091 356.815302 
C 67.372103 356.815302 67.940907 356.579696 68.36023 356.160373 
C 68.779553 355.74105 69.015159 355.172246 69.015159 354.579234 
C 69.015159 353.986222 68.779553 353.417418 68.36023 352.998095 
C 67.940907 352.578772 67.372103 352.343166 66.779091 352.343166 
C 66.186079 352.343166 65.617275 352.578772 65.197952 352.998095 
C 64.778629 353.417418 64.543023 353.986222 64.543023 354.579234 
C 64.543023 355.172246 64.778629 355.74105 65.197952 356.160373 
C 65.617275 356.579696 66.186079 356.815302 66.779091 356.815302 
z
" clip-path="url(#p304d173b30)" style="fill: #2ca02c; fill-opacity: 0.8; stroke: #000000; stroke-opacity: 0.8"/>
    <path d="M 66.779091 356.807001 
C 67.372103 356.807001 67.940907 356.571395 68.36023 356.152072 
C 68.779553 355.732749 69.015159 355.163945 69.015159 354.570933 
C 69.015159 353.977921 68.779553 353.409117 68.36023 352.989794 
C 67.940907 352.570471 67.372103 352.334865 66.779091 352.334865 
C 66.186079 352.334865 65.617275 352.570471 65.197952 352.989794 
C 64.778629 353.409117 64.543023 353.977921 64.543023 354.570933 
C 64.543023 355.163945 64.778629 355.732749 65.197952 356.152072 
C 65.617275 356.571395 66.186079 356.807001 66.779091 356.807001 
z
" clip-path="url(#p304d173b30)" style="fill: #d62728; fill-opacity: 0.8; stroke: #000000; stroke-opacity: 0.8"/>
    <path d="M 66.779091 356.825151 
C 67.372103 356.825151 67.940907 356.589545 68.36023 356.170222 
C 68.779553 355.750899 69.015159 355.182095 69.015159 354.589083 
C 69.015159 353.996071 68.779553 353.427267 68.36023 353.007944 
C 67.940907 352.588621 67.372103 352.353015 66.779091 352.353015 
C 66.186079 352.353015 65.617275 352.588621 65.197952 353.007944 
C 64.778629 353.427267 64.543023 353.996071 64.543023 354.589083 
C 64.543023 355.182095 64.778629 355.750899 65.197952 356.170222 
C 65.617275 356.589545 66.186079 356.825151 66.779091 356.825151 
z
" clip-path="url(#p304d173b30)" style="fill: #9467bd; fill-opacity: 0.8; stroke: #000000; stroke-opacity: 0.8"/>
    <path d="M 103.896727 356.834067 
C 104.489739 356.834067 105.058543 356.59846 105.477866 356.179137 
C 105.897189 355.759814 106.132795 355.191011 106.132795 354.597999 
C 106.132795 354.004986 105.897189 353.436183 105.477866 353.01686 
C 105.058543 352.597537 104.489739 352.361931 103.896727 352.361931 
C 103.303715 352.361931 102.734911 352.597537 102.315588 353.01686 
C 101.896266 353.436183 101.660659 354.004986 101.660659 354.597999 
C 101.660659 355.191011 101.896266 355.759814 102.315588 356.179137 
C 102.734911 356.59846 103.303715 356.834067 103.896727 356.834067 
z
" clip-path="url(#p304d173b30)" style="fill: #9467bd; fill-opacity: 0.8; stroke: #000000; stroke-opacity: 0.8"/>
    <path d="M 148.575364 356.849941 
C 149.168376 356.849941 149.73718 356.614335 150.156502 356.195012 
C 150.575825 355.775689 150.811432 355.206886 150.811432 354.613873 
C 150.811432 354.020861 150.575825 353.452057 150.156502 353.032735 
C 149.73718 352.613412 149.168376 352.377805 148.575364 352.377805 
C 147.982351 352.377805 147.413548 352.613412 146.994225 353.032735 
C 146.574902 353.452057 146.339296 354.020861 146.339296 354.613873 
C 146.339296 355.206886 146.574902 355.775689 146.994225 356.195012 
C 147.413548 356.614335 147.982351 356.849941 148.575364 356.849941 
z
" clip-path="url(#p304d173b30)" style="fill: #9467bd; fill-opacity: 0.8; stroke: #000000; stroke-opacity: 0.8"/>
    <path d="M 154.074273 356.827027 
C 154.667285 356.827027 155.236089 356.591421 155.655412 356.172098 
C 156.074734 355.752775 156.310341 355.183972 156.310341 354.59096 
C 156.310341 353.997947 156.074734 353.429144 155.655412 353.009821 
C 155.236089 352.590498 154.667285 352.354892 154.074273 352.354892 
C 153.481261 352.354892 152.912457 352.590498 152.493134 353.009821 
C 152.073811 353.429144 151.838205 353.997947 151.838205 354.59096 
C 151.838205 355.183972 152.073811 355.752775 152.493134 356.172098 
C 152.912457 356.591421 153.481261 356.827027 154.074273 356.827027 
z
" clip-path="url(#p304d173b30)" style="fill: #1f77b4; fill-opacity: 0.8; stroke: #000000; stroke-opacity: 0.8"/>
    <path d="M 184.318273 356.866236 
C 184.911285 356.866236 185.480089 356.63063 185.899412 356.211307 
C 186.318734 355.791984 186.554341 355.22318 186.554341 354.630168 
C 186.554341 354.037156 186.318734 353.468352 185.899412 353.049029 
C 185.480089 352.629707 184.911285 352.3941 184.318273 352.3941 
C 183.725261 352.3941 183.156457 352.629707 182.737134 353.049029 
C 182.317811 353.468352 182.082205 354.037156 182.082205 354.630168 
C 182.082205 355.22318 182.317811 355.791984 182.737134 356.211307 
C 183.156457 356.63063 183.725261 356.866236 184.318273 356.866236 
z
" clip-path="url(#p304d173b30)" style="fill: #9467bd; fill-opacity: 0.8; stroke: #000000; stroke-opacity: 0.8"/>
    <path d="M 204.939182 356.87318 
C 205.532194 356.87318 206.100998 356.637574 206.520321 356.218251 
C 206.939644 355.798928 207.17525 355.230124 207.17525 354.637112 
C 207.17525 354.0441 206.939644 353.475296 206.520321 353.055973 
C 206.100998 352.63665 205.532194 352.401044 204.939182 352.401044 
C 204.34617 352.401044 203.777366 352.63665 203.358043 353.055973 
C 202.93872 353.475296 202.703114 354.0441 202.703114 354.637112 
C 202.703114 355.230124 202.93872 355.798928 203.358043 356.218251 
C 203.777366 356.637574 204.34617 356.87318 204.939182 356.87318 
z
" clip-path="url(#p304d173b30)" style="fill: #9467bd; fill-opacity: 0.8; stroke: #000000; stroke-opacity: 0.8"/>
    <path d="M 272.300818 356.899782 
C 272.89383 356.899782 273.462634 356.664176 273.881957 356.244853 
C 274.30128 355.82553 274.536886 355.256727 274.536886 354.663714 
C 274.536886 354.070702 274.30128 353.501899 273.881957 353.082576 
C 273.462634 352.663253 272.89383 352.427647 272.300818 352.427647 
C 271.707806 352.427647 271.139002 352.663253 270.719679 353.082576 
C 270.300356 353.501899 270.06475 354.070702 270.06475 354.663714 
C 270.06475 355.256727 270.300356 355.82553 270.719679 356.244853 
C 271.139002 356.664176 271.707806 356.899782 272.300818 356.899782 
z
" clip-path="url(#p304d173b30)" style="fill: #9467bd; fill-opacity: 0.8; stroke: #000000; stroke-opacity: 0.8"/>
    <path d="M 314.23 356.922288 
C 314.823012 356.922288 315.391816 356.686682 315.811139 356.267359 
C 316.230462 355.848036 316.466068 355.279232 316.466068 354.68622 
C 316.466068 354.093208 316.230462 353.524404 315.811139 353.105081 
C 315.391816 352.685758 314.823012 352.450152 314.23 352.450152 
C 313.636988 352.450152 313.068184 352.685758 312.648861 353.105081 
C 312.229538 353.524404 311.993932 354.093208 311.993932 354.68622 
C 311.993932 355.279232 312.229538 355.848036 312.648861 356.267359 
C 313.068184 356.686682 313.636988 356.922288 314.23 356.922288 
z
" clip-path="url(#p304d173b30)" style="fill: #9467bd; fill-opacity: 0.8; stroke: #000000; stroke-opacity: 0.8"/>
    <path d="M 341.724545 356.936996 
C 342.317558 356.936996 342.886361 356.70139 343.305684 356.282067 
C 343.725007 355.862744 343.960613 355.29394 343.960613 354.700928 
C 343.960613 354.107916 343.725007 353.539112 343.305684 353.119789 
C 342.886361 352.700466 342.317558 352.46486 341.724545 352.46486 
C 341.131533 352.46486 340.56273 352.700466 340.143407 353.119789 
C 339.724084 353.539112 339.488477 354.107916 339.488477 354.700928 
C 339.488477 355.29394 339.724084 355.862744 340.143407 356.282067 
C 340.56273 356.70139 341.131533 356.936996 341.724545 356.936996 
z
" clip-path="url(#p304d173b30)" style="fill: #9467bd; fill-opacity: 0.8; stroke: #000000; stroke-opacity: 0.8"/>
    <path d="M 361.314409 356.956856 
C 361.907421 356.956856 362.476225 356.72125 362.895548 356.301927 
C 363.314871 355.882604 363.550477 355.3138 363.550477 354.720788 
C 363.550477 354.127776 363.314871 353.558972 362.895548 353.139649 
C 362.476225 352.720326 361.907421 352.48472 361.314409 352.48472 
C 360.721397 352.48472 360.152593 352.720326 359.73327 353.139649 
C 359.313947 353.558972 359.078341 354.127776 359.078341 354.720788 
C 359.078341 355.3138 359.313947 355.882604 359.73327 356.301927 
C 360.152593 356.72125 360.721397 356.956856 361.314409 356.956856 
z
" clip-path="url(#p304d173b30)" style="fill: #9467bd; fill-opacity: 0.8; stroke: #000000; stroke-opacity: 0.8"/>
    <path d="M 376.436409 356.966496 
C 377.029421 356.966496 377.598225 356.73089 378.017548 356.311567 
C 378.436871 355.892244 378.672477 355.32344 378.672477 354.730428 
C 378.672477 354.137416 378.436871 353.568612 378.017548 353.149289 
C 377.598225 352.729966 377.029421 352.49436 376.436409 352.49436 
C 375.843397 352.49436 375.274593 352.729966 374.85527 353.149289 
C 374.435947 353.568612 374.200341 354.137416 374.200341 354.730428 
C 374.200341 355.32344 374.435947 355.892244 374.85527 356.311567 
C 375.274593 356.73089 375.843397 356.966496 376.436409 356.966496 
z
" clip-path="url(#p304d173b30)" style="fill: #9467bd; fill-opacity: 0.8; stroke: #000000; stroke-opacity: 0.8"/>
    <path d="M 387.777909 356.973323 
C 388.370921 356.973323 388.939725 356.737717 389.359048 356.318394 
C 389.778371 355.899071 390.013977 355.330267 390.013977 354.737255 
C 390.013977 354.144243 389.778371 353.575439 389.359048 353.156116 
C 388.939725 352.736793 388.370921 352.501187 387.777909 352.501187 
C 387.184897 352.501187 386.616093 352.736793 386.19677 353.156116 
C 385.777447 353.575439 385.541841 354.144243 385.541841 354.737255 
C 385.541841 355.330267 385.777447 355.899071 386.19677 356.318394 
C 386.616093 356.737717 387.184897 356.973323 387.777909 356.973323 
z
" clip-path="url(#p304d173b30)" style="fill: #9467bd; fill-opacity: 0.8; stroke: #000000; stroke-opacity: 0.8"/>
    <path d="M 396.713636 356.975994 
C 397.306649 356.975994 397.875452 356.740388 398.294775 356.321065 
C 398.714098 355.901742 398.949704 355.332939 398.949704 354.739926 
C 398.949704 354.146914 398.714098 353.578111 398.294775 353.158788 
C 397.875452 352.739465 397.306649 352.503858 396.713636 352.503858 
C 396.120624 352.503858 395.55182 352.739465 395.132498 353.158788 
C 394.713175 353.578111 394.477568 354.146914 394.477568 354.739926 
C 394.477568 355.332939 394.713175 355.901742 395.132498 356.321065 
C 395.55182 356.740388 396.120624 356.975994 396.713636 356.975994 
z
" clip-path="url(#p304d173b30)" style="fill: #9467bd; fill-opacity: 0.8; stroke: #000000; stroke-opacity: 0.8"/>
    <path d="M 404.274636 356.979621 
C 404.867649 356.979621 405.436452 356.744014 405.855775 356.324692 
C 406.275098 355.905369 406.510704 355.336565 406.510704 354.743553 
C 406.510704 354.150541 406.275098 353.581737 405.855775 353.162414 
C 405.436452 352.743091 404.867649 352.507485 404.274636 352.507485 
C 403.681624 352.507485 403.11282 352.743091 402.693498 353.162414 
C 402.274175 353.581737 402.038568 354.150541 402.038568 354.743553 
C 402.038568 355.336565 402.274175 355.905369 402.693498 356.324692 
C 403.11282 356.744014 403.681624 356.979621 404.274636 356.979621 
z
" clip-path="url(#p304d173b30)" style="fill: #9467bd; fill-opacity: 0.8; stroke: #000000; stroke-opacity: 0.8"/>
    <path d="M 410.460909 356.985079 
C 411.053921 356.985079 411.622725 356.749473 412.042048 356.33015 
C 412.461371 355.910827 412.696977 355.342024 412.696977 354.749011 
C 412.696977 354.155999 412.461371 353.587195 412.042048 353.167873 
C 411.622725 352.74855 411.053921 352.512943 410.460909 352.512943 
C 409.867897 352.512943 409.299093 352.74855 408.87977 353.167873 
C 408.460447 353.587195 408.224841 354.155999 408.224841 354.749011 
C 408.224841 355.342024 408.460447 355.910827 408.87977 356.33015 
C 409.299093 356.749473 409.867897 356.985079 410.460909 356.985079 
z
" clip-path="url(#p304d173b30)" style="fill: #9467bd; fill-opacity: 0.8; stroke: #000000; stroke-opacity: 0.8"/>
    <path d="M 66.779091 97.029663 
C 67.415026 97.029663 68.025 96.777003 68.474673 96.327329 
C 68.924347 95.877656 69.177007 95.267681 69.177007 94.631747 
C 69.177007 93.995812 68.924347 93.385838 68.474673 92.936164 
C 68.025 92.486491 67.415026 92.233831 66.779091 92.233831 
C 66.143156 92.233831 65.533182 92.486491 65.083508 92.936164 
C 64.633835 93.385838 64.381175 93.995812 64.381175 94.631747 
C 64.381175 95.267681 64.633835 95.877656 65.083508 96.327329 
C 65.533182 96.777003 66.143156 97.029663 66.779091 97.029663 
z
" clip-path="url(#p304d173b30)" style="fill: #d62728; fill-opacity: 0.8; stroke: #000000; stroke-opacity: 0.8"/>
    <path d="M 66.779091 88.542611 
C 67.50538 88.542611 68.202019 88.254053 68.715583 87.740489 
C 69.229146 87.226926 69.517704 86.530286 69.517704 85.803998 
C 69.517704 85.077709 69.229146 84.38107 68.715583 83.867506 
C 68.202019 83.353942 67.50538 83.065385 66.779091 83.065385 
C 66.052802 83.065385 65.356163 83.353942 64.842599 83.867506 
C 64.329036 84.38107 64.040478 85.077709 64.040478 85.803998 
C 64.040478 86.530286 64.329036 87.226926 64.842599 87.740489 
C 65.356163 88.254053 66.052802 88.542611 66.779091 88.542611 
z
" clip-path="url(#p304d173b30)" style="fill: #d62728; fill-opacity: 0.8; stroke: #000000; stroke-opacity: 0.8"/>
    <path d="M 66.779091 81.77014 
C 67.617737 81.77014 68.422147 81.436942 69.015159 80.84393 
C 69.608171 80.250918 69.941369 79.446508 69.941369 78.607862 
C 69.941369 77.769216 69.608171 76.964806 69.015159 76.371794 
C 68.422147 75.778782 67.617737 75.445584 66.779091 75.445584 
C 65.940445 75.445584 65.136035 75.778782 64.543023 76.371794 
C 63.950011 76.964806 63.616813 77.769216 63.616813 78.607862 
C 63.616813 79.446508 63.950011 80.250918 64.543023 80.84393 
C 65.136035 81.436942 65.940445 81.77014 66.779091 81.77014 
z
" clip-path="url(#p304d173b30)" style="fill: #d62728; fill-opacity: 0.8; stroke: #000000; stroke-opacity: 0.8"/>
    <path d="M 66.779091 70.991246 
C 67.780211 70.991246 68.740462 70.593497 69.44836 69.885598 
C 70.156259 69.177699 70.554008 68.217448 70.554008 67.216328 
C 70.554008 66.215209 70.156259 65.254957 69.44836 64.547059 
C 68.740462 63.83916 67.780211 63.441411 66.779091 63.441411 
C 65.777971 63.441411 64.81772 63.83916 64.109821 64.547059 
C 63.401923 65.254957 63.004174 66.215209 63.004174 67.216328 
C 63.004174 68.217448 63.401923 69.177699 64.109821 69.885598 
C 64.81772 70.593497 65.777971 70.991246 66.779091 70.991246 
z
" clip-path="url(#p304d173b30)" style="fill: #d62728; fill-opacity: 0.8; stroke: #000000; stroke-opacity: 0.8"/>
    <path d="M 66.779091 54.202191 
C 68.03706 54.202191 69.243675 53.702395 70.133193 52.812877 
C 71.022711 51.923359 71.522507 50.716744 71.522507 49.458775 
C 71.522507 48.200806 71.022711 46.994191 70.133193 46.104673 
C 69.243675 45.215155 68.03706 44.715358 66.779091 44.715358 
C 65.521122 44.715358 64.314507 45.215155 63.424989 46.104673 
C 62.535471 46.994191 62.035674 48.200806 62.035674 49.458775 
C 62.035674 50.716744 62.535471 51.923359 63.424989 52.812877 
C 64.314507 53.702395 65.521122 54.202191 66.779091 54.202191 
z
" clip-path="url(#p304d173b30)" style="fill: #d62728; fill-opacity: 0.8; stroke: #000000; stroke-opacity: 0.8"/>
    <path d="M 66.779091 48.513763 
C 68.606877 48.513763 70.360048 47.787576 71.652488 46.495136 
C 72.944928 45.202696 73.671115 43.449525 73.671115 41.621739 
C 73.671115 39.793952 72.944928 38.040782 71.652488 36.748341 
C 70.360048 35.455901 68.606877 34.729714 66.779091 34.729714 
C 64.951305 34.729714 63.198134 35.455901 61.905694 36.748341 
C 60.613254 38.040782 59.887067 39.793952 59.887067 41.621739 
C 59.887067 43.449525 60.613254 45.202696 61.905694 46.495136 
C 63.198134 47.787576 64.951305 48.513763 66.779091 48.513763 
z
" clip-path="url(#p304d173b30)" style="fill: #d62728; fill-opacity: 0.8; stroke: #000000; stroke-opacity: 0.8"/>
   </g>
   <g id="matplotlib.axis_1">
    <g id="xtick_1">
     <g id="line2d_1">
      <defs>
       <path id="m0fe7e537b6" d="M 0 0 
L 0 3.5 
" style="stroke: #000000; stroke-width: 0.8"/>
      </defs>
      <g>
       <use xlink:href="#m0fe7e537b6" x="66.779091" y="370.405375" style="stroke: #000000; stroke-width: 0.8"/>
      </g>
     </g>
     <g id="text_1">
      <!-- 0.0 -->
      <g transform="translate(55.646903 388.043187) scale(0.14 -0.14)">
       <defs>
        <path id="DejaVuSans-30" d="M 2034 4250 
Q 1547 4250 1301 3770 
Q 1056 3291 1056 2328 
Q 1056 1369 1301 889 
Q 1547 409 2034 409 
Q 2525 409 2770 889 
Q 3016 1369 3016 2328 
Q 3016 3291 2770 3770 
Q 2525 4250 2034 4250 
z
M 2034 4750 
Q 2819 4750 3233 4129 
Q 3647 3509 3647 2328 
Q 3647 1150 3233 529 
Q 2819 -91 2034 -91 
Q 1250 -91 836 529 
Q 422 1150 422 2328 
Q 422 3509 836 4129 
Q 1250 4750 2034 4750 
z
" transform="scale(0.015625)"/>
        <path id="DejaVuSans-2e" d="M 684 794 
L 1344 794 
L 1344 0 
L 684 0 
L 684 794 
z
" transform="scale(0.015625)"/>
       </defs>
       <use xlink:href="#DejaVuSans-30"/>
       <use xlink:href="#DejaVuSans-2e" transform="translate(63.623047 0)"/>
       <use xlink:href="#DejaVuSans-30" transform="translate(95.410156 0)"/>
      </g>
     </g>
    </g>
    <g id="xtick_2">
     <g id="line2d_2">
      <g>
       <use xlink:href="#m0fe7e537b6" x="135.515455" y="370.405375" style="stroke: #000000; stroke-width: 0.8"/>
      </g>
     </g>
     <g id="text_2">
      <!-- 0.2 -->
      <g transform="translate(124.383267 388.043187) scale(0.14 -0.14)">
       <defs>
        <path id="DejaVuSans-32" d="M 1228 531 
L 3431 531 
L 3431 0 
L 469 0 
L 469 531 
Q 828 903 1448 1529 
Q 2069 2156 2228 2338 
Q 2531 2678 2651 2914 
Q 2772 3150 2772 3378 
Q 2772 3750 2511 3984 
Q 2250 4219 1831 4219 
Q 1534 4219 1204 4116 
Q 875 4013 500 3803 
L 500 4441 
Q 881 4594 1212 4672 
Q 1544 4750 1819 4750 
Q 2544 4750 2975 4387 
Q 3406 4025 3406 3419 
Q 3406 3131 3298 2873 
Q 3191 2616 2906 2266 
Q 2828 2175 2409 1742 
Q 1991 1309 1228 531 
z
" transform="scale(0.015625)"/>
       </defs>
       <use xlink:href="#DejaVuSans-30"/>
       <use xlink:href="#DejaVuSans-2e" transform="translate(63.623047 0)"/>
       <use xlink:href="#DejaVuSans-32" transform="translate(95.410156 0)"/>
      </g>
     </g>
    </g>
    <g id="xtick_3">
     <g id="line2d_3">
      <g>
       <use xlink:href="#m0fe7e537b6" x="204.251818" y="370.405375" style="stroke: #000000; stroke-width: 0.8"/>
      </g>
     </g>
     <g id="text_3">
      <!-- 0.4 -->
      <g transform="translate(193.119631 388.043187) scale(0.14 -0.14)">
       <defs>
        <path id="DejaVuSans-34" d="M 2419 4116 
L 825 1625 
L 2419 1625 
L 2419 4116 
z
M 2253 4666 
L 3047 4666 
L 3047 1625 
L 3713 1625 
L 3713 1100 
L 3047 1100 
L 3047 0 
L 2419 0 
L 2419 1100 
L 313 1100 
L 313 1709 
L 2253 4666 
z
" transform="scale(0.015625)"/>
       </defs>
       <use xlink:href="#DejaVuSans-30"/>
       <use xlink:href="#DejaVuSans-2e" transform="translate(63.623047 0)"/>
       <use xlink:href="#DejaVuSans-34" transform="translate(95.410156 0)"/>
      </g>
     </g>
    </g>
    <g id="xtick_4">
     <g id="line2d_4">
      <g>
       <use xlink:href="#m0fe7e537b6" x="272.988182" y="370.405375" style="stroke: #000000; stroke-width: 0.8"/>
      </g>
     </g>
     <g id="text_4">
      <!-- 0.6 -->
      <g transform="translate(261.855994 388.043187) scale(0.14 -0.14)">
       <defs>
        <path id="DejaVuSans-36" d="M 2113 2584 
Q 1688 2584 1439 2293 
Q 1191 2003 1191 1497 
Q 1191 994 1439 701 
Q 1688 409 2113 409 
Q 2538 409 2786 701 
Q 3034 994 3034 1497 
Q 3034 2003 2786 2293 
Q 2538 2584 2113 2584 
z
M 3366 4563 
L 3366 3988 
Q 3128 4100 2886 4159 
Q 2644 4219 2406 4219 
Q 1781 4219 1451 3797 
Q 1122 3375 1075 2522 
Q 1259 2794 1537 2939 
Q 1816 3084 2150 3084 
Q 2853 3084 3261 2657 
Q 3669 2231 3669 1497 
Q 3669 778 3244 343 
Q 2819 -91 2113 -91 
Q 1303 -91 875 529 
Q 447 1150 447 2328 
Q 447 3434 972 4092 
Q 1497 4750 2381 4750 
Q 2619 4750 2861 4703 
Q 3103 4656 3366 4563 
z
" transform="scale(0.015625)"/>
       </defs>
       <use xlink:href="#DejaVuSans-30"/>
       <use xlink:href="#DejaVuSans-2e" transform="translate(63.623047 0)"/>
       <use xlink:href="#DejaVuSans-36" transform="translate(95.410156 0)"/>
      </g>
     </g>
    </g>
    <g id="xtick_5">
     <g id="line2d_5">
      <g>
       <use xlink:href="#m0fe7e537b6" x="341.724545" y="370.405375" style="stroke: #000000; stroke-width: 0.8"/>
      </g>
     </g>
     <g id="text_5">
      <!-- 0.8 -->
      <g transform="translate(330.592358 388.043187) scale(0.14 -0.14)">
       <defs>
        <path id="DejaVuSans-38" d="M 2034 2216 
Q 1584 2216 1326 1975 
Q 1069 1734 1069 1313 
Q 1069 891 1326 650 
Q 1584 409 2034 409 
Q 2484 409 2743 651 
Q 3003 894 3003 1313 
Q 3003 1734 2745 1975 
Q 2488 2216 2034 2216 
z
M 1403 2484 
Q 997 2584 770 2862 
Q 544 3141 544 3541 
Q 544 4100 942 4425 
Q 1341 4750 2034 4750 
Q 2731 4750 3128 4425 
Q 3525 4100 3525 3541 
Q 3525 3141 3298 2862 
Q 3072 2584 2669 2484 
Q 3125 2378 3379 2068 
Q 3634 1759 3634 1313 
Q 3634 634 3220 271 
Q 2806 -91 2034 -91 
Q 1263 -91 848 271 
Q 434 634 434 1313 
Q 434 1759 690 2068 
Q 947 2378 1403 2484 
z
M 1172 3481 
Q 1172 3119 1398 2916 
Q 1625 2713 2034 2713 
Q 2441 2713 2670 2916 
Q 2900 3119 2900 3481 
Q 2900 3844 2670 4047 
Q 2441 4250 2034 4250 
Q 1625 4250 1398 4047 
Q 1172 3844 1172 3481 
z
" transform="scale(0.015625)"/>
       </defs>
       <use xlink:href="#DejaVuSans-30"/>
       <use xlink:href="#DejaVuSans-2e" transform="translate(63.623047 0)"/>
       <use xlink:href="#DejaVuSans-38" transform="translate(95.410156 0)"/>
      </g>
     </g>
    </g>
    <g id="xtick_6">
     <g id="line2d_6">
      <g>
       <use xlink:href="#m0fe7e537b6" x="410.460909" y="370.405375" style="stroke: #000000; stroke-width: 0.8"/>
      </g>
     </g>
     <g id="text_6">
      <!-- 1.0 -->
      <g transform="translate(399.328722 388.043187) scale(0.14 -0.14)">
       <defs>
        <path id="DejaVuSans-31" d="M 794 531 
L 1825 531 
L 1825 4091 
L 703 3866 
L 703 4441 
L 1819 4666 
L 2450 4666 
L 2450 531 
L 3481 531 
L 3481 0 
L 794 0 
L 794 531 
z
" transform="scale(0.015625)"/>
       </defs>
       <use xlink:href="#DejaVuSans-31"/>
       <use xlink:href="#DejaVuSans-2e" transform="translate(63.623047 0)"/>
       <use xlink:href="#DejaVuSans-30" transform="translate(95.410156 0)"/>
      </g>
     </g>
    </g>
    <g id="text_7">
     <!-- Water Mole Fraction -->
     <g transform="translate(168.959063 405.592562) scale(0.14 -0.14)">
      <defs>
       <path id="DejaVuSans-57" d="M 213 4666 
L 850 4666 
L 1831 722 
L 2809 4666 
L 3519 4666 
L 4500 722 
L 5478 4666 
L 6119 4666 
L 4947 0 
L 4153 0 
L 3169 4050 
L 2175 0 
L 1381 0 
L 213 4666 
z
" transform="scale(0.015625)"/>
       <path id="DejaVuSans-61" d="M 2194 1759 
Q 1497 1759 1228 1600 
Q 959 1441 959 1056 
Q 959 750 1161 570 
Q 1363 391 1709 391 
Q 2188 391 2477 730 
Q 2766 1069 2766 1631 
L 2766 1759 
L 2194 1759 
z
M 3341 1997 
L 3341 0 
L 2766 0 
L 2766 531 
Q 2569 213 2275 61 
Q 1981 -91 1556 -91 
Q 1019 -91 701 211 
Q 384 513 384 1019 
Q 384 1609 779 1909 
Q 1175 2209 1959 2209 
L 2766 2209 
L 2766 2266 
Q 2766 2663 2505 2880 
Q 2244 3097 1772 3097 
Q 1472 3097 1187 3025 
Q 903 2953 641 2809 
L 641 3341 
Q 956 3463 1253 3523 
Q 1550 3584 1831 3584 
Q 2591 3584 2966 3190 
Q 3341 2797 3341 1997 
z
" transform="scale(0.015625)"/>
       <path id="DejaVuSans-74" d="M 1172 4494 
L 1172 3500 
L 2356 3500 
L 2356 3053 
L 1172 3053 
L 1172 1153 
Q 1172 725 1289 603 
Q 1406 481 1766 481 
L 2356 481 
L 2356 0 
L 1766 0 
Q 1100 0 847 248 
Q 594 497 594 1153 
L 594 3053 
L 172 3053 
L 172 3500 
L 594 3500 
L 594 4494 
L 1172 4494 
z
" transform="scale(0.015625)"/>
       <path id="DejaVuSans-65" d="M 3597 1894 
L 3597 1613 
L 953 1613 
Q 991 1019 1311 708 
Q 1631 397 2203 397 
Q 2534 397 2845 478 
Q 3156 559 3463 722 
L 3463 178 
Q 3153 47 2828 -22 
Q 2503 -91 2169 -91 
Q 1331 -91 842 396 
Q 353 884 353 1716 
Q 353 2575 817 3079 
Q 1281 3584 2069 3584 
Q 2775 3584 3186 3129 
Q 3597 2675 3597 1894 
z
M 3022 2063 
Q 3016 2534 2758 2815 
Q 2500 3097 2075 3097 
Q 1594 3097 1305 2825 
Q 1016 2553 972 2059 
L 3022 2063 
z
" transform="scale(0.015625)"/>
       <path id="DejaVuSans-72" d="M 2631 2963 
Q 2534 3019 2420 3045 
Q 2306 3072 2169 3072 
Q 1681 3072 1420 2755 
Q 1159 2438 1159 1844 
L 1159 0 
L 581 0 
L 581 3500 
L 1159 3500 
L 1159 2956 
Q 1341 3275 1631 3429 
Q 1922 3584 2338 3584 
Q 2397 3584 2469 3576 
Q 2541 3569 2628 3553 
L 2631 2963 
z
" transform="scale(0.015625)"/>
       <path id="DejaVuSans-20" transform="scale(0.015625)"/>
       <path id="DejaVuSans-4d" d="M 628 4666 
L 1569 4666 
L 2759 1491 
L 3956 4666 
L 4897 4666 
L 4897 0 
L 4281 0 
L 4281 4097 
L 3078 897 
L 2444 897 
L 1241 4097 
L 1241 0 
L 628 0 
L 628 4666 
z
" transform="scale(0.015625)"/>
       <path id="DejaVuSans-6f" d="M 1959 3097 
Q 1497 3097 1228 2736 
Q 959 2375 959 1747 
Q 959 1119 1226 758 
Q 1494 397 1959 397 
Q 2419 397 2687 759 
Q 2956 1122 2956 1747 
Q 2956 2369 2687 2733 
Q 2419 3097 1959 3097 
z
M 1959 3584 
Q 2709 3584 3137 3096 
Q 3566 2609 3566 1747 
Q 3566 888 3137 398 
Q 2709 -91 1959 -91 
Q 1206 -91 779 398 
Q 353 888 353 1747 
Q 353 2609 779 3096 
Q 1206 3584 1959 3584 
z
" transform="scale(0.015625)"/>
       <path id="DejaVuSans-6c" d="M 603 4863 
L 1178 4863 
L 1178 0 
L 603 0 
L 603 4863 
z
" transform="scale(0.015625)"/>
       <path id="DejaVuSans-46" d="M 628 4666 
L 3309 4666 
L 3309 4134 
L 1259 4134 
L 1259 2759 
L 3109 2759 
L 3109 2228 
L 1259 2228 
L 1259 0 
L 628 0 
L 628 4666 
z
" transform="scale(0.015625)"/>
       <path id="DejaVuSans-63" d="M 3122 3366 
L 3122 2828 
Q 2878 2963 2633 3030 
Q 2388 3097 2138 3097 
Q 1578 3097 1268 2742 
Q 959 2388 959 1747 
Q 959 1106 1268 751 
Q 1578 397 2138 397 
Q 2388 397 2633 464 
Q 2878 531 3122 666 
L 3122 134 
Q 2881 22 2623 -34 
Q 2366 -91 2075 -91 
Q 1284 -91 818 406 
Q 353 903 353 1747 
Q 353 2603 823 3093 
Q 1294 3584 2113 3584 
Q 2378 3584 2631 3529 
Q 2884 3475 3122 3366 
z
" transform="scale(0.015625)"/>
       <path id="DejaVuSans-69" d="M 603 3500 
L 1178 3500 
L 1178 0 
L 603 0 
L 603 3500 
z
M 603 4863 
L 1178 4863 
L 1178 4134 
L 603 4134 
L 603 4863 
z
" transform="scale(0.015625)"/>
       <path id="DejaVuSans-6e" d="M 3513 2113 
L 3513 0 
L 2938 0 
L 2938 2094 
Q 2938 2591 2744 2837 
Q 2550 3084 2163 3084 
Q 1697 3084 1428 2787 
Q 1159 2491 1159 1978 
L 1159 0 
L 581 0 
L 581 3500 
L 1159 3500 
L 1159 2956 
Q 1366 3272 1645 3428 
Q 1925 3584 2291 3584 
Q 2894 3584 3203 3211 
Q 3513 2838 3513 2113 
z
" transform="scale(0.015625)"/>
      </defs>
      <use xlink:href="#DejaVuSans-57"/>
      <use xlink:href="#DejaVuSans-61" transform="translate(92.501953 0)"/>
      <use xlink:href="#DejaVuSans-74" transform="translate(153.78125 0)"/>
      <use xlink:href="#DejaVuSans-65" transform="translate(192.990234 0)"/>
      <use xlink:href="#DejaVuSans-72" transform="translate(254.513672 0)"/>
      <use xlink:href="#DejaVuSans-20" transform="translate(295.626953 0)"/>
      <use xlink:href="#DejaVuSans-4d" transform="translate(327.414062 0)"/>
      <use xlink:href="#DejaVuSans-6f" transform="translate(413.693359 0)"/>
      <use xlink:href="#DejaVuSans-6c" transform="translate(474.875 0)"/>
      <use xlink:href="#DejaVuSans-65" transform="translate(502.658203 0)"/>
      <use xlink:href="#DejaVuSans-20" transform="translate(564.181641 0)"/>
      <use xlink:href="#DejaVuSans-46" transform="translate(595.96875 0)"/>
      <use xlink:href="#DejaVuSans-72" transform="translate(646.238281 0)"/>
      <use xlink:href="#DejaVuSans-61" transform="translate(687.351562 0)"/>
      <use xlink:href="#DejaVuSans-63" transform="translate(748.630859 0)"/>
      <use xlink:href="#DejaVuSans-74" transform="translate(803.611328 0)"/>
      <use xlink:href="#DejaVuSans-69" transform="translate(842.820312 0)"/>
      <use xlink:href="#DejaVuSans-6f" transform="translate(870.603516 0)"/>
      <use xlink:href="#DejaVuSans-6e" transform="translate(931.785156 0)"/>
     </g>
    </g>
   </g>
   <g id="matplotlib.axis_2">
    <g id="ytick_1">
     <g id="line2d_7">
      <defs>
       <path id="m748f6d1e2c" d="M 0 0 
L -3.5 0 
" style="stroke: #000000; stroke-width: 0.8"/>
      </defs>
      <g>
       <use xlink:href="#m748f6d1e2c" x="49.595" y="354.828828" style="stroke: #000000; stroke-width: 0.8"/>
      </g>
     </g>
     <g id="text_8">
      <!-- 0 -->
      <g transform="translate(33.6875 360.147734) scale(0.14 -0.14)">
       <use xlink:href="#DejaVuSans-30"/>
      </g>
     </g>
    </g>
    <g id="ytick_2">
     <g id="line2d_8">
      <g>
       <use xlink:href="#m748f6d1e2c" x="49.595" y="297.645338" style="stroke: #000000; stroke-width: 0.8"/>
      </g>
     </g>
     <g id="text_9">
      <!-- 10 -->
      <g transform="translate(24.78 302.964244) scale(0.14 -0.14)">
       <use xlink:href="#DejaVuSans-31"/>
       <use xlink:href="#DejaVuSans-30" transform="translate(63.623047 0)"/>
      </g>
     </g>
    </g>
    <g id="ytick_3">
     <g id="line2d_9">
      <g>
       <use xlink:href="#m748f6d1e2c" x="49.595" y="240.461848" style="stroke: #000000; stroke-width: 0.8"/>
      </g>
     </g>
     <g id="text_10">
      <!-- 20 -->
      <g transform="translate(24.78 245.780754) scale(0.14 -0.14)">
       <use xlink:href="#DejaVuSans-32"/>
       <use xlink:href="#DejaVuSans-30" transform="translate(63.623047 0)"/>
      </g>
     </g>
    </g>
    <g id="ytick_4">
     <g id="line2d_10">
      <g>
       <use xlink:href="#m748f6d1e2c" x="49.595" y="183.278358" style="stroke: #000000; stroke-width: 0.8"/>
      </g>
     </g>
     <g id="text_11">
      <!-- 30 -->
      <g transform="translate(24.78 188.597265) scale(0.14 -0.14)">
       <defs>
        <path id="DejaVuSans-33" d="M 2597 2516 
Q 3050 2419 3304 2112 
Q 3559 1806 3559 1356 
Q 3559 666 3084 287 
Q 2609 -91 1734 -91 
Q 1441 -91 1130 -33 
Q 819 25 488 141 
L 488 750 
Q 750 597 1062 519 
Q 1375 441 1716 441 
Q 2309 441 2620 675 
Q 2931 909 2931 1356 
Q 2931 1769 2642 2001 
Q 2353 2234 1838 2234 
L 1294 2234 
L 1294 2753 
L 1863 2753 
Q 2328 2753 2575 2939 
Q 2822 3125 2822 3475 
Q 2822 3834 2567 4026 
Q 2313 4219 1838 4219 
Q 1578 4219 1281 4162 
Q 984 4106 628 3988 
L 628 4550 
Q 988 4650 1302 4700 
Q 1616 4750 1894 4750 
Q 2613 4750 3031 4423 
Q 3450 4097 3450 3541 
Q 3450 3153 3228 2886 
Q 3006 2619 2597 2516 
z
" transform="scale(0.015625)"/>
       </defs>
       <use xlink:href="#DejaVuSans-33"/>
       <use xlink:href="#DejaVuSans-30" transform="translate(63.623047 0)"/>
      </g>
     </g>
    </g>
    <g id="ytick_5">
     <g id="line2d_11">
      <g>
       <use xlink:href="#m748f6d1e2c" x="49.595" y="126.094869" style="stroke: #000000; stroke-width: 0.8"/>
      </g>
     </g>
     <g id="text_12">
      <!-- 40 -->
      <g transform="translate(24.78 131.413775) scale(0.14 -0.14)">
       <use xlink:href="#DejaVuSans-34"/>
       <use xlink:href="#DejaVuSans-30" transform="translate(63.623047 0)"/>
      </g>
     </g>
    </g>
    <g id="ytick_6">
     <g id="line2d_12">
      <g>
       <use xlink:href="#m748f6d1e2c" x="49.595" y="68.911379" style="stroke: #000000; stroke-width: 0.8"/>
      </g>
     </g>
     <g id="text_13">
      <!-- 50 -->
      <g transform="translate(24.78 74.230285) scale(0.14 -0.14)">
       <defs>
        <path id="DejaVuSans-35" d="M 691 4666 
L 3169 4666 
L 3169 4134 
L 1269 4134 
L 1269 2991 
Q 1406 3038 1543 3061 
Q 1681 3084 1819 3084 
Q 2600 3084 3056 2656 
Q 3513 2228 3513 1497 
Q 3513 744 3044 326 
Q 2575 -91 1722 -91 
Q 1428 -91 1123 -41 
Q 819 9 494 109 
L 494 744 
Q 775 591 1075 516 
Q 1375 441 1709 441 
Q 2250 441 2565 725 
Q 2881 1009 2881 1497 
Q 2881 1984 2565 2268 
Q 2250 2553 1709 2553 
Q 1456 2553 1204 2497 
Q 953 2441 691 2322 
L 691 4666 
z
" transform="scale(0.015625)"/>
       </defs>
       <use xlink:href="#DejaVuSans-35"/>
       <use xlink:href="#DejaVuSans-30" transform="translate(63.623047 0)"/>
      </g>
     </g>
    </g>
    <g id="text_14">
     <!-- Activation Energy $E_a$ [kJ/mol] -->
     <g transform="translate(17.84 299.265375) rotate(-90) scale(0.14 -0.14)">
      <defs>
       <path id="DejaVuSans-41" d="M 2188 4044 
L 1331 1722 
L 3047 1722 
L 2188 4044 
z
M 1831 4666 
L 2547 4666 
L 4325 0 
L 3669 0 
L 3244 1197 
L 1141 1197 
L 716 0 
L 50 0 
L 1831 4666 
z
" transform="scale(0.015625)"/>
       <path id="DejaVuSans-76" d="M 191 3500 
L 800 3500 
L 1894 563 
L 2988 3500 
L 3597 3500 
L 2284 0 
L 1503 0 
L 191 3500 
z
" transform="scale(0.015625)"/>
       <path id="DejaVuSans-45" d="M 628 4666 
L 3578 4666 
L 3578 4134 
L 1259 4134 
L 1259 2753 
L 3481 2753 
L 3481 2222 
L 1259 2222 
L 1259 531 
L 3634 531 
L 3634 0 
L 628 0 
L 628 4666 
z
" transform="scale(0.015625)"/>
       <path id="DejaVuSans-67" d="M 2906 1791 
Q 2906 2416 2648 2759 
Q 2391 3103 1925 3103 
Q 1463 3103 1205 2759 
Q 947 2416 947 1791 
Q 947 1169 1205 825 
Q 1463 481 1925 481 
Q 2391 481 2648 825 
Q 2906 1169 2906 1791 
z
M 3481 434 
Q 3481 -459 3084 -895 
Q 2688 -1331 1869 -1331 
Q 1566 -1331 1297 -1286 
Q 1028 -1241 775 -1147 
L 775 -588 
Q 1028 -725 1275 -790 
Q 1522 -856 1778 -856 
Q 2344 -856 2625 -561 
Q 2906 -266 2906 331 
L 2906 616 
Q 2728 306 2450 153 
Q 2172 0 1784 0 
Q 1141 0 747 490 
Q 353 981 353 1791 
Q 353 2603 747 3093 
Q 1141 3584 1784 3584 
Q 2172 3584 2450 3431 
Q 2728 3278 2906 2969 
L 2906 3500 
L 3481 3500 
L 3481 434 
z
" transform="scale(0.015625)"/>
       <path id="DejaVuSans-79" d="M 2059 -325 
Q 1816 -950 1584 -1140 
Q 1353 -1331 966 -1331 
L 506 -1331 
L 506 -850 
L 844 -850 
Q 1081 -850 1212 -737 
Q 1344 -625 1503 -206 
L 1606 56 
L 191 3500 
L 800 3500 
L 1894 763 
L 2988 3500 
L 3597 3500 
L 2059 -325 
z
" transform="scale(0.015625)"/>
       <path id="DejaVuSans-Oblique-45" d="M 1081 4666 
L 4031 4666 
L 3928 4134 
L 1606 4134 
L 1338 2753 
L 3566 2753 
L 3463 2222 
L 1234 2222 
L 909 531 
L 3284 531 
L 3181 0 
L 172 0 
L 1081 4666 
z
" transform="scale(0.015625)"/>
       <path id="DejaVuSans-Oblique-61" d="M 3438 1997 
L 3047 0 
L 2472 0 
L 2578 531 
Q 2325 219 2001 64 
Q 1678 -91 1281 -91 
Q 834 -91 548 182 
Q 263 456 263 884 
Q 263 1497 752 1853 
Q 1241 2209 2100 2209 
L 2900 2209 
L 2931 2363 
Q 2938 2388 2941 2417 
Q 2944 2447 2944 2509 
Q 2944 2788 2717 2942 
Q 2491 3097 2081 3097 
Q 1800 3097 1504 3025 
Q 1209 2953 897 2809 
L 997 3341 
Q 1322 3463 1633 3523 
Q 1944 3584 2234 3584 
Q 2853 3584 3176 3315 
Q 3500 3047 3500 2534 
Q 3500 2431 3484 2292 
Q 3469 2153 3438 1997 
z
M 2816 1759 
L 2241 1759 
Q 1534 1759 1195 1570 
Q 856 1381 856 984 
Q 856 709 1029 553 
Q 1203 397 1509 397 
Q 1978 397 2328 733 
Q 2678 1069 2791 1631 
L 2816 1759 
z
" transform="scale(0.015625)"/>
       <path id="DejaVuSans-5b" d="M 550 4863 
L 1875 4863 
L 1875 4416 
L 1125 4416 
L 1125 -397 
L 1875 -397 
L 1875 -844 
L 550 -844 
L 550 4863 
z
" transform="scale(0.015625)"/>
       <path id="DejaVuSans-6b" d="M 581 4863 
L 1159 4863 
L 1159 1991 
L 2875 3500 
L 3609 3500 
L 1753 1863 
L 3688 0 
L 2938 0 
L 1159 1709 
L 1159 0 
L 581 0 
L 581 4863 
z
" transform="scale(0.015625)"/>
       <path id="DejaVuSans-4a" d="M 628 4666 
L 1259 4666 
L 1259 325 
Q 1259 -519 939 -900 
Q 619 -1281 -91 -1281 
L -331 -1281 
L -331 -750 
L -134 -750 
Q 284 -750 456 -515 
Q 628 -281 628 325 
L 628 4666 
z
" transform="scale(0.015625)"/>
       <path id="DejaVuSans-2f" d="M 1625 4666 
L 2156 4666 
L 531 -594 
L 0 -594 
L 1625 4666 
z
" transform="scale(0.015625)"/>
       <path id="DejaVuSans-6d" d="M 3328 2828 
Q 3544 3216 3844 3400 
Q 4144 3584 4550 3584 
Q 5097 3584 5394 3201 
Q 5691 2819 5691 2113 
L 5691 0 
L 5113 0 
L 5113 2094 
Q 5113 2597 4934 2840 
Q 4756 3084 4391 3084 
Q 3944 3084 3684 2787 
Q 3425 2491 3425 1978 
L 3425 0 
L 2847 0 
L 2847 2094 
Q 2847 2600 2669 2842 
Q 2491 3084 2119 3084 
Q 1678 3084 1418 2786 
Q 1159 2488 1159 1978 
L 1159 0 
L 581 0 
L 581 3500 
L 1159 3500 
L 1159 2956 
Q 1356 3278 1631 3431 
Q 1906 3584 2284 3584 
Q 2666 3584 2933 3390 
Q 3200 3197 3328 2828 
z
" transform="scale(0.015625)"/>
       <path id="DejaVuSans-5d" d="M 1947 4863 
L 1947 -844 
L 622 -844 
L 622 -397 
L 1369 -397 
L 1369 4416 
L 622 4416 
L 622 4863 
L 1947 4863 
z
" transform="scale(0.015625)"/>
      </defs>
      <use xlink:href="#DejaVuSans-41" transform="translate(0 0.015625)"/>
      <use xlink:href="#DejaVuSans-63" transform="translate(68.408203 0.015625)"/>
      <use xlink:href="#DejaVuSans-74" transform="translate(123.388672 0.015625)"/>
      <use xlink:href="#DejaVuSans-69" transform="translate(162.597656 0.015625)"/>
      <use xlink:href="#DejaVuSans-76" transform="translate(190.380859 0.015625)"/>
      <use xlink:href="#DejaVuSans-61" transform="translate(249.560547 0.015625)"/>
      <use xlink:href="#DejaVuSans-74" transform="translate(310.839844 0.015625)"/>
      <use xlink:href="#DejaVuSans-69" transform="translate(350.048828 0.015625)"/>
      <use xlink:href="#DejaVuSans-6f" transform="translate(377.832031 0.015625)"/>
      <use xlink:href="#DejaVuSans-6e" transform="translate(439.013672 0.015625)"/>
      <use xlink:href="#DejaVuSans-20" transform="translate(502.392578 0.015625)"/>
      <use xlink:href="#DejaVuSans-45" transform="translate(534.179688 0.015625)"/>
      <use xlink:href="#DejaVuSans-6e" transform="translate(597.363281 0.015625)"/>
      <use xlink:href="#DejaVuSans-65" transform="translate(660.742188 0.015625)"/>
      <use xlink:href="#DejaVuSans-72" transform="translate(722.265625 0.015625)"/>
      <use xlink:href="#DejaVuSans-67" transform="translate(763.378906 0.015625)"/>
      <use xlink:href="#DejaVuSans-79" transform="translate(826.855469 0.015625)"/>
      <use xlink:href="#DejaVuSans-20" transform="translate(886.035156 0.015625)"/>
      <use xlink:href="#DejaVuSans-Oblique-45" transform="translate(917.822266 0.015625)"/>
      <use xlink:href="#DejaVuSans-Oblique-61" transform="translate(981.005859 -16.390625) scale(0.7)"/>
      <use xlink:href="#DejaVuSans-20" transform="translate(1026.635742 0.015625)"/>
      <use xlink:href="#DejaVuSans-5b" transform="translate(1058.422852 0.015625)"/>
      <use xlink:href="#DejaVuSans-6b" transform="translate(1097.436523 0.015625)"/>
      <use xlink:href="#DejaVuSans-4a" transform="translate(1155.34668 0.015625)"/>
      <use xlink:href="#DejaVuSans-2f" transform="translate(1184.838867 0.015625)"/>
      <use xlink:href="#DejaVuSans-6d" transform="translate(1218.530273 0.015625)"/>
      <use xlink:href="#DejaVuSans-6f" transform="translate(1315.942383 0.015625)"/>
      <use xlink:href="#DejaVuSans-6c" transform="translate(1377.124023 0.015625)"/>
      <use xlink:href="#DejaVuSans-5d" transform="translate(1404.907227 0.015625)"/>
     </g>
    </g>
   </g>
   <g id="line2d_13">
    <path d="M 66.779091 354.583142 
L 410.460909 354.749011 
" clip-path="url(#p304d173b30)" style="fill: none; stroke-dasharray: 3.7,1.6; stroke-dashoffset: 0; stroke: #ff0000"/>
   </g>
   <g id="patch_3">
    <path d="M 49.595 370.405375 
L 49.595 25.965375 
" style="fill: none; stroke: #000000; stroke-width: 0.8; stroke-linejoin: miter; stroke-linecap: square"/>
   </g>
   <g id="patch_4">
    <path d="M 427.645 370.405375 
L 427.645 25.965375 
" style="fill: none; stroke: #000000; stroke-width: 0.8; stroke-linejoin: miter; stroke-linecap: square"/>
   </g>
   <g id="patch_5">
    <path d="M 49.595 370.405375 
L 427.645 370.405375 
" style="fill: none; stroke: #000000; stroke-width: 0.8; stroke-linejoin: miter; stroke-linecap: square"/>
   </g>
   <g id="patch_6">
    <path d="M 49.595 25.965375 
L 427.645 25.965375 
" style="fill: none; stroke: #000000; stroke-width: 0.8; stroke-linejoin: miter; stroke-linecap: square"/>
   </g>
   <g id="text_15">
    <!-- Activation Energy vs Water Mole Fraction (Combined) -->
    <g transform="translate(14.30325 19.965375) scale(0.168 -0.168)">
     <defs>
      <path id="DejaVuSans-73" d="M 2834 3397 
L 2834 2853 
Q 2591 2978 2328 3040 
Q 2066 3103 1784 3103 
Q 1356 3103 1142 2972 
Q 928 2841 928 2578 
Q 928 2378 1081 2264 
Q 1234 2150 1697 2047 
L 1894 2003 
Q 2506 1872 2764 1633 
Q 3022 1394 3022 966 
Q 3022 478 2636 193 
Q 2250 -91 1575 -91 
Q 1294 -91 989 -36 
Q 684 19 347 128 
L 347 722 
Q 666 556 975 473 
Q 1284 391 1588 391 
Q 1994 391 2212 530 
Q 2431 669 2431 922 
Q 2431 1156 2273 1281 
Q 2116 1406 1581 1522 
L 1381 1569 
Q 847 1681 609 1914 
Q 372 2147 372 2553 
Q 372 3047 722 3315 
Q 1072 3584 1716 3584 
Q 2034 3584 2315 3537 
Q 2597 3491 2834 3397 
z
" transform="scale(0.015625)"/>
      <path id="DejaVuSans-28" d="M 1984 4856 
Q 1566 4138 1362 3434 
Q 1159 2731 1159 2009 
Q 1159 1288 1364 580 
Q 1569 -128 1984 -844 
L 1484 -844 
Q 1016 -109 783 600 
Q 550 1309 550 2009 
Q 550 2706 781 3412 
Q 1013 4119 1484 4856 
L 1984 4856 
z
" transform="scale(0.015625)"/>
      <path id="DejaVuSans-43" d="M 4122 4306 
L 4122 3641 
Q 3803 3938 3442 4084 
Q 3081 4231 2675 4231 
Q 1875 4231 1450 3742 
Q 1025 3253 1025 2328 
Q 1025 1406 1450 917 
Q 1875 428 2675 428 
Q 3081 428 3442 575 
Q 3803 722 4122 1019 
L 4122 359 
Q 3791 134 3420 21 
Q 3050 -91 2638 -91 
Q 1578 -91 968 557 
Q 359 1206 359 2328 
Q 359 3453 968 4101 
Q 1578 4750 2638 4750 
Q 3056 4750 3426 4639 
Q 3797 4528 4122 4306 
z
" transform="scale(0.015625)"/>
      <path id="DejaVuSans-62" d="M 3116 1747 
Q 3116 2381 2855 2742 
Q 2594 3103 2138 3103 
Q 1681 3103 1420 2742 
Q 1159 2381 1159 1747 
Q 1159 1113 1420 752 
Q 1681 391 2138 391 
Q 2594 391 2855 752 
Q 3116 1113 3116 1747 
z
M 1159 2969 
Q 1341 3281 1617 3432 
Q 1894 3584 2278 3584 
Q 2916 3584 3314 3078 
Q 3713 2572 3713 1747 
Q 3713 922 3314 415 
Q 2916 -91 2278 -91 
Q 1894 -91 1617 61 
Q 1341 213 1159 525 
L 1159 0 
L 581 0 
L 581 4863 
L 1159 4863 
L 1159 2969 
z
" transform="scale(0.015625)"/>
      <path id="DejaVuSans-64" d="M 2906 2969 
L 2906 4863 
L 3481 4863 
L 3481 0 
L 2906 0 
L 2906 525 
Q 2725 213 2448 61 
Q 2172 -91 1784 -91 
Q 1150 -91 751 415 
Q 353 922 353 1747 
Q 353 2572 751 3078 
Q 1150 3584 1784 3584 
Q 2172 3584 2448 3432 
Q 2725 3281 2906 2969 
z
M 947 1747 
Q 947 1113 1208 752 
Q 1469 391 1925 391 
Q 2381 391 2643 752 
Q 2906 1113 2906 1747 
Q 2906 2381 2643 2742 
Q 2381 3103 1925 3103 
Q 1469 3103 1208 2742 
Q 947 2381 947 1747 
z
" transform="scale(0.015625)"/>
      <path id="DejaVuSans-29" d="M 513 4856 
L 1013 4856 
Q 1481 4119 1714 3412 
Q 1947 2706 1947 2009 
Q 1947 1309 1714 600 
Q 1481 -109 1013 -844 
L 513 -844 
Q 928 -128 1133 580 
Q 1338 1288 1338 2009 
Q 1338 2731 1133 3434 
Q 928 4138 513 4856 
z
" transform="scale(0.015625)"/>
     </defs>
     <use xlink:href="#DejaVuSans-41"/>
     <use xlink:href="#DejaVuSans-63" transform="translate(66.658203 0)"/>
     <use xlink:href="#DejaVuSans-74" transform="translate(121.638672 0)"/>
     <use xlink:href="#DejaVuSans-69" transform="translate(160.847656 0)"/>
     <use xlink:href="#DejaVuSans-76" transform="translate(188.630859 0)"/>
     <use xlink:href="#DejaVuSans-61" transform="translate(247.810547 0)"/>
     <use xlink:href="#DejaVuSans-74" transform="translate(309.089844 0)"/>
     <use xlink:href="#DejaVuSans-69" transform="translate(348.298828 0)"/>
     <use xlink:href="#DejaVuSans-6f" transform="translate(376.082031 0)"/>
     <use xlink:href="#DejaVuSans-6e" transform="translate(437.263672 0)"/>
     <use xlink:href="#DejaVuSans-20" transform="translate(500.642578 0)"/>
     <use xlink:href="#DejaVuSans-45" transform="translate(532.429688 0)"/>
     <use xlink:href="#DejaVuSans-6e" transform="translate(595.613281 0)"/>
     <use xlink:href="#DejaVuSans-65" transform="translate(658.992188 0)"/>
     <use xlink:href="#DejaVuSans-72" transform="translate(720.515625 0)"/>
     <use xlink:href="#DejaVuSans-67" transform="translate(759.878906 0)"/>
     <use xlink:href="#DejaVuSans-79" transform="translate(823.355469 0)"/>
     <use xlink:href="#DejaVuSans-20" transform="translate(882.535156 0)"/>
     <use xlink:href="#DejaVuSans-76" transform="translate(914.322266 0)"/>
     <use xlink:href="#DejaVuSans-73" transform="translate(973.501953 0)"/>
     <use xlink:href="#DejaVuSans-20" transform="translate(1025.601562 0)"/>
     <use xlink:href="#DejaVuSans-57" transform="translate(1057.388672 0)"/>
     <use xlink:href="#DejaVuSans-61" transform="translate(1149.890625 0)"/>
     <use xlink:href="#DejaVuSans-74" transform="translate(1211.169922 0)"/>
     <use xlink:href="#DejaVuSans-65" transform="translate(1250.378906 0)"/>
     <use xlink:href="#DejaVuSans-72" transform="translate(1311.902344 0)"/>
     <use xlink:href="#DejaVuSans-20" transform="translate(1353.015625 0)"/>
     <use xlink:href="#DejaVuSans-4d" transform="translate(1384.802734 0)"/>
     <use xlink:href="#DejaVuSans-6f" transform="translate(1471.082031 0)"/>
     <use xlink:href="#DejaVuSans-6c" transform="translate(1532.263672 0)"/>
     <use xlink:href="#DejaVuSans-65" transform="translate(1560.046875 0)"/>
     <use xlink:href="#DejaVuSans-20" transform="translate(1621.570312 0)"/>
     <use xlink:href="#DejaVuSans-46" transform="translate(1653.357422 0)"/>
     <use xlink:href="#DejaVuSans-72" transform="translate(1703.626953 0)"/>
     <use xlink:href="#DejaVuSans-61" transform="translate(1744.740234 0)"/>
     <use xlink:href="#DejaVuSans-63" transform="translate(1806.019531 0)"/>
     <use xlink:href="#DejaVuSans-74" transform="translate(1861 0)"/>
     <use xlink:href="#DejaVuSans-69" transform="translate(1900.208984 0)"/>
     <use xlink:href="#DejaVuSans-6f" transform="translate(1927.992188 0)"/>
     <use xlink:href="#DejaVuSans-6e" transform="translate(1989.173828 0)"/>
     <use xlink:href="#DejaVuSans-20" transform="translate(2052.552734 0)"/>
     <use xlink:href="#DejaVuSans-28" transform="translate(2084.339844 0)"/>
     <use xlink:href="#DejaVuSans-43" transform="translate(2123.353516 0)"/>
     <use xlink:href="#DejaVuSans-6f" transform="translate(2193.177734 0)"/>
     <use xlink:href="#DejaVuSans-6d" transform="translate(2254.359375 0)"/>
     <use xlink:href="#DejaVuSans-62" transform="translate(2351.771484 0)"/>
     <use xlink:href="#DejaVuSans-69" transform="translate(2415.248047 0)"/>
     <use xlink:href="#DejaVuSans-6e" transform="translate(2443.03125 0)"/>
     <use xlink:href="#DejaVuSans-65" transform="translate(2506.410156 0)"/>
     <use xlink:href="#DejaVuSans-64" transform="translate(2567.933594 0)"/>
     <use xlink:href="#DejaVuSans-29" transform="translate(2631.410156 0)"/>
    </g>
   </g>
   <g id="legend_1">
    <g id="patch_7">
     <path d="M 452.567 197.077312 
L 704.591063 197.077312 
Q 707.391063 197.077312 707.391063 194.277312 
L 707.391063 35.765375 
Q 707.391063 32.965375 704.591063 32.965375 
L 452.567 32.965375 
Q 449.767 32.965375 449.767 35.765375 
L 449.767 194.277312 
Q 449.767 197.077312 452.567 197.077312 
z
" style="fill: #ffffff; opacity: 0.8; stroke: #cccccc; stroke-linejoin: miter"/>
    </g>
    <g id="text_16">
     <!-- Source DOI -->
     <g transform="translate(539.3495 49.203187) scale(0.14 -0.14)">
      <defs>
       <path id="DejaVuSans-53" d="M 3425 4513 
L 3425 3897 
Q 3066 4069 2747 4153 
Q 2428 4238 2131 4238 
Q 1616 4238 1336 4038 
Q 1056 3838 1056 3469 
Q 1056 3159 1242 3001 
Q 1428 2844 1947 2747 
L 2328 2669 
Q 3034 2534 3370 2195 
Q 3706 1856 3706 1288 
Q 3706 609 3251 259 
Q 2797 -91 1919 -91 
Q 1588 -91 1214 -16 
Q 841 59 441 206 
L 441 856 
Q 825 641 1194 531 
Q 1563 422 1919 422 
Q 2459 422 2753 634 
Q 3047 847 3047 1241 
Q 3047 1584 2836 1778 
Q 2625 1972 2144 2069 
L 1759 2144 
Q 1053 2284 737 2584 
Q 422 2884 422 3419 
Q 422 4038 858 4394 
Q 1294 4750 2059 4750 
Q 2388 4750 2728 4690 
Q 3069 4631 3425 4513 
z
" transform="scale(0.015625)"/>
       <path id="DejaVuSans-75" d="M 544 1381 
L 544 3500 
L 1119 3500 
L 1119 1403 
Q 1119 906 1312 657 
Q 1506 409 1894 409 
Q 2359 409 2629 706 
Q 2900 1003 2900 1516 
L 2900 3500 
L 3475 3500 
L 3475 0 
L 2900 0 
L 2900 538 
Q 2691 219 2414 64 
Q 2138 -91 1772 -91 
Q 1169 -91 856 284 
Q 544 659 544 1381 
z
M 1991 3584 
L 1991 3584 
z
" transform="scale(0.015625)"/>
       <path id="DejaVuSans-44" d="M 1259 4147 
L 1259 519 
L 2022 519 
Q 2988 519 3436 956 
Q 3884 1394 3884 2338 
Q 3884 3275 3436 3711 
Q 2988 4147 2022 4147 
L 1259 4147 
z
M 628 4666 
L 1925 4666 
Q 3281 4666 3915 4102 
Q 4550 3538 4550 2338 
Q 4550 1131 3912 565 
Q 3275 0 1925 0 
L 628 0 
L 628 4666 
z
" transform="scale(0.015625)"/>
       <path id="DejaVuSans-4f" d="M 2522 4238 
Q 1834 4238 1429 3725 
Q 1025 3213 1025 2328 
Q 1025 1447 1429 934 
Q 1834 422 2522 422 
Q 3209 422 3611 934 
Q 4013 1447 4013 2328 
Q 4013 3213 3611 3725 
Q 3209 4238 2522 4238 
z
M 2522 4750 
Q 3503 4750 4090 4092 
Q 4678 3434 4678 2328 
Q 4678 1225 4090 567 
Q 3503 -91 2522 -91 
Q 1538 -91 948 565 
Q 359 1222 359 2328 
Q 359 3434 948 4092 
Q 1538 4750 2522 4750 
z
" transform="scale(0.015625)"/>
       <path id="DejaVuSans-49" d="M 628 4666 
L 1259 4666 
L 1259 0 
L 628 0 
L 628 4666 
z
" transform="scale(0.015625)"/>
      </defs>
      <use xlink:href="#DejaVuSans-53"/>
      <use xlink:href="#DejaVuSans-6f" transform="translate(63.476562 0)"/>
      <use xlink:href="#DejaVuSans-75" transform="translate(124.658203 0)"/>
      <use xlink:href="#DejaVuSans-72" transform="translate(188.037109 0)"/>
      <use xlink:href="#DejaVuSans-63" transform="translate(226.900391 0)"/>
      <use xlink:href="#DejaVuSans-65" transform="translate(281.880859 0)"/>
      <use xlink:href="#DejaVuSans-20" transform="translate(343.404297 0)"/>
      <use xlink:href="#DejaVuSans-44" transform="translate(375.191406 0)"/>
      <use xlink:href="#DejaVuSans-4f" transform="translate(452.193359 0)"/>
      <use xlink:href="#DejaVuSans-49" transform="translate(530.904297 0)"/>
     </g>
    </g>
    <g id="line2d_14">
     <path d="M 455.367 64.852562 
L 469.367 64.852562 
L 483.367 64.852562 
" style="fill: none; stroke: #ffffff; stroke-width: 1.5; stroke-linecap: square"/>
     <defs>
      <path id="m230b0eac3a" d="M 0 5 
C 1.326016 5 2.597899 4.473168 3.535534 3.535534 
C 4.473168 2.597899 5 1.326016 5 0 
C 5 -1.326016 4.473168 -2.597899 3.535534 -3.535534 
C 2.597899 -4.473168 1.326016 -5 0 -5 
C -1.326016 -5 -2.597899 -4.473168 -3.535534 -3.535534 
C -4.473168 -2.597899 -5 -1.326016 -5 0 
C -5 1.326016 -4.473168 2.597899 -3.535534 3.535534 
C -2.597899 4.473168 -1.326016 5 0 5 
z
" style="stroke: #000000"/>
     </defs>
     <g>
      <use xlink:href="#m230b0eac3a" x="469.367" y="64.852562" style="fill: #1f77b4; stroke: #000000"/>
     </g>
    </g>
    <g id="text_17">
     <!-- 10.1016/j.jct.2018.07.031 -->
     <g transform="translate(494.567 69.752562) scale(0.14 -0.14)">
      <defs>
       <path id="DejaVuSans-6a" d="M 603 3500 
L 1178 3500 
L 1178 -63 
Q 1178 -731 923 -1031 
Q 669 -1331 103 -1331 
L -116 -1331 
L -116 -844 
L 38 -844 
Q 366 -844 484 -692 
Q 603 -541 603 -63 
L 603 3500 
z
M 603 4863 
L 1178 4863 
L 1178 4134 
L 603 4134 
L 603 4863 
z
" transform="scale(0.015625)"/>
       <path id="DejaVuSans-37" d="M 525 4666 
L 3525 4666 
L 3525 4397 
L 1831 0 
L 1172 0 
L 2766 4134 
L 525 4134 
L 525 4666 
z
" transform="scale(0.015625)"/>
      </defs>
      <use xlink:href="#DejaVuSans-31"/>
      <use xlink:href="#DejaVuSans-30" transform="translate(63.623047 0)"/>
      <use xlink:href="#DejaVuSans-2e" transform="translate(127.246094 0)"/>
      <use xlink:href="#DejaVuSans-31" transform="translate(159.033203 0)"/>
      <use xlink:href="#DejaVuSans-30" transform="translate(222.65625 0)"/>
      <use xlink:href="#DejaVuSans-31" transform="translate(286.279297 0)"/>
      <use xlink:href="#DejaVuSans-36" transform="translate(349.902344 0)"/>
      <use xlink:href="#DejaVuSans-2f" transform="translate(413.525391 0)"/>
      <use xlink:href="#DejaVuSans-6a" transform="translate(447.216797 0)"/>
      <use xlink:href="#DejaVuSans-2e" transform="translate(475 0)"/>
      <use xlink:href="#DejaVuSans-6a" transform="translate(506.787109 0)"/>
      <use xlink:href="#DejaVuSans-63" transform="translate(534.570312 0)"/>
      <use xlink:href="#DejaVuSans-74" transform="translate(589.550781 0)"/>
      <use xlink:href="#DejaVuSans-2e" transform="translate(628.759766 0)"/>
      <use xlink:href="#DejaVuSans-32" transform="translate(660.546875 0)"/>
      <use xlink:href="#DejaVuSans-30" transform="translate(724.169922 0)"/>
      <use xlink:href="#DejaVuSans-31" transform="translate(787.792969 0)"/>
      <use xlink:href="#DejaVuSans-38" transform="translate(851.416016 0)"/>
      <use xlink:href="#DejaVuSans-2e" transform="translate(915.039062 0)"/>
      <use xlink:href="#DejaVuSans-30" transform="translate(946.826172 0)"/>
      <use xlink:href="#DejaVuSans-37" transform="translate(1010.449219 0)"/>
      <use xlink:href="#DejaVuSans-2e" transform="translate(1074.072266 0)"/>
      <use xlink:href="#DejaVuSans-30" transform="translate(1105.859375 0)"/>
      <use xlink:href="#DejaVuSans-33" transform="translate(1169.482422 0)"/>
      <use xlink:href="#DejaVuSans-31" transform="translate(1233.105469 0)"/>
     </g>
    </g>
    <g id="line2d_15">
     <path d="M 455.367 85.401937 
L 469.367 85.401937 
L 483.367 85.401937 
" style="fill: none; stroke: #ffffff; stroke-width: 1.5; stroke-linecap: square"/>
     <defs>
      <path id="ma399268909" d="M 0 5 
C 1.326016 5 2.597899 4.473168 3.535534 3.535534 
C 4.473168 2.597899 5 1.326016 5 0 
C 5 -1.326016 4.473168 -2.597899 3.535534 -3.535534 
C 2.597899 -4.473168 1.326016 -5 0 -5 
C -1.326016 -5 -2.597899 -4.473168 -3.535534 -3.535534 
C -4.473168 -2.597899 -5 -1.326016 -5 0 
C -5 1.326016 -4.473168 2.597899 -3.535534 3.535534 
C -2.597899 4.473168 -1.326016 5 0 5 
z
" style="stroke: #000000"/>
     </defs>
     <g>
      <use xlink:href="#ma399268909" x="469.367" y="85.401937" style="fill: #ff7f0e; stroke: #000000"/>
     </g>
    </g>
    <g id="text_18">
     <!-- 10.1016/j.molliq.2015.11.032 -->
     <g transform="translate(494.567 90.301937) scale(0.14 -0.14)">
      <defs>
       <path id="DejaVuSans-71" d="M 947 1747 
Q 947 1113 1208 752 
Q 1469 391 1925 391 
Q 2381 391 2643 752 
Q 2906 1113 2906 1747 
Q 2906 2381 2643 2742 
Q 2381 3103 1925 3103 
Q 1469 3103 1208 2742 
Q 947 2381 947 1747 
z
M 2906 525 
Q 2725 213 2448 61 
Q 2172 -91 1784 -91 
Q 1150 -91 751 415 
Q 353 922 353 1747 
Q 353 2572 751 3078 
Q 1150 3584 1784 3584 
Q 2172 3584 2448 3432 
Q 2725 3281 2906 2969 
L 2906 3500 
L 3481 3500 
L 3481 -1331 
L 2906 -1331 
L 2906 525 
z
" transform="scale(0.015625)"/>
      </defs>
      <use xlink:href="#DejaVuSans-31"/>
      <use xlink:href="#DejaVuSans-30" transform="translate(63.623047 0)"/>
      <use xlink:href="#DejaVuSans-2e" transform="translate(127.246094 0)"/>
      <use xlink:href="#DejaVuSans-31" transform="translate(159.033203 0)"/>
      <use xlink:href="#DejaVuSans-30" transform="translate(222.65625 0)"/>
      <use xlink:href="#DejaVuSans-31" transform="translate(286.279297 0)"/>
      <use xlink:href="#DejaVuSans-36" transform="translate(349.902344 0)"/>
      <use xlink:href="#DejaVuSans-2f" transform="translate(413.525391 0)"/>
      <use xlink:href="#DejaVuSans-6a" transform="translate(447.216797 0)"/>
      <use xlink:href="#DejaVuSans-2e" transform="translate(475 0)"/>
      <use xlink:href="#DejaVuSans-6d" transform="translate(506.787109 0)"/>
      <use xlink:href="#DejaVuSans-6f" transform="translate(604.199219 0)"/>
      <use xlink:href="#DejaVuSans-6c" transform="translate(665.380859 0)"/>
      <use xlink:href="#DejaVuSans-6c" transform="translate(693.164062 0)"/>
      <use xlink:href="#DejaVuSans-69" transform="translate(720.947266 0)"/>
      <use xlink:href="#DejaVuSans-71" transform="translate(748.730469 0)"/>
      <use xlink:href="#DejaVuSans-2e" transform="translate(812.207031 0)"/>
      <use xlink:href="#DejaVuSans-32" transform="translate(843.994141 0)"/>
      <use xlink:href="#DejaVuSans-30" transform="translate(907.617188 0)"/>
      <use xlink:href="#DejaVuSans-31" transform="translate(971.240234 0)"/>
      <use xlink:href="#DejaVuSans-35" transform="translate(1034.863281 0)"/>
      <use xlink:href="#DejaVuSans-2e" transform="translate(1098.486328 0)"/>
      <use xlink:href="#DejaVuSans-31" transform="translate(1130.273438 0)"/>
      <use xlink:href="#DejaVuSans-31" transform="translate(1193.896484 0)"/>
      <use xlink:href="#DejaVuSans-2e" transform="translate(1257.519531 0)"/>
      <use xlink:href="#DejaVuSans-30" transform="translate(1289.306641 0)"/>
      <use xlink:href="#DejaVuSans-33" transform="translate(1352.929688 0)"/>
      <use xlink:href="#DejaVuSans-32" transform="translate(1416.552734 0)"/>
     </g>
    </g>
    <g id="line2d_16">
     <path d="M 455.367 105.951312 
L 469.367 105.951312 
L 483.367 105.951312 
" style="fill: none; stroke: #ffffff; stroke-width: 1.5; stroke-linecap: square"/>
     <defs>
      <path id="ma05838a938" d="M 0 5 
C 1.326016 5 2.597899 4.473168 3.535534 3.535534 
C 4.473168 2.597899 5 1.326016 5 0 
C 5 -1.326016 4.473168 -2.597899 3.535534 -3.535534 
C 2.597899 -4.473168 1.326016 -5 0 -5 
C -1.326016 -5 -2.597899 -4.473168 -3.535534 -3.535534 
C -4.473168 -2.597899 -5 -1.326016 -5 0 
C -5 1.326016 -4.473168 2.597899 -3.535534 3.535534 
C -2.597899 4.473168 -1.326016 5 0 5 
z
" style="stroke: #000000"/>
     </defs>
     <g>
      <use xlink:href="#ma05838a938" x="469.367" y="105.951312" style="fill: #2ca02c; stroke: #000000"/>
     </g>
    </g>
    <g id="text_19">
     <!-- 10.1039/c1cp22554e -->
     <g transform="translate(494.567 110.851312) scale(0.14 -0.14)">
      <defs>
       <path id="DejaVuSans-39" d="M 703 97 
L 703 672 
Q 941 559 1184 500 
Q 1428 441 1663 441 
Q 2288 441 2617 861 
Q 2947 1281 2994 2138 
Q 2813 1869 2534 1725 
Q 2256 1581 1919 1581 
Q 1219 1581 811 2004 
Q 403 2428 403 3163 
Q 403 3881 828 4315 
Q 1253 4750 1959 4750 
Q 2769 4750 3195 4129 
Q 3622 3509 3622 2328 
Q 3622 1225 3098 567 
Q 2575 -91 1691 -91 
Q 1453 -91 1209 -44 
Q 966 3 703 97 
z
M 1959 2075 
Q 2384 2075 2632 2365 
Q 2881 2656 2881 3163 
Q 2881 3666 2632 3958 
Q 2384 4250 1959 4250 
Q 1534 4250 1286 3958 
Q 1038 3666 1038 3163 
Q 1038 2656 1286 2365 
Q 1534 2075 1959 2075 
z
" transform="scale(0.015625)"/>
       <path id="DejaVuSans-70" d="M 1159 525 
L 1159 -1331 
L 581 -1331 
L 581 3500 
L 1159 3500 
L 1159 2969 
Q 1341 3281 1617 3432 
Q 1894 3584 2278 3584 
Q 2916 3584 3314 3078 
Q 3713 2572 3713 1747 
Q 3713 922 3314 415 
Q 2916 -91 2278 -91 
Q 1894 -91 1617 61 
Q 1341 213 1159 525 
z
M 3116 1747 
Q 3116 2381 2855 2742 
Q 2594 3103 2138 3103 
Q 1681 3103 1420 2742 
Q 1159 2381 1159 1747 
Q 1159 1113 1420 752 
Q 1681 391 2138 391 
Q 2594 391 2855 752 
Q 3116 1113 3116 1747 
z
" transform="scale(0.015625)"/>
      </defs>
      <use xlink:href="#DejaVuSans-31"/>
      <use xlink:href="#DejaVuSans-30" transform="translate(63.623047 0)"/>
      <use xlink:href="#DejaVuSans-2e" transform="translate(127.246094 0)"/>
      <use xlink:href="#DejaVuSans-31" transform="translate(159.033203 0)"/>
      <use xlink:href="#DejaVuSans-30" transform="translate(222.65625 0)"/>
      <use xlink:href="#DejaVuSans-33" transform="translate(286.279297 0)"/>
      <use xlink:href="#DejaVuSans-39" transform="translate(349.902344 0)"/>
      <use xlink:href="#DejaVuSans-2f" transform="translate(413.525391 0)"/>
      <use xlink:href="#DejaVuSans-63" transform="translate(447.216797 0)"/>
      <use xlink:href="#DejaVuSans-31" transform="translate(502.197266 0)"/>
      <use xlink:href="#DejaVuSans-63" transform="translate(565.820312 0)"/>
      <use xlink:href="#DejaVuSans-70" transform="translate(620.800781 0)"/>
      <use xlink:href="#DejaVuSans-32" transform="translate(684.277344 0)"/>
      <use xlink:href="#DejaVuSans-32" transform="translate(747.900391 0)"/>
      <use xlink:href="#DejaVuSans-35" transform="translate(811.523438 0)"/>
      <use xlink:href="#DejaVuSans-35" transform="translate(875.146484 0)"/>
      <use xlink:href="#DejaVuSans-34" transform="translate(938.769531 0)"/>
      <use xlink:href="#DejaVuSans-65" transform="translate(1002.392578 0)"/>
     </g>
    </g>
    <g id="line2d_17">
     <path d="M 455.367 126.500687 
L 469.367 126.500687 
L 483.367 126.500687 
" style="fill: none; stroke: #ffffff; stroke-width: 1.5; stroke-linecap: square"/>
     <defs>
      <path id="m0a802997d0" d="M 0 5 
C 1.326016 5 2.597899 4.473168 3.535534 3.535534 
C 4.473168 2.597899 5 1.326016 5 0 
C 5 -1.326016 4.473168 -2.597899 3.535534 -3.535534 
C 2.597899 -4.473168 1.326016 -5 0 -5 
C -1.326016 -5 -2.597899 -4.473168 -3.535534 -3.535534 
C -4.473168 -2.597899 -5 -1.326016 -5 0 
C -5 1.326016 -4.473168 2.597899 -3.535534 3.535534 
C -2.597899 4.473168 -1.326016 5 0 5 
z
" style="stroke: #000000"/>
     </defs>
     <g>
      <use xlink:href="#m0a802997d0" x="469.367" y="126.500687" style="fill: #d62728; stroke: #000000"/>
     </g>
    </g>
    <g id="text_20">
     <!-- 10.1039/c0gc00395f -->
     <g transform="translate(494.567 131.400687) scale(0.14 -0.14)">
      <defs>
       <path id="DejaVuSans-66" d="M 2375 4863 
L 2375 4384 
L 1825 4384 
Q 1516 4384 1395 4259 
Q 1275 4134 1275 3809 
L 1275 3500 
L 2222 3500 
L 2222 3053 
L 1275 3053 
L 1275 0 
L 697 0 
L 697 3053 
L 147 3053 
L 147 3500 
L 697 3500 
L 697 3744 
Q 697 4328 969 4595 
Q 1241 4863 1831 4863 
L 2375 4863 
z
" transform="scale(0.015625)"/>
      </defs>
      <use xlink:href="#DejaVuSans-31"/>
      <use xlink:href="#DejaVuSans-30" transform="translate(63.623047 0)"/>
      <use xlink:href="#DejaVuSans-2e" transform="translate(127.246094 0)"/>
      <use xlink:href="#DejaVuSans-31" transform="translate(159.033203 0)"/>
      <use xlink:href="#DejaVuSans-30" transform="translate(222.65625 0)"/>
      <use xlink:href="#DejaVuSans-33" transform="translate(286.279297 0)"/>
      <use xlink:href="#DejaVuSans-39" transform="translate(349.902344 0)"/>
      <use xlink:href="#DejaVuSans-2f" transform="translate(413.525391 0)"/>
      <use xlink:href="#DejaVuSans-63" transform="translate(447.216797 0)"/>
      <use xlink:href="#DejaVuSans-30" transform="translate(502.197266 0)"/>
      <use xlink:href="#DejaVuSans-67" transform="translate(565.820312 0)"/>
      <use xlink:href="#DejaVuSans-63" transform="translate(629.296875 0)"/>
      <use xlink:href="#DejaVuSans-30" transform="translate(684.277344 0)"/>
      <use xlink:href="#DejaVuSans-30" transform="translate(747.900391 0)"/>
      <use xlink:href="#DejaVuSans-33" transform="translate(811.523438 0)"/>
      <use xlink:href="#DejaVuSans-39" transform="translate(875.146484 0)"/>
      <use xlink:href="#DejaVuSans-35" transform="translate(938.769531 0)"/>
      <use xlink:href="#DejaVuSans-66" transform="translate(1002.392578 0)"/>
     </g>
    </g>
    <g id="line2d_18">
     <path d="M 455.367 147.050062 
L 469.367 147.050062 
L 483.367 147.050062 
" style="fill: none; stroke: #ffffff; stroke-width: 1.5; stroke-linecap: square"/>
     <defs>
      <path id="m33daa9cf92" d="M 0 5 
C 1.326016 5 2.597899 4.473168 3.535534 3.535534 
C 4.473168 2.597899 5 1.326016 5 0 
C 5 -1.326016 4.473168 -2.597899 3.535534 -3.535534 
C 2.597899 -4.473168 1.326016 -5 0 -5 
C -1.326016 -5 -2.597899 -4.473168 -3.535534 -3.535534 
C -4.473168 -2.597899 -5 -1.326016 -5 0 
C -5 1.326016 -4.473168 2.597899 -3.535534 3.535534 
C -2.597899 4.473168 -1.326016 5 0 5 
z
" style="stroke: #000000"/>
     </defs>
     <g>
      <use xlink:href="#m33daa9cf92" x="469.367" y="147.050062" style="fill: #9467bd; stroke: #000000"/>
     </g>
    </g>
    <g id="text_21">
     <!-- 10.1016/j.fluid.2014.01.028 -->
     <g transform="translate(494.567 151.950062) scale(0.14 -0.14)">
      <use xlink:href="#DejaVuSans-31"/>
      <use xlink:href="#DejaVuSans-30" transform="translate(63.623047 0)"/>
      <use xlink:href="#DejaVuSans-2e" transform="translate(127.246094 0)"/>
      <use xlink:href="#DejaVuSans-31" transform="translate(159.033203 0)"/>
      <use xlink:href="#DejaVuSans-30" transform="translate(222.65625 0)"/>
      <use xlink:href="#DejaVuSans-31" transform="translate(286.279297 0)"/>
      <use xlink:href="#DejaVuSans-36" transform="translate(349.902344 0)"/>
      <use xlink:href="#DejaVuSans-2f" transform="translate(413.525391 0)"/>
      <use xlink:href="#DejaVuSans-6a" transform="translate(447.216797 0)"/>
      <use xlink:href="#DejaVuSans-2e" transform="translate(475 0)"/>
      <use xlink:href="#DejaVuSans-66" transform="translate(506.787109 0)"/>
      <use xlink:href="#DejaVuSans-6c" transform="translate(541.992188 0)"/>
      <use xlink:href="#DejaVuSans-75" transform="translate(569.775391 0)"/>
      <use xlink:href="#DejaVuSans-69" transform="translate(633.154297 0)"/>
      <use xlink:href="#DejaVuSans-64" transform="translate(660.9375 0)"/>
      <use xlink:href="#DejaVuSans-2e" transform="translate(724.414062 0)"/>
      <use xlink:href="#DejaVuSans-32" transform="translate(756.201172 0)"/>
      <use xlink:href="#DejaVuSans-30" transform="translate(819.824219 0)"/>
      <use xlink:href="#DejaVuSans-31" transform="translate(883.447266 0)"/>
      <use xlink:href="#DejaVuSans-34" transform="translate(947.070312 0)"/>
      <use xlink:href="#DejaVuSans-2e" transform="translate(1010.693359 0)"/>
      <use xlink:href="#DejaVuSans-30" transform="translate(1042.480469 0)"/>
      <use xlink:href="#DejaVuSans-31" transform="translate(1106.103516 0)"/>
      <use xlink:href="#DejaVuSans-2e" transform="translate(1169.726562 0)"/>
      <use xlink:href="#DejaVuSans-30" transform="translate(1201.513672 0)"/>
      <use xlink:href="#DejaVuSans-32" transform="translate(1265.136719 0)"/>
      <use xlink:href="#DejaVuSans-38" transform="translate(1328.759766 0)"/>
     </g>
    </g>
    <g id="line2d_19">
     <path d="M 455.367 177.088375 
L 469.367 177.088375 
L 483.367 177.088375 
" style="fill: none; stroke-dasharray: 3.7,1.6; stroke-dashoffset: 0; stroke: #ff0000"/>
    </g>
    <g id="text_22">
     <!-- Ideal Mixing -->
     <g transform="translate(494.567 172.499437) scale(0.14 -0.14)">
      <defs>
       <path id="DejaVuSans-78" d="M 3513 3500 
L 2247 1797 
L 3578 0 
L 2900 0 
L 1881 1375 
L 863 0 
L 184 0 
L 1544 1831 
L 300 3500 
L 978 3500 
L 1906 2253 
L 2834 3500 
L 3513 3500 
z
" transform="scale(0.015625)"/>
      </defs>
      <use xlink:href="#DejaVuSans-49"/>
      <use xlink:href="#DejaVuSans-64" transform="translate(29.492188 0)"/>
      <use xlink:href="#DejaVuSans-65" transform="translate(92.96875 0)"/>
      <use xlink:href="#DejaVuSans-61" transform="translate(154.492188 0)"/>
      <use xlink:href="#DejaVuSans-6c" transform="translate(215.771484 0)"/>
      <use xlink:href="#DejaVuSans-20" transform="translate(243.554688 0)"/>
      <use xlink:href="#DejaVuSans-4d" transform="translate(275.341797 0)"/>
      <use xlink:href="#DejaVuSans-69" transform="translate(361.621094 0)"/>
      <use xlink:href="#DejaVuSans-78" transform="translate(389.404297 0)"/>
      <use xlink:href="#DejaVuSans-69" transform="translate(448.583984 0)"/>
      <use xlink:href="#DejaVuSans-6e" transform="translate(476.367188 0)"/>
      <use xlink:href="#DejaVuSans-67" transform="translate(539.746094 0)"/>
     </g>
     <!-- (molar_ratio=2) -->
     <g transform="translate(494.567 188.176375) scale(0.14 -0.14)">
      <defs>
       <path id="DejaVuSans-5f" d="M 3263 -1063 
L 3263 -1509 
L -63 -1509 
L -63 -1063 
L 3263 -1063 
z
" transform="scale(0.015625)"/>
       <path id="DejaVuSans-3d" d="M 678 2906 
L 4684 2906 
L 4684 2381 
L 678 2381 
L 678 2906 
z
M 678 1631 
L 4684 1631 
L 4684 1100 
L 678 1100 
L 678 1631 
z
" transform="scale(0.015625)"/>
      </defs>
      <use xlink:href="#DejaVuSans-28"/>
      <use xlink:href="#DejaVuSans-6d" transform="translate(39.013672 0)"/>
      <use xlink:href="#DejaVuSans-6f" transform="translate(136.425781 0)"/>
      <use xlink:href="#DejaVuSans-6c" transform="translate(197.607422 0)"/>
      <use xlink:href="#DejaVuSans-61" transform="translate(225.390625 0)"/>
      <use xlink:href="#DejaVuSans-72" transform="translate(286.669922 0)"/>
      <use xlink:href="#DejaVuSans-5f" transform="translate(327.783203 0)"/>
      <use xlink:href="#DejaVuSans-72" transform="translate(377.783203 0)"/>
      <use xlink:href="#DejaVuSans-61" transform="translate(418.896484 0)"/>
      <use xlink:href="#DejaVuSans-74" transform="translate(480.175781 0)"/>
      <use xlink:href="#DejaVuSans-69" transform="translate(519.384766 0)"/>
      <use xlink:href="#DejaVuSans-6f" transform="translate(547.167969 0)"/>
      <use xlink:href="#DejaVuSans-3d" transform="translate(608.349609 0)"/>
      <use xlink:href="#DejaVuSans-32" transform="translate(692.138672 0)"/>
      <use xlink:href="#DejaVuSans-29" transform="translate(755.761719 0)"/>
     </g>
    </g>
   </g>
   <g id="legend_2">
    <g id="patch_8">
     <path d="M 531.9575 324.02295 
L 707.550313 324.02295 
Q 710.350313 324.02295 710.350313 321.22295 
L 710.350313 218.318575 
Q 710.350313 215.518575 707.550313 215.518575 
L 531.9575 215.518575 
Q 529.1575 215.518575 529.1575 218.318575 
L 529.1575 321.22295 
Q 529.1575 324.02295 531.9575 324.02295 
z
" style="fill: #ffffff; opacity: 0.8; stroke: #cccccc; stroke-linejoin: miter"/>
    </g>
    <g id="text_23">
     <!-- Marker Size: Molar Ratio -->
     <g transform="translate(534.7575 231.756387) scale(0.14 -0.14)">
      <defs>
       <path id="DejaVuSans-7a" d="M 353 3500 
L 3084 3500 
L 3084 2975 
L 922 459 
L 3084 459 
L 3084 0 
L 275 0 
L 275 525 
L 2438 3041 
L 353 3041 
L 353 3500 
z
" transform="scale(0.015625)"/>
       <path id="DejaVuSans-3a" d="M 750 794 
L 1409 794 
L 1409 0 
L 750 0 
L 750 794 
z
M 750 3309 
L 1409 3309 
L 1409 2516 
L 750 2516 
L 750 3309 
z
" transform="scale(0.015625)"/>
       <path id="DejaVuSans-52" d="M 2841 2188 
Q 3044 2119 3236 1894 
Q 3428 1669 3622 1275 
L 4263 0 
L 3584 0 
L 2988 1197 
Q 2756 1666 2539 1819 
Q 2322 1972 1947 1972 
L 1259 1972 
L 1259 0 
L 628 0 
L 628 4666 
L 2053 4666 
Q 2853 4666 3247 4331 
Q 3641 3997 3641 3322 
Q 3641 2881 3436 2590 
Q 3231 2300 2841 2188 
z
M 1259 4147 
L 1259 2491 
L 2053 2491 
Q 2509 2491 2742 2702 
Q 2975 2913 2975 3322 
Q 2975 3731 2742 3939 
Q 2509 4147 2053 4147 
L 1259 4147 
z
" transform="scale(0.015625)"/>
      </defs>
      <use xlink:href="#DejaVuSans-4d"/>
      <use xlink:href="#DejaVuSans-61" transform="translate(86.279297 0)"/>
      <use xlink:href="#DejaVuSans-72" transform="translate(147.558594 0)"/>
      <use xlink:href="#DejaVuSans-6b" transform="translate(188.671875 0)"/>
      <use xlink:href="#DejaVuSans-65" transform="translate(242.957031 0)"/>
      <use xlink:href="#DejaVuSans-72" transform="translate(304.480469 0)"/>
      <use xlink:href="#DejaVuSans-20" transform="translate(345.59375 0)"/>
      <use xlink:href="#DejaVuSans-53" transform="translate(377.380859 0)"/>
      <use xlink:href="#DejaVuSans-69" transform="translate(440.857422 0)"/>
      <use xlink:href="#DejaVuSans-7a" transform="translate(468.640625 0)"/>
      <use xlink:href="#DejaVuSans-65" transform="translate(521.130859 0)"/>
      <use xlink:href="#DejaVuSans-3a" transform="translate(582.654297 0)"/>
      <use xlink:href="#DejaVuSans-20" transform="translate(616.345703 0)"/>
      <use xlink:href="#DejaVuSans-4d" transform="translate(648.132812 0)"/>
      <use xlink:href="#DejaVuSans-6f" transform="translate(734.412109 0)"/>
      <use xlink:href="#DejaVuSans-6c" transform="translate(795.59375 0)"/>
      <use xlink:href="#DejaVuSans-61" transform="translate(823.376953 0)"/>
      <use xlink:href="#DejaVuSans-72" transform="translate(884.65625 0)"/>
      <use xlink:href="#DejaVuSans-20" transform="translate(925.769531 0)"/>
      <use xlink:href="#DejaVuSans-52" transform="translate(957.556641 0)"/>
      <use xlink:href="#DejaVuSans-61" transform="translate(1024.789062 0)"/>
      <use xlink:href="#DejaVuSans-74" transform="translate(1086.068359 0)"/>
      <use xlink:href="#DejaVuSans-69" transform="translate(1125.277344 0)"/>
      <use xlink:href="#DejaVuSans-6f" transform="translate(1153.060547 0)"/>
     </g>
    </g>
    <g id="line2d_20">
     <path d="M 545.527656 247.405762 
L 559.527656 247.405762 
L 573.527656 247.405762 
" style="fill: none; stroke: #ffffff; stroke-width: 1.5; stroke-linecap: square"/>
     <defs>
      <path id="m8f888d3e2b" d="M 0 2.236068 
C 0.593012 2.236068 1.161816 2.000462 1.581139 1.581139 
C 2.000462 1.161816 2.236068 0.593012 2.236068 0 
C 2.236068 -0.593012 2.000462 -1.161816 1.581139 -1.581139 
C 1.161816 -2.000462 0.593012 -2.236068 0 -2.236068 
C -0.593012 -2.236068 -1.161816 -2.000462 -1.581139 -1.581139 
C -2.000462 -1.161816 -2.236068 -0.593012 -2.236068 0 
C -2.236068 0.593012 -2.000462 1.161816 -1.581139 1.581139 
C -1.161816 2.000462 -0.593012 2.236068 0 2.236068 
z
" style="stroke: #000000"/>
     </defs>
     <g>
      <use xlink:href="#m8f888d3e2b" x="559.527656" y="247.405762" style="fill: #808080; stroke: #000000"/>
     </g>
    </g>
    <g id="text_24">
     <!-- molar_ratio=2 -->
     <g transform="translate(584.727656 252.305762) scale(0.14 -0.14)">
      <use xlink:href="#DejaVuSans-6d"/>
      <use xlink:href="#DejaVuSans-6f" transform="translate(97.412109 0)"/>
      <use xlink:href="#DejaVuSans-6c" transform="translate(158.59375 0)"/>
      <use xlink:href="#DejaVuSans-61" transform="translate(186.376953 0)"/>
      <use xlink:href="#DejaVuSans-72" transform="translate(247.65625 0)"/>
      <use xlink:href="#DejaVuSans-5f" transform="translate(288.769531 0)"/>
      <use xlink:href="#DejaVuSans-72" transform="translate(338.769531 0)"/>
      <use xlink:href="#DejaVuSans-61" transform="translate(379.882812 0)"/>
      <use xlink:href="#DejaVuSans-74" transform="translate(441.162109 0)"/>
      <use xlink:href="#DejaVuSans-69" transform="translate(480.371094 0)"/>
      <use xlink:href="#DejaVuSans-6f" transform="translate(508.154297 0)"/>
      <use xlink:href="#DejaVuSans-3d" transform="translate(569.335938 0)"/>
      <use xlink:href="#DejaVuSans-32" transform="translate(653.125 0)"/>
     </g>
    </g>
    <g id="line2d_21">
     <path d="M 545.527656 268.344512 
L 559.527656 268.344512 
L 573.527656 268.344512 
" style="fill: none; stroke: #ffffff; stroke-width: 1.5; stroke-linecap: square"/>
     <defs>
      <path id="m36481cb01f" d="M 0 3.535534 
C 0.937635 3.535534 1.836992 3.163008 2.5 2.5 
C 3.163008 1.836992 3.535534 0.937635 3.535534 0 
C 3.535534 -0.937635 3.163008 -1.836992 2.5 -2.5 
C 1.836992 -3.163008 0.937635 -3.535534 0 -3.535534 
C -0.937635 -3.535534 -1.836992 -3.163008 -2.5 -2.5 
C -3.163008 -1.836992 -3.535534 -0.937635 -3.535534 0 
C -3.535534 0.937635 -3.163008 1.836992 -2.5 2.5 
C -1.836992 3.163008 -0.937635 3.535534 0 3.535534 
z
" style="stroke: #000000"/>
     </defs>
     <g>
      <use xlink:href="#m36481cb01f" x="559.527656" y="268.344512" style="fill: #808080; stroke: #000000"/>
     </g>
    </g>
    <g id="text_25">
     <!-- molar_ratio=5 -->
     <g transform="translate(584.727656 273.244512) scale(0.14 -0.14)">
      <use xlink:href="#DejaVuSans-6d"/>
      <use xlink:href="#DejaVuSans-6f" transform="translate(97.412109 0)"/>
      <use xlink:href="#DejaVuSans-6c" transform="translate(158.59375 0)"/>
      <use xlink:href="#DejaVuSans-61" transform="translate(186.376953 0)"/>
      <use xlink:href="#DejaVuSans-72" transform="translate(247.65625 0)"/>
      <use xlink:href="#DejaVuSans-5f" transform="translate(288.769531 0)"/>
      <use xlink:href="#DejaVuSans-72" transform="translate(338.769531 0)"/>
      <use xlink:href="#DejaVuSans-61" transform="translate(379.882812 0)"/>
      <use xlink:href="#DejaVuSans-74" transform="translate(441.162109 0)"/>
      <use xlink:href="#DejaVuSans-69" transform="translate(480.371094 0)"/>
      <use xlink:href="#DejaVuSans-6f" transform="translate(508.154297 0)"/>
      <use xlink:href="#DejaVuSans-3d" transform="translate(569.335938 0)"/>
      <use xlink:href="#DejaVuSans-35" transform="translate(653.125 0)"/>
     </g>
    </g>
    <g id="line2d_22">
     <path d="M 545.527656 289.283262 
L 559.527656 289.283262 
L 573.527656 289.283262 
" style="fill: none; stroke: #ffffff; stroke-width: 1.5; stroke-linecap: square"/>
     <defs>
      <path id="mb95f7f62d8" d="M 0 5 
C 1.326016 5 2.597899 4.473168 3.535534 3.535534 
C 4.473168 2.597899 5 1.326016 5 0 
C 5 -1.326016 4.473168 -2.597899 3.535534 -3.535534 
C 2.597899 -4.473168 1.326016 -5 0 -5 
C -1.326016 -5 -2.597899 -4.473168 -3.535534 -3.535534 
C -4.473168 -2.597899 -5 -1.326016 -5 0 
C -5 1.326016 -4.473168 2.597899 -3.535534 3.535534 
C -2.597899 4.473168 -1.326016 5 0 5 
z
" style="stroke: #000000"/>
     </defs>
     <g>
      <use xlink:href="#mb95f7f62d8" x="559.527656" y="289.283262" style="fill: #808080; stroke: #000000"/>
     </g>
    </g>
    <g id="text_26">
     <!-- molar_ratio=10 -->
     <g transform="translate(584.727656 294.183262) scale(0.14 -0.14)">
      <use xlink:href="#DejaVuSans-6d"/>
      <use xlink:href="#DejaVuSans-6f" transform="translate(97.412109 0)"/>
      <use xlink:href="#DejaVuSans-6c" transform="translate(158.59375 0)"/>
      <use xlink:href="#DejaVuSans-61" transform="translate(186.376953 0)"/>
      <use xlink:href="#DejaVuSans-72" transform="translate(247.65625 0)"/>
      <use xlink:href="#DejaVuSans-5f" transform="translate(288.769531 0)"/>
      <use xlink:href="#DejaVuSans-72" transform="translate(338.769531 0)"/>
      <use xlink:href="#DejaVuSans-61" transform="translate(379.882812 0)"/>
      <use xlink:href="#DejaVuSans-74" transform="translate(441.162109 0)"/>
      <use xlink:href="#DejaVuSans-69" transform="translate(480.371094 0)"/>
      <use xlink:href="#DejaVuSans-6f" transform="translate(508.154297 0)"/>
      <use xlink:href="#DejaVuSans-3d" transform="translate(569.335938 0)"/>
      <use xlink:href="#DejaVuSans-31" transform="translate(653.125 0)"/>
      <use xlink:href="#DejaVuSans-30" transform="translate(716.748047 0)"/>
     </g>
    </g>
    <g id="line2d_23">
     <path d="M 545.527656 310.222012 
L 559.527656 310.222012 
L 573.527656 310.222012 
" style="fill: none; stroke: #ffffff; stroke-width: 1.5; stroke-linecap: square"/>
     <defs>
      <path id="m155bc1c60e" d="M 0 7.071068 
C 1.875269 7.071068 3.673985 6.326016 5 5 
C 6.326016 3.673985 7.071068 1.875269 7.071068 0 
C 7.071068 -1.875269 6.326016 -3.673985 5 -5 
C 3.673985 -6.326016 1.875269 -7.071068 0 -7.071068 
C -1.875269 -7.071068 -3.673985 -6.326016 -5 -5 
C -6.326016 -3.673985 -7.071068 -1.875269 -7.071068 0 
C -7.071068 1.875269 -6.326016 3.673985 -5 5 
C -3.673985 6.326016 -1.875269 7.071068 0 7.071068 
z
" style="stroke: #000000"/>
     </defs>
     <g>
      <use xlink:href="#m155bc1c60e" x="559.527656" y="310.222012" style="fill: #808080; stroke: #000000"/>
     </g>
    </g>
    <g id="text_27">
     <!-- molar_ratio=20 -->
     <g transform="translate(584.727656 315.122012) scale(0.14 -0.14)">
      <use xlink:href="#DejaVuSans-6d"/>
      <use xlink:href="#DejaVuSans-6f" transform="translate(97.412109 0)"/>
      <use xlink:href="#DejaVuSans-6c" transform="translate(158.59375 0)"/>
      <use xlink:href="#DejaVuSans-61" transform="translate(186.376953 0)"/>
      <use xlink:href="#DejaVuSans-72" transform="translate(247.65625 0)"/>
      <use xlink:href="#DejaVuSans-5f" transform="translate(288.769531 0)"/>
      <use xlink:href="#DejaVuSans-72" transform="translate(338.769531 0)"/>
      <use xlink:href="#DejaVuSans-61" transform="translate(379.882812 0)"/>
      <use xlink:href="#DejaVuSans-74" transform="translate(441.162109 0)"/>
      <use xlink:href="#DejaVuSans-69" transform="translate(480.371094 0)"/>
      <use xlink:href="#DejaVuSans-6f" transform="translate(508.154297 0)"/>
      <use xlink:href="#DejaVuSans-3d" transform="translate(569.335938 0)"/>
      <use xlink:href="#DejaVuSans-32" transform="translate(653.125 0)"/>
      <use xlink:href="#DejaVuSans-30" transform="translate(716.748047 0)"/>
     </g>
    </g>
   </g>
  </g>
 </g>
 <defs>
  <clipPath id="p304d173b30">
   <rect x="49.595" y="25.965375" width="378.05" height="344.44"/>
  </clipPath>
 </defs>
</svg>
