<?xml version="1.0" encoding="utf-8" standalone="no"?>
<!DOCTYPE svg PUBLIC "-//W3C//DTD SVG 1.1//EN"
  "http://www.w3.org/Graphics/SVG/1.1/DTD/svg11.dtd">
<svg xmlns:xlink="http://www.w3.org/1999/xlink" width="768.89117pt" height="512.448281pt" viewBox="0 0 768.89117 512.448281" xmlns="http://www.w3.org/2000/svg" version="1.1">
 <metadata>
  <rdf:RDF xmlns:dc="http://purl.org/dc/elements/1.1/" xmlns:cc="http://creativecommons.org/ns#" xmlns:rdf="http://www.w3.org/1999/02/22-rdf-syntax-ns#">
   <cc:Work>
    <dc:type rdf:resource="http://purl.org/dc/dcmitype/StillImage"/>
    <dc:date>2026-02-12T10:28:36.936082</dc:date>
    <dc:format>image/svg+xml</dc:format>
    <dc:creator>
     <cc:Agent>
      <dc:title>Matplotlib v3.10.0, https://matplotlib.org/</dc:title>
     </cc:Agent>
    </dc:creator>
   </cc:Work>
  </rdf:RDF>
 </metadata>
 <defs>
  <style type="text/css">*{stroke-linejoin: round; stroke-linecap: butt}</style>
 </defs>
 <g id="figure_1">
  <g id="patch_1">
   <path d="M 0 512.448281 
L 768.89117 512.448281 
L 768.89117 0 
L 0 0 
z
" style="fill: #ffffff"/>
  </g>
  <g id="axes_1">
   <g id="patch_2">
    <path d="M 51.410625 437.304906 
L 591.708625 437.304906 
L 591.708625 59.368906 
L 51.410625 59.368906 
z
" style="fill: #ffffff"/>
   </g>
   <g id="PathCollection_1">
    <defs>
     <path id="mfed3fcfb60" d="M 0 3.708099 
C 0.983399 3.708099 1.926654 3.317391 2.622022 2.622022 
C 3.317391 1.926654 3.708099 0.983399 3.708099 0 
C 3.708099 -0.983399 3.317391 -1.926654 2.622022 -2.622022 
C 1.926654 -3.317391 0.983399 -3.708099 0 -3.708099 
C -0.983399 -3.708099 -1.926654 -3.317391 -2.622022 -2.622022 
C -3.317391 -1.926654 -3.708099 -0.983399 -3.708099 0 
C -3.708099 0.983399 -3.317391 1.926654 -2.622022 2.622022 
C -1.926654 3.317391 -0.983399 3.708099 0 3.708099 
z
" style="stroke: #000000; stroke-width: 0.2"/>
    </defs>
    <g clip-path="url(#p628037eeff)">
     <use xlink:href="#mfed3fcfb60" x="103.186738" y="183.133303" style="fill: #f7fbff; stroke: #000000; stroke-width: 0.2"/>
     <use xlink:href="#mfed3fcfb60" x="75.969625" y="188.397089" style="fill: #f7fbff; stroke: #000000; stroke-width: 0.2"/>
     <use xlink:href="#mfed3fcfb60" x="502.852842" y="93.314146" style="fill: #f7fbff; stroke: #000000; stroke-width: 0.2"/>
     <use xlink:href="#mfed3fcfb60" x="437.154687" y="107.576648" style="fill: #f7fbff; stroke: #000000; stroke-width: 0.2"/>
     <use xlink:href="#mfed3fcfb60" x="371.742984" y="122.095777" style="fill: #f7fbff; stroke: #000000; stroke-width: 0.2"/>
     <use xlink:href="#mfed3fcfb60" x="309.350796" y="132.017219" style="fill: #f7fbff; stroke: #000000; stroke-width: 0.2"/>
     <use xlink:href="#mfed3fcfb60" x="249.792295" y="144.423972" style="fill: #f7fbff; stroke: #000000; stroke-width: 0.2"/>
     <use xlink:href="#mfed3fcfb60" x="532.557071" y="87.643573" style="fill: #f7fbff; stroke: #000000; stroke-width: 0.2"/>
     <use xlink:href="#mfed3fcfb60" x="498.544637" y="96.051331" style="fill: #f7fbff; stroke: #000000; stroke-width: 0.2"/>
     <use xlink:href="#mfed3fcfb60" x="465.097852" y="104.207915" style="fill: #f7fbff; stroke: #000000; stroke-width: 0.2"/>
     <use xlink:href="#mfed3fcfb60" x="432.20272" y="111.997784" style="fill: #f7fbff; stroke: #000000; stroke-width: 0.2"/>
     <use xlink:href="#mfed3fcfb60" x="399.845706" y="119.660069" style="fill: #f7fbff; stroke: #000000; stroke-width: 0.2"/>
     <use xlink:href="#mfed3fcfb60" x="368.013713" y="127.037262" style="fill: #f7fbff; stroke: #000000; stroke-width: 0.2"/>
     <use xlink:href="#mfed3fcfb60" x="336.694064" y="134.069906" style="fill: #f7fbff; stroke: #000000; stroke-width: 0.2"/>
     <use xlink:href="#mfed3fcfb60" x="305.87449" y="140.863113" style="fill: #f7fbff; stroke: #000000; stroke-width: 0.2"/>
     <use xlink:href="#mfed3fcfb60" x="275.543108" y="147.490991" style="fill: #f7fbff; stroke: #000000; stroke-width: 0.2"/>
     <use xlink:href="#mfed3fcfb60" x="245.68841" y="153.928656" style="fill: #f7fbff; stroke: #000000; stroke-width: 0.2"/>
     <use xlink:href="#mfed3fcfb60" x="216.299245" y="160.051917" style="fill: #f7fbff; stroke: #000000; stroke-width: 0.2"/>
     <use xlink:href="#mfed3fcfb60" x="187.364811" y="166.053469" style="fill: #f7fbff; stroke: #000000; stroke-width: 0.2"/>
     <use xlink:href="#mfed3fcfb60" x="158.874632" y="172.076455" style="fill: #f7fbff; stroke: #000000; stroke-width: 0.2"/>
     <use xlink:href="#mfed3fcfb60" x="130.818557" y="177.686309" style="fill: #f7fbff; stroke: #000000; stroke-width: 0.2"/>
     <use xlink:href="#mfed3fcfb60" x="132.489861" y="186.493702" style="fill: #f7fbff; stroke: #000000; stroke-width: 0.2"/>
     <use xlink:href="#mfed3fcfb60" x="189.088246" y="176.153418" style="fill: #f7fbff; stroke: #000000; stroke-width: 0.2"/>
     <use xlink:href="#mfed3fcfb60" x="247.466454" y="163.811363" style="fill: #f7fbff; stroke: #000000; stroke-width: 0.2"/>
     <use xlink:href="#mfed3fcfb60" x="307.709781" y="151.975494" style="fill: #f7fbff; stroke: #000000; stroke-width: 0.2"/>
     <use xlink:href="#mfed3fcfb60" x="369.90906" y="137.172592" style="fill: #f7fbff; stroke: #000000; stroke-width: 0.2"/>
     <use xlink:href="#mfed3fcfb60" x="434.16112" y="122.491797" style="fill: #f7fbff; stroke: #000000; stroke-width: 0.2"/>
     <use xlink:href="#mfed3fcfb60" x="500.56929" y="106.536811" style="fill: #f7fbff; stroke: #000000; stroke-width: 0.2"/>
     <use xlink:href="#mfed3fcfb60" x="130.818557" y="186.493702" style="fill: #f7fbff; stroke: #000000; stroke-width: 0.2"/>
     <use xlink:href="#mfed3fcfb60" x="187.364811" y="176.153418" style="fill: #f7fbff; stroke: #000000; stroke-width: 0.2"/>
     <use xlink:href="#mfed3fcfb60" x="245.68841" y="163.811363" style="fill: #f7fbff; stroke: #000000; stroke-width: 0.2"/>
     <use xlink:href="#mfed3fcfb60" x="305.87449" y="151.975494" style="fill: #f7fbff; stroke: #000000; stroke-width: 0.2"/>
     <use xlink:href="#mfed3fcfb60" x="368.013713" y="137.172592" style="fill: #f7fbff; stroke: #000000; stroke-width: 0.2"/>
     <use xlink:href="#mfed3fcfb60" x="432.20272" y="122.491797" style="fill: #f7fbff; stroke: #000000; stroke-width: 0.2"/>
     <use xlink:href="#mfed3fcfb60" x="498.544637" y="106.536811" style="fill: #f7fbff; stroke: #000000; stroke-width: 0.2"/>
     <use xlink:href="#mfed3fcfb60" x="567.149625" y="87.97359" style="fill: #f7fbff; stroke: #000000; stroke-width: 0.2"/>
     <use xlink:href="#mfed3fcfb60" x="567.149625" y="87.97359" style="fill: #f7fbff; stroke: #000000; stroke-width: 0.2"/>
     <use xlink:href="#mfed3fcfb60" x="78.586372" y="180.845743" style="fill: #f7fbff; stroke: #000000; stroke-width: 0.2"/>
     <use xlink:href="#mfed3fcfb60" x="134.43049" y="169.931603" style="fill: #f7fbff; stroke: #000000; stroke-width: 0.2"/>
     <use xlink:href="#mfed3fcfb60" x="190.376122" y="158.192087" style="fill: #f7fbff; stroke: #000000; stroke-width: 0.2"/>
     <use xlink:href="#mfed3fcfb60" x="567.149625" y="76.547815" style="fill: #f7fbff; stroke: #000000; stroke-width: 0.2"/>
     <use xlink:href="#mfed3fcfb60" x="432.20272" y="108.941066" style="fill: #f7fbff; stroke: #000000; stroke-width: 0.2"/>
     <use xlink:href="#mfed3fcfb60" x="305.87449" y="139.586783" style="fill: #f7fbff; stroke: #000000; stroke-width: 0.2"/>
     <use xlink:href="#mfed3fcfb60" x="187.364811" y="164.061289" style="fill: #f7fbff; stroke: #000000; stroke-width: 0.2"/>
     <use xlink:href="#mfed3fcfb60" x="75.969625" y="184.788217" style="fill: #f7fbff; stroke: #000000; stroke-width: 0.2"/>
     <use xlink:href="#mfed3fcfb60" x="567.149625" y="78.739834" style="fill: #f7fbff; stroke: #000000; stroke-width: 0.2"/>
    </g>
   </g>
   <g id="PathCollection_2">
    <defs>
     <path id="m2645dbf316" d="M 0 3.708099 
C 0.983399 3.708099 1.926654 3.317391 2.622022 2.622022 
C 3.317391 1.926654 3.708099 0.983399 3.708099 0 
C 3.708099 -0.983399 3.317391 -1.926654 2.622022 -2.622022 
C 1.926654 -3.317391 0.983399 -3.708099 0 -3.708099 
C -0.983399 -3.708099 -1.926654 -3.317391 -2.622022 -2.622022 
C -3.317391 -1.926654 -3.708099 -0.983399 -3.708099 0 
C -3.708099 0.983399 -3.317391 1.926654 -2.622022 2.622022 
C -1.926654 3.317391 -0.983399 3.708099 0 3.708099 
z
" style="stroke: #000000; stroke-width: 0.2"/>
    </defs>
    <g clip-path="url(#p628037eeff)">
     <use xlink:href="#m2645dbf316" x="567.149625" y="94.348024" style="fill: #eef5fc; stroke: #000000; stroke-width: 0.2"/>
    </g>
   </g>
   <g id="PathCollection_3">
    <defs>
     <path id="m946cd59ce7" d="M 0 3.708099 
C 0.983399 3.708099 1.926654 3.317391 2.622022 2.622022 
C 3.317391 1.926654 3.708099 0.983399 3.708099 0 
C 3.708099 -0.983399 3.317391 -1.926654 2.622022 -2.622022 
C 1.926654 -3.317391 0.983399 -3.708099 0 -3.708099 
C -0.983399 -3.708099 -1.926654 -3.317391 -2.622022 -2.622022 
C -3.317391 -1.926654 -3.708099 -0.983399 -3.708099 0 
C -3.708099 0.983399 -3.317391 1.926654 -2.622022 2.622022 
C -1.926654 3.317391 -0.983399 3.708099 0 3.708099 
z
" style="stroke: #000000; stroke-width: 0.2"/>
    </defs>
    <g clip-path="url(#p628037eeff)">
     <use xlink:href="#m946cd59ce7" x="567.149625" y="96.908382" style="fill: #e6f0f9; stroke: #000000; stroke-width: 0.2"/>
    </g>
   </g>
   <g id="PathCollection_4">
    <defs>
     <path id="ma335f92795" d="M 0 3.708099 
C 0.983399 3.708099 1.926654 3.317391 2.622022 2.622022 
C 3.317391 1.926654 3.708099 0.983399 3.708099 0 
C 3.708099 -0.983399 3.317391 -1.926654 2.622022 -2.622022 
C 1.926654 -3.317391 0.983399 -3.708099 0 -3.708099 
C -0.983399 -3.708099 -1.926654 -3.317391 -2.622022 -2.622022 
C -3.317391 -1.926654 -3.708099 -0.983399 -3.708099 0 
C -3.708099 0.983399 -3.317391 1.926654 -2.622022 2.622022 
C -1.926654 3.317391 -0.983399 3.708099 0 3.708099 
z
" style="stroke: #000000; stroke-width: 0.2"/>
    </defs>
    <g clip-path="url(#p628037eeff)">
     <use xlink:href="#ma335f92795" x="187.364811" y="178.705082" style="fill: #ddeaf7; stroke: #000000; stroke-width: 0.2"/>
     <use xlink:href="#ma335f92795" x="75.969625" y="200.380318" style="fill: #ddeaf7; stroke: #000000; stroke-width: 0.2"/>
     <use xlink:href="#ma335f92795" x="305.87449" y="155.134842" style="fill: #ddeaf7; stroke: #000000; stroke-width: 0.2"/>
     <use xlink:href="#ma335f92795" x="432.20272" y="126.671239" style="fill: #ddeaf7; stroke: #000000; stroke-width: 0.2"/>
     <use xlink:href="#ma335f92795" x="567.149625" y="95.600804" style="fill: #ddeaf7; stroke: #000000; stroke-width: 0.2"/>
    </g>
   </g>
   <g id="PathCollection_5">
    <defs>
     <path id="me93c474788" d="M 0 3.708099 
C 0.983399 3.708099 1.926654 3.317391 2.622022 2.622022 
C 3.317391 1.926654 3.708099 0.983399 3.708099 0 
C 3.708099 -0.983399 3.317391 -1.926654 2.622022 -2.622022 
C 1.926654 -3.317391 0.983399 -3.708099 0 -3.708099 
C -0.983399 -3.708099 -1.926654 -3.317391 -2.622022 -2.622022 
C -3.317391 -1.926654 -3.708099 -0.983399 -3.708099 0 
C -3.708099 0.983399 -3.317391 1.926654 -2.622022 2.622022 
C -1.926654 3.317391 -0.983399 3.708099 0 3.708099 
z
" style="stroke: #000000; stroke-width: 0.2"/>
    </defs>
    <g clip-path="url(#p628037eeff)">
     <use xlink:href="#me93c474788" x="567.149625" y="97.33491" style="fill: #d5e5f4; stroke: #000000; stroke-width: 0.2"/>
    </g>
   </g>
   <g id="PathCollection_6">
    <defs>
     <path id="m116545d90e" d="M 0 3.708099 
C 0.983399 3.708099 1.926654 3.317391 2.622022 2.622022 
C 3.317391 1.926654 3.708099 0.983399 3.708099 0 
C 3.708099 -0.983399 3.317391 -1.926654 2.622022 -2.622022 
C 1.926654 -3.317391 0.983399 -3.708099 0 -3.708099 
C -0.983399 -3.708099 -1.926654 -3.317391 -2.622022 -2.622022 
C -3.317391 -1.926654 -3.708099 -0.983399 -3.708099 0 
C -3.708099 0.983399 -3.317391 1.926654 -2.622022 2.622022 
C -1.926654 3.317391 -0.983399 3.708099 0 3.708099 
z
" style="stroke: #000000; stroke-width: 0.2"/>
    </defs>
    <g clip-path="url(#p628037eeff)">
     <use xlink:href="#m116545d90e" x="567.149625" y="116.170885" style="fill: #ccdff1; stroke: #000000; stroke-width: 0.2"/>
    </g>
   </g>
   <g id="PathCollection_7">
    <defs>
     <path id="m0952f15819" d="M 0 3.708099 
C 0.983399 3.708099 1.926654 3.317391 2.622022 2.622022 
C 3.317391 1.926654 3.708099 0.983399 3.708099 0 
C 3.708099 -0.983399 3.317391 -1.926654 2.622022 -2.622022 
C 1.926654 -3.317391 0.983399 -3.708099 0 -3.708099 
C -0.983399 -3.708099 -1.926654 -3.317391 -2.622022 -2.622022 
C -3.317391 -1.926654 -3.708099 -0.983399 -3.708099 0 
C -3.708099 0.983399 -3.317391 1.926654 -2.622022 2.622022 
C -1.926654 3.317391 -0.983399 3.708099 0 3.708099 
z
" style="stroke: #000000; stroke-width: 0.2"/>
    </defs>
    <g clip-path="url(#p628037eeff)">
     <use xlink:href="#m0952f15819" x="567.149625" y="119.297806" style="fill: #c3daee; stroke: #000000; stroke-width: 0.2"/>
     <use xlink:href="#m0952f15819" x="187.364811" y="197.541003" style="fill: #c3daee; stroke: #000000; stroke-width: 0.2"/>
     <use xlink:href="#m0952f15819" x="305.87449" y="176.439964" style="fill: #c3daee; stroke: #000000; stroke-width: 0.2"/>
     <use xlink:href="#m0952f15819" x="432.20272" y="151.312001" style="fill: #c3daee; stroke: #000000; stroke-width: 0.2"/>
     <use xlink:href="#m0952f15819" x="75.969625" y="216.90588" style="fill: #c3daee; stroke: #000000; stroke-width: 0.2"/>
    </g>
   </g>
   <g id="PathCollection_8">
    <defs>
     <path id="m96e466b3a6" d="M 0 3.708099 
C 0.983399 3.708099 1.926654 3.317391 2.622022 2.622022 
C 3.317391 1.926654 3.708099 0.983399 3.708099 0 
C 3.708099 -0.983399 3.317391 -1.926654 2.622022 -2.622022 
C 1.926654 -3.317391 0.983399 -3.708099 0 -3.708099 
C -0.983399 -3.708099 -1.926654 -3.317391 -2.622022 -2.622022 
C -3.317391 -1.926654 -3.708099 -0.983399 -3.708099 0 
C -3.708099 0.983399 -3.317391 1.926654 -2.622022 2.622022 
C -1.926654 3.317391 -0.983399 3.708099 0 3.708099 
z
" style="stroke: #000000; stroke-width: 0.2"/>
    </defs>
    <g clip-path="url(#p628037eeff)">
     <use xlink:href="#m96e466b3a6" x="305.87449" y="179.201666" style="fill: #b5d4e9; stroke: #000000; stroke-width: 0.2"/>
    </g>
   </g>
   <g id="PathCollection_9">
    <defs>
     <path id="m85c40048ce" d="M 0 3.708099 
C 0.983399 3.708099 1.926654 3.317391 2.622022 2.622022 
C 3.317391 1.926654 3.708099 0.983399 3.708099 0 
C 3.708099 -0.983399 3.317391 -1.926654 2.622022 -2.622022 
C 1.926654 -3.317391 0.983399 -3.708099 0 -3.708099 
C -0.983399 -3.708099 -1.926654 -3.317391 -2.622022 -2.622022 
C -3.317391 -1.926654 -3.708099 -0.983399 -3.708099 0 
C -3.708099 0.983399 -3.317391 1.926654 -2.622022 2.622022 
C -1.926654 3.317391 -0.983399 3.708099 0 3.708099 
z
" style="stroke: #000000; stroke-width: 0.2"/>
    </defs>
    <g clip-path="url(#p628037eeff)">
     <use xlink:href="#m85c40048ce" x="130.818557" y="206.695136" style="fill: #a7cee4; stroke: #000000; stroke-width: 0.2"/>
     <use xlink:href="#m85c40048ce" x="75.969625" y="216.16117" style="fill: #a7cee4; stroke: #000000; stroke-width: 0.2"/>
     <use xlink:href="#m85c40048ce" x="103.186738" y="211.503332" style="fill: #a7cee4; stroke: #000000; stroke-width: 0.2"/>
     <use xlink:href="#m85c40048ce" x="187.364811" y="196.563624" style="fill: #a7cee4; stroke: #000000; stroke-width: 0.2"/>
     <use xlink:href="#m85c40048ce" x="158.874632" y="201.748015" style="fill: #a7cee4; stroke: #000000; stroke-width: 0.2"/>
     <use xlink:href="#m85c40048ce" x="498.544637" y="134.472597" style="fill: #a7cee4; stroke: #000000; stroke-width: 0.2"/>
     <use xlink:href="#m85c40048ce" x="432.20272" y="148.597195" style="fill: #a7cee4; stroke: #000000; stroke-width: 0.2"/>
     <use xlink:href="#m85c40048ce" x="399.845706" y="155.378805" style="fill: #a7cee4; stroke: #000000; stroke-width: 0.2"/>
     <use xlink:href="#m85c40048ce" x="465.097852" y="141.63521" style="fill: #a7cee4; stroke: #000000; stroke-width: 0.2"/>
     <use xlink:href="#m85c40048ce" x="532.557071" y="126.747899" style="fill: #a7cee4; stroke: #000000; stroke-width: 0.2"/>
     <use xlink:href="#m85c40048ce" x="567.149625" y="118.669007" style="fill: #a7cee4; stroke: #000000; stroke-width: 0.2"/>
     <use xlink:href="#m85c40048ce" x="216.299245" y="191.401227" style="fill: #a7cee4; stroke: #000000; stroke-width: 0.2"/>
     <use xlink:href="#m85c40048ce" x="245.68841" y="185.912918" style="fill: #a7cee4; stroke: #000000; stroke-width: 0.2"/>
     <use xlink:href="#m85c40048ce" x="275.543108" y="180.195929" style="fill: #a7cee4; stroke: #000000; stroke-width: 0.2"/>
     <use xlink:href="#m85c40048ce" x="368.013713" y="161.875723" style="fill: #a7cee4; stroke: #000000; stroke-width: 0.2"/>
     <use xlink:href="#m85c40048ce" x="336.694064" y="168.162135" style="fill: #a7cee4; stroke: #000000; stroke-width: 0.2"/>
     <use xlink:href="#m85c40048ce" x="305.87449" y="174.260147" style="fill: #a7cee4; stroke: #000000; stroke-width: 0.2"/>
    </g>
   </g>
   <g id="PathCollection_10">
    <defs>
     <path id="m03448c7940" d="M 0 3.708099 
C 0.983399 3.708099 1.926654 3.317391 2.622022 2.622022 
C 3.317391 1.926654 3.708099 0.983399 3.708099 0 
C 3.708099 -0.983399 3.317391 -1.926654 2.622022 -2.622022 
C 1.926654 -3.317391 0.983399 -3.708099 0 -3.708099 
C -0.983399 -3.708099 -1.926654 -3.317391 -2.622022 -2.622022 
C -3.317391 -1.926654 -3.708099 -0.983399 -3.708099 0 
C -3.708099 0.983399 -3.317391 1.926654 -2.622022 2.622022 
C -1.926654 3.317391 -0.983399 3.708099 0 3.708099 
z
" style="stroke: #000000; stroke-width: 0.2"/>
    </defs>
    <g clip-path="url(#p628037eeff)">
     <use xlink:href="#m03448c7940" x="567.149625" y="127.30351" style="fill: #97c6e0; stroke: #000000; stroke-width: 0.2"/>
    </g>
   </g>
   <g id="PathCollection_11">
    <defs>
     <path id="m8d7e8f8da4" d="M 0 3.708099 
C 0.983399 3.708099 1.926654 3.317391 2.622022 2.622022 
C 3.317391 1.926654 3.708099 0.983399 3.708099 0 
C 3.708099 -0.983399 3.317391 -1.926654 2.622022 -2.622022 
C 1.926654 -3.317391 0.983399 -3.708099 0 -3.708099 
C -0.983399 -3.708099 -1.926654 -3.317391 -2.622022 -2.622022 
C -3.317391 -1.926654 -3.708099 -0.983399 -3.708099 0 
C -3.708099 0.983399 -3.317391 1.926654 -2.622022 2.622022 
C -1.926654 3.317391 -0.983399 3.708099 0 3.708099 
z
" style="stroke: #000000; stroke-width: 0.2"/>
    </defs>
    <g clip-path="url(#p628037eeff)">
     <use xlink:href="#m8d7e8f8da4" x="305.87449" y="193.752203" style="fill: #86bddc; stroke: #000000; stroke-width: 0.2"/>
     <use xlink:href="#m8d7e8f8da4" x="187.364811" y="214.220206" style="fill: #86bddc; stroke: #000000; stroke-width: 0.2"/>
     <use xlink:href="#m8d7e8f8da4" x="75.969625" y="232.098918" style="fill: #86bddc; stroke: #000000; stroke-width: 0.2"/>
     <use xlink:href="#m8d7e8f8da4" x="567.149625" y="142.4437" style="fill: #86bddc; stroke: #000000; stroke-width: 0.2"/>
     <use xlink:href="#m8d7e8f8da4" x="432.20272" y="170.210437" style="fill: #86bddc; stroke: #000000; stroke-width: 0.2"/>
    </g>
   </g>
   <g id="PathCollection_12">
    <defs>
     <path id="mbca0e3318c" d="M 0 3.708099 
C 0.983399 3.708099 1.926654 3.317391 2.622022 2.622022 
C 3.317391 1.926654 3.708099 0.983399 3.708099 0 
C 3.708099 -0.983399 3.317391 -1.926654 2.622022 -2.622022 
C 1.926654 -3.317391 0.983399 -3.708099 0 -3.708099 
C -0.983399 -3.708099 -1.926654 -3.317391 -2.622022 -2.622022 
C -3.317391 -1.926654 -3.708099 -0.983399 -3.708099 0 
C -3.708099 0.983399 -3.317391 1.926654 -2.622022 2.622022 
C -1.926654 3.317391 -0.983399 3.708099 0 3.708099 
z
" style="stroke: #000000; stroke-width: 0.2"/>
    </defs>
    <g clip-path="url(#p628037eeff)">
     <use xlink:href="#mbca0e3318c" x="567.149625" y="141.127366" style="fill: #74b3d8; stroke: #000000; stroke-width: 0.2"/>
    </g>
   </g>
   <g id="PathCollection_13">
    <defs>
     <path id="m1ffd152335" d="M 0 3.708099 
C 0.983399 3.708099 1.926654 3.317391 2.622022 2.622022 
C 3.317391 1.926654 3.708099 0.983399 3.708099 0 
C 3.708099 -0.983399 3.317391 -1.926654 2.622022 -2.622022 
C 1.926654 -3.317391 0.983399 -3.708099 0 -3.708099 
C -0.983399 -3.708099 -1.926654 -3.317391 -2.622022 -2.622022 
C -3.317391 -1.926654 -3.708099 -0.983399 -3.708099 0 
C -3.708099 0.983399 -3.317391 1.926654 -2.622022 2.622022 
C -1.926654 3.317391 -0.983399 3.708099 0 3.708099 
z
" style="stroke: #000000; stroke-width: 0.2"/>
    </defs>
    <g clip-path="url(#p628037eeff)">
     <use xlink:href="#m1ffd152335" x="75.969625" y="241.770767" style="fill: #64a9d3; stroke: #000000; stroke-width: 0.2"/>
     <use xlink:href="#m1ffd152335" x="187.364811" y="224.810338" style="fill: #64a9d3; stroke: #000000; stroke-width: 0.2"/>
     <use xlink:href="#m1ffd152335" x="567.149625" y="155.992435" style="fill: #64a9d3; stroke: #000000; stroke-width: 0.2"/>
     <use xlink:href="#m1ffd152335" x="305.87449" y="205.058937" style="fill: #64a9d3; stroke: #000000; stroke-width: 0.2"/>
     <use xlink:href="#m1ffd152335" x="432.20272" y="182.389171" style="fill: #64a9d3; stroke: #000000; stroke-width: 0.2"/>
    </g>
   </g>
   <g id="PathCollection_14">
    <defs>
     <path id="m7cd38d9264" d="M 0 3.708099 
C 0.983399 3.708099 1.926654 3.317391 2.622022 2.622022 
C 3.317391 1.926654 3.708099 0.983399 3.708099 0 
C 3.708099 -0.983399 3.317391 -1.926654 2.622022 -2.622022 
C 1.926654 -3.317391 0.983399 -3.708099 0 -3.708099 
C -0.983399 -3.708099 -1.926654 -3.317391 -2.622022 -2.622022 
C -3.317391 -1.926654 -3.708099 -0.983399 -3.708099 0 
C -3.708099 0.983399 -3.317391 1.926654 -2.622022 2.622022 
C -1.926654 3.317391 -0.983399 3.708099 0 3.708099 
z
" style="stroke: #000000; stroke-width: 0.2"/>
    </defs>
    <g clip-path="url(#p628037eeff)">
     <use xlink:href="#m7cd38d9264" x="567.149625" y="161.0318" style="fill: #569fce; stroke: #000000; stroke-width: 0.2"/>
    </g>
   </g>
   <g id="PathCollection_15">
    <defs>
     <path id="m48fb78cb6d" d="M 0 3.708099 
C 0.983399 3.708099 1.926654 3.317391 2.622022 2.622022 
C 3.317391 1.926654 3.708099 0.983399 3.708099 0 
C 3.708099 -0.983399 3.317391 -1.926654 2.622022 -2.622022 
C 1.926654 -3.317391 0.983399 -3.708099 0 -3.708099 
C -0.983399 -3.708099 -1.926654 -3.317391 -2.622022 -2.622022 
C -3.317391 -1.926654 -3.708099 -0.983399 -3.708099 0 
C -3.708099 0.983399 -3.317391 1.926654 -2.622022 2.622022 
C -1.926654 3.317391 -0.983399 3.708099 0 3.708099 
z
" style="stroke: #000000; stroke-width: 0.2"/>
    </defs>
    <g clip-path="url(#p628037eeff)">
     <use xlink:href="#m48fb78cb6d" x="567.149625" y="175.481019" style="fill: #4796c8; stroke: #000000; stroke-width: 0.2"/>
    </g>
   </g>
   <g id="PathCollection_16">
    <defs>
     <path id="mcb6d78e956" d="M 0 3.708099 
C 0.983399 3.708099 1.926654 3.317391 2.622022 2.622022 
C 3.317391 1.926654 3.708099 0.983399 3.708099 0 
C 3.708099 -0.983399 3.317391 -1.926654 2.622022 -2.622022 
C 1.926654 -3.317391 0.983399 -3.708099 0 -3.708099 
C -0.983399 -3.708099 -1.926654 -3.317391 -2.622022 -2.622022 
C -3.317391 -1.926654 -3.708099 -0.983399 -3.708099 0 
C -3.708099 0.983399 -3.317391 1.926654 -2.622022 2.622022 
C -1.926654 3.317391 -0.983399 3.708099 0 3.708099 
z
" style="stroke: #000000; stroke-width: 0.2"/>
    </defs>
    <g clip-path="url(#p628037eeff)">
     <use xlink:href="#mcb6d78e956" x="432.20272" y="230.808966" style="fill: #3b8bc2; stroke: #000000; stroke-width: 0.2"/>
     <use xlink:href="#mcb6d78e956" x="75.969625" y="281.558423" style="fill: #3b8bc2; stroke: #000000; stroke-width: 0.2"/>
     <use xlink:href="#mcb6d78e956" x="305.87449" y="249.291453" style="fill: #3b8bc2; stroke: #000000; stroke-width: 0.2"/>
     <use xlink:href="#mcb6d78e956" x="187.364811" y="265.512897" style="fill: #3b8bc2; stroke: #000000; stroke-width: 0.2"/>
     <use xlink:href="#mcb6d78e956" x="567.149625" y="209.297016" style="fill: #3b8bc2; stroke: #000000; stroke-width: 0.2"/>
    </g>
   </g>
   <g id="PathCollection_17">
    <defs>
     <path id="m2ed2fdccb6" d="M 0 3.708099 
C 0.983399 3.708099 1.926654 3.317391 2.622022 2.622022 
C 3.317391 1.926654 3.708099 0.983399 3.708099 0 
C 3.708099 -0.983399 3.317391 -1.926654 2.622022 -2.622022 
C 1.926654 -3.317391 0.983399 -3.708099 0 -3.708099 
C -0.983399 -3.708099 -1.926654 -3.317391 -2.622022 -2.622022 
C -3.317391 -1.926654 -3.708099 -0.983399 -3.708099 0 
C -3.708099 0.983399 -3.317391 1.926654 -2.622022 2.622022 
C -1.926654 3.317391 -0.983399 3.708099 0 3.708099 
z
" style="stroke: #000000; stroke-width: 0.2"/>
    </defs>
    <g clip-path="url(#p628037eeff)">
     <use xlink:href="#m2ed2fdccb6" x="567.149625" y="250.531554" style="fill: #2f7fbc; stroke: #000000; stroke-width: 0.2"/>
     <use xlink:href="#m2ed2fdccb6" x="305.87449" y="285.65212" style="fill: #2f7fbc; stroke: #000000; stroke-width: 0.2"/>
     <use xlink:href="#m2ed2fdccb6" x="432.20272" y="268.323505" style="fill: #2f7fbc; stroke: #000000; stroke-width: 0.2"/>
     <use xlink:href="#m2ed2fdccb6" x="187.364811" y="302.362614" style="fill: #2f7fbc; stroke: #000000; stroke-width: 0.2"/>
     <use xlink:href="#m2ed2fdccb6" x="75.969625" y="314.905641" style="fill: #2f7fbc; stroke: #000000; stroke-width: 0.2"/>
    </g>
   </g>
   <g id="PathCollection_18">
    <defs>
     <path id="m8a004ba49d" d="M 0 3.708099 
C 0.983399 3.708099 1.926654 3.317391 2.622022 2.622022 
C 3.317391 1.926654 3.708099 0.983399 3.708099 0 
C 3.708099 -0.983399 3.317391 -1.926654 2.622022 -2.622022 
C 1.926654 -3.317391 0.983399 -3.708099 0 -3.708099 
C -0.983399 -3.708099 -1.926654 -3.317391 -2.622022 -2.622022 
C -3.317391 -1.926654 -3.708099 -0.983399 -3.708099 0 
C -3.708099 0.983399 -3.317391 1.926654 -2.622022 2.622022 
C -1.926654 3.317391 -0.983399 3.708099 0 3.708099 
z
" style="stroke: #000000; stroke-width: 0.2"/>
    </defs>
    <g clip-path="url(#p628037eeff)">
     <use xlink:href="#m8a004ba49d" x="75.969625" y="339.534428" style="fill: #2474b6; stroke: #000000; stroke-width: 0.2"/>
     <use xlink:href="#m8a004ba49d" x="187.364811" y="328.428256" style="fill: #2474b6; stroke: #000000; stroke-width: 0.2"/>
     <use xlink:href="#m8a004ba49d" x="432.20272" y="297.082198" style="fill: #2474b6; stroke: #000000; stroke-width: 0.2"/>
     <use xlink:href="#m8a004ba49d" x="305.87449" y="315.973369" style="fill: #2474b6; stroke: #000000; stroke-width: 0.2"/>
     <use xlink:href="#m8a004ba49d" x="567.149625" y="281.946922" style="fill: #2474b6; stroke: #000000; stroke-width: 0.2"/>
    </g>
   </g>
   <g id="PathCollection_19">
    <defs>
     <path id="mcca90e141e" d="M 0 3.708099 
C 0.983399 3.708099 1.926654 3.317391 2.622022 2.622022 
C 3.317391 1.926654 3.708099 0.983399 3.708099 0 
C 3.708099 -0.983399 3.317391 -1.926654 2.622022 -2.622022 
C 1.926654 -3.317391 0.983399 -3.708099 0 -3.708099 
C -0.983399 -3.708099 -1.926654 -3.317391 -2.622022 -2.622022 
C -3.317391 -1.926654 -3.708099 -0.983399 -3.708099 0 
C -3.708099 0.983399 -3.317391 1.926654 -2.622022 2.622022 
C -1.926654 3.317391 -0.983399 3.708099 0 3.708099 
z
" style="stroke: #000000; stroke-width: 0.2"/>
    </defs>
    <g clip-path="url(#p628037eeff)">
     <use xlink:href="#mcca90e141e" x="567.149625" y="310.0307" style="fill: #1a69ae; stroke: #000000; stroke-width: 0.2"/>
     <use xlink:href="#mcca90e141e" x="432.20272" y="324.450214" style="fill: #1a69ae; stroke: #000000; stroke-width: 0.2"/>
     <use xlink:href="#mcca90e141e" x="75.969625" y="358.18278" style="fill: #1a69ae; stroke: #000000; stroke-width: 0.2"/>
     <use xlink:href="#mcca90e141e" x="187.364811" y="348.258799" style="fill: #1a69ae; stroke: #000000; stroke-width: 0.2"/>
     <use xlink:href="#mcca90e141e" x="305.87449" y="337.083333" style="fill: #1a69ae; stroke: #000000; stroke-width: 0.2"/>
    </g>
   </g>
   <g id="PathCollection_20">
    <defs>
     <path id="mc4e13f78d2" d="M 0 3.708099 
C 0.983399 3.708099 1.926654 3.317391 2.622022 2.622022 
C 3.317391 1.926654 3.708099 0.983399 3.708099 0 
C 3.708099 -0.983399 3.317391 -1.926654 2.622022 -2.622022 
C 1.926654 -3.317391 0.983399 -3.708099 0 -3.708099 
C -0.983399 -3.708099 -1.926654 -3.317391 -2.622022 -2.622022 
C -3.317391 -1.926654 -3.708099 -0.983399 -3.708099 0 
C -3.708099 0.983399 -3.317391 1.926654 -2.622022 2.622022 
C -1.926654 3.317391 -0.983399 3.708099 0 3.708099 
z
" style="stroke: #000000; stroke-width: 0.2"/>
    </defs>
    <g clip-path="url(#p628037eeff)">
     <use xlink:href="#mc4e13f78d2" x="567.149625" y="330.833386" style="fill: #125ea6; stroke: #000000; stroke-width: 0.2"/>
     <use xlink:href="#mc4e13f78d2" x="305.87449" y="355.585244" style="fill: #125ea6; stroke: #000000; stroke-width: 0.2"/>
     <use xlink:href="#mc4e13f78d2" x="432.20272" y="344.05017" style="fill: #125ea6; stroke: #000000; stroke-width: 0.2"/>
     <use xlink:href="#mc4e13f78d2" x="187.364811" y="365.90905" style="fill: #125ea6; stroke: #000000; stroke-width: 0.2"/>
     <use xlink:href="#mc4e13f78d2" x="75.969625" y="374.918985" style="fill: #125ea6; stroke: #000000; stroke-width: 0.2"/>
    </g>
   </g>
   <g id="PathCollection_21">
    <defs>
     <path id="mc5b088969d" d="M 0 3.708099 
C 0.983399 3.708099 1.926654 3.317391 2.622022 2.622022 
C 3.317391 1.926654 3.708099 0.983399 3.708099 0 
C 3.708099 -0.983399 3.317391 -1.926654 2.622022 -2.622022 
C 1.926654 -3.317391 0.983399 -3.708099 0 -3.708099 
C -0.983399 -3.708099 -1.926654 -3.317391 -2.622022 -2.622022 
C -3.317391 -1.926654 -3.708099 -0.983399 -3.708099 0 
C -3.708099 0.983399 -3.317391 1.926654 -2.622022 2.622022 
C -1.926654 3.317391 -0.983399 3.708099 0 3.708099 
z
" style="stroke: #000000; stroke-width: 0.2"/>
    </defs>
    <g clip-path="url(#p628037eeff)">
     <use xlink:href="#mc5b088969d" x="75.969625" y="389.464827" style="fill: #09529d; stroke: #000000; stroke-width: 0.2"/>
     <use xlink:href="#mc5b088969d" x="305.87449" y="371.548376" style="fill: #09529d; stroke: #000000; stroke-width: 0.2"/>
     <use xlink:href="#mc5b088969d" x="567.149625" y="348.271129" style="fill: #09529d; stroke: #000000; stroke-width: 0.2"/>
     <use xlink:href="#mc5b088969d" x="432.20272" y="360.666394" style="fill: #09529d; stroke: #000000; stroke-width: 0.2"/>
     <use xlink:href="#mc5b088969d" x="187.364811" y="381.099256" style="fill: #09529d; stroke: #000000; stroke-width: 0.2"/>
    </g>
   </g>
   <g id="PathCollection_22">
    <defs>
     <path id="ma485c2f2e1" d="M 0 3.708099 
C 0.983399 3.708099 1.926654 3.317391 2.622022 2.622022 
C 3.317391 1.926654 3.708099 0.983399 3.708099 0 
C 3.708099 -0.983399 3.317391 -1.926654 2.622022 -2.622022 
C 1.926654 -3.317391 0.983399 -3.708099 0 -3.708099 
C -0.983399 -3.708099 -1.926654 -3.317391 -2.622022 -2.622022 
C -3.317391 -1.926654 -3.708099 -0.983399 -3.708099 0 
C -3.708099 0.983399 -3.317391 1.926654 -2.622022 2.622022 
C -1.926654 3.317391 -0.983399 3.708099 0 3.708099 
z
" style="stroke: #000000; stroke-width: 0.2"/>
    </defs>
    <g clip-path="url(#p628037eeff)">
     <use xlink:href="#ma485c2f2e1" x="567.149625" y="362.104183" style="fill: #08478d; stroke: #000000; stroke-width: 0.2"/>
     <use xlink:href="#ma485c2f2e1" x="305.87449" y="384.228107" style="fill: #08478d; stroke: #000000; stroke-width: 0.2"/>
     <use xlink:href="#ma485c2f2e1" x="75.969625" y="401.031921" style="fill: #08478d; stroke: #000000; stroke-width: 0.2"/>
     <use xlink:href="#ma485c2f2e1" x="432.20272" y="373.93894" style="fill: #08478d; stroke: #000000; stroke-width: 0.2"/>
     <use xlink:href="#ma485c2f2e1" x="187.364811" y="393.1879" style="fill: #08478d; stroke: #000000; stroke-width: 0.2"/>
    </g>
   </g>
   <g id="PathCollection_23">
    <defs>
     <path id="m3b281b1853" d="M 0 3.708099 
C 0.983399 3.708099 1.926654 3.317391 2.622022 2.622022 
C 3.317391 1.926654 3.708099 0.983399 3.708099 0 
C 3.708099 -0.983399 3.317391 -1.926654 2.622022 -2.622022 
C 1.926654 -3.317391 0.983399 -3.708099 0 -3.708099 
C -0.983399 -3.708099 -1.926654 -3.317391 -2.622022 -2.622022 
C -3.317391 -1.926654 -3.708099 -0.983399 -3.708099 0 
C -3.708099 0.983399 -3.317391 1.926654 -2.622022 2.622022 
C -1.926654 3.317391 -0.983399 3.708099 0 3.708099 
z
" style="stroke: #000000; stroke-width: 0.2"/>
    </defs>
    <g clip-path="url(#p628037eeff)">
     <use xlink:href="#m3b281b1853" x="75.969625" y="411.6769" style="fill: #083b7c; stroke: #000000; stroke-width: 0.2"/>
     <use xlink:href="#m3b281b1853" x="432.20272" y="385.238539" style="fill: #083b7c; stroke: #000000; stroke-width: 0.2"/>
     <use xlink:href="#m3b281b1853" x="567.149625" y="373.914169" style="fill: #083b7c; stroke: #000000; stroke-width: 0.2"/>
     <use xlink:href="#m3b281b1853" x="305.87449" y="394.988852" style="fill: #083b7c; stroke: #000000; stroke-width: 0.2"/>
     <use xlink:href="#m3b281b1853" x="187.364811" y="404.121294" style="fill: #083b7c; stroke: #000000; stroke-width: 0.2"/>
    </g>
   </g>
   <g id="PathCollection_24">
    <defs>
     <path id="m734a440be7" d="M 0 3.708099 
C 0.983399 3.708099 1.926654 3.317391 2.622022 2.622022 
C 3.317391 1.926654 3.708099 0.983399 3.708099 0 
C 3.708099 -0.983399 3.317391 -1.926654 2.622022 -2.622022 
C 1.926654 -3.317391 0.983399 -3.708099 0 -3.708099 
C -0.983399 -3.708099 -1.926654 -3.317391 -2.622022 -2.622022 
C -3.317391 -1.926654 -3.708099 -0.983399 -3.708099 0 
C -3.708099 0.983399 -3.317391 1.926654 -2.622022 2.622022 
C -1.926654 3.317391 -0.983399 3.708099 0 3.708099 
z
" style="stroke: #000000; stroke-width: 0.2"/>
    </defs>
    <g clip-path="url(#p628037eeff)">
     <use xlink:href="#m734a440be7" x="567.149625" y="384.086142" style="fill: #08306b; stroke: #000000; stroke-width: 0.2"/>
     <use xlink:href="#m734a440be7" x="305.87449" y="404.776657" style="fill: #08306b; stroke: #000000; stroke-width: 0.2"/>
     <use xlink:href="#m734a440be7" x="432.20272" y="394.913284" style="fill: #08306b; stroke: #000000; stroke-width: 0.2"/>
     <use xlink:href="#m734a440be7" x="75.969625" y="420.125997" style="fill: #08306b; stroke: #000000; stroke-width: 0.2"/>
     <use xlink:href="#m734a440be7" x="187.364811" y="413.152342" style="fill: #08306b; stroke: #000000; stroke-width: 0.2"/>
    </g>
   </g>
   <g id="matplotlib.axis_1">
    <g id="xtick_1">
     <g id="line2d_1">
      <defs>
       <path id="m22fa3437c3" d="M 0 0 
L 0 3.5 
" style="stroke: #000000; stroke-width: 0.8"/>
      </defs>
      <g>
       <use xlink:href="#m22fa3437c3" x="65.642978" y="437.304906" style="stroke: #000000; stroke-width: 0.8"/>
      </g>
     </g>
     <g id="text_1">
      <!-- 0.36 -->
      <g transform="translate(52.283603 453.423031) scale(0.12 -0.12)">
       <defs>
        <path id="DejaVuSans-30" d="M 2034 4250 
Q 1547 4250 1301 3770 
Q 1056 3291 1056 2328 
Q 1056 1369 1301 889 
Q 1547 409 2034 409 
Q 2525 409 2770 889 
Q 3016 1369 3016 2328 
Q 3016 3291 2770 3770 
Q 2525 4250 2034 4250 
z
M 2034 4750 
Q 2819 4750 3233 4129 
Q 3647 3509 3647 2328 
Q 3647 1150 3233 529 
Q 2819 -91 2034 -91 
Q 1250 -91 836 529 
Q 422 1150 422 2328 
Q 422 3509 836 4129 
Q 1250 4750 2034 4750 
z
" transform="scale(0.015625)"/>
        <path id="DejaVuSans-2e" d="M 684 794 
L 1344 794 
L 1344 0 
L 684 0 
L 684 794 
z
" transform="scale(0.015625)"/>
        <path id="DejaVuSans-33" d="M 2597 2516 
Q 3050 2419 3304 2112 
Q 3559 1806 3559 1356 
Q 3559 666 3084 287 
Q 2609 -91 1734 -91 
Q 1441 -91 1130 -33 
Q 819 25 488 141 
L 488 750 
Q 750 597 1062 519 
Q 1375 441 1716 441 
Q 2309 441 2620 675 
Q 2931 909 2931 1356 
Q 2931 1769 2642 2001 
Q 2353 2234 1838 2234 
L 1294 2234 
L 1294 2753 
L 1863 2753 
Q 2328 2753 2575 2939 
Q 2822 3125 2822 3475 
Q 2822 3834 2567 4026 
Q 2313 4219 1838 4219 
Q 1578 4219 1281 4162 
Q 984 4106 628 3988 
L 628 4550 
Q 988 4650 1302 4700 
Q 1616 4750 1894 4750 
Q 2613 4750 3031 4423 
Q 3450 4097 3450 3541 
Q 3450 3153 3228 2886 
Q 3006 2619 2597 2516 
z
" transform="scale(0.015625)"/>
        <path id="DejaVuSans-36" d="M 2113 2584 
Q 1688 2584 1439 2293 
Q 1191 2003 1191 1497 
Q 1191 994 1439 701 
Q 1688 409 2113 409 
Q 2538 409 2786 701 
Q 3034 994 3034 1497 
Q 3034 2003 2786 2293 
Q 2538 2584 2113 2584 
z
M 3366 4563 
L 3366 3988 
Q 3128 4100 2886 4159 
Q 2644 4219 2406 4219 
Q 1781 4219 1451 3797 
Q 1122 3375 1075 2522 
Q 1259 2794 1537 2939 
Q 1816 3084 2150 3084 
Q 2853 3084 3261 2657 
Q 3669 2231 3669 1497 
Q 3669 778 3244 343 
Q 2819 -91 2113 -91 
Q 1303 -91 875 529 
Q 447 1150 447 2328 
Q 447 3434 972 4092 
Q 1497 4750 2381 4750 
Q 2619 4750 2861 4703 
Q 3103 4656 3366 4563 
z
" transform="scale(0.015625)"/>
       </defs>
       <use xlink:href="#DejaVuSans-30"/>
       <use xlink:href="#DejaVuSans-2e" transform="translate(63.623047 0)"/>
       <use xlink:href="#DejaVuSans-33" transform="translate(95.410156 0)"/>
       <use xlink:href="#DejaVuSans-36" transform="translate(159.033203 0)"/>
      </g>
     </g>
    </g>
    <g id="xtick_2">
     <g id="line2d_2">
      <g>
       <use xlink:href="#m22fa3437c3" x="165.348777" y="437.304906" style="stroke: #000000; stroke-width: 0.8"/>
      </g>
     </g>
     <g id="text_2">
      <!-- 0.37 -->
      <g transform="translate(151.989402 453.423031) scale(0.12 -0.12)">
       <defs>
        <path id="DejaVuSans-37" d="M 525 4666 
L 3525 4666 
L 3525 4397 
L 1831 0 
L 1172 0 
L 2766 4134 
L 525 4134 
L 525 4666 
z
" transform="scale(0.015625)"/>
       </defs>
       <use xlink:href="#DejaVuSans-30"/>
       <use xlink:href="#DejaVuSans-2e" transform="translate(63.623047 0)"/>
       <use xlink:href="#DejaVuSans-33" transform="translate(95.410156 0)"/>
       <use xlink:href="#DejaVuSans-37" transform="translate(159.033203 0)"/>
      </g>
     </g>
    </g>
    <g id="xtick_3">
     <g id="line2d_3">
      <g>
       <use xlink:href="#m22fa3437c3" x="265.054576" y="437.304906" style="stroke: #000000; stroke-width: 0.8"/>
      </g>
     </g>
     <g id="text_3">
      <!-- 0.38 -->
      <g transform="translate(251.695201 453.423031) scale(0.12 -0.12)">
       <defs>
        <path id="DejaVuSans-38" d="M 2034 2216 
Q 1584 2216 1326 1975 
Q 1069 1734 1069 1313 
Q 1069 891 1326 650 
Q 1584 409 2034 409 
Q 2484 409 2743 651 
Q 3003 894 3003 1313 
Q 3003 1734 2745 1975 
Q 2488 2216 2034 2216 
z
M 1403 2484 
Q 997 2584 770 2862 
Q 544 3141 544 3541 
Q 544 4100 942 4425 
Q 1341 4750 2034 4750 
Q 2731 4750 3128 4425 
Q 3525 4100 3525 3541 
Q 3525 3141 3298 2862 
Q 3072 2584 2669 2484 
Q 3125 2378 3379 2068 
Q 3634 1759 3634 1313 
Q 3634 634 3220 271 
Q 2806 -91 2034 -91 
Q 1263 -91 848 271 
Q 434 634 434 1313 
Q 434 1759 690 2068 
Q 947 2378 1403 2484 
z
M 1172 3481 
Q 1172 3119 1398 2916 
Q 1625 2713 2034 2713 
Q 2441 2713 2670 2916 
Q 2900 3119 2900 3481 
Q 2900 3844 2670 4047 
Q 2441 4250 2034 4250 
Q 1625 4250 1398 4047 
Q 1172 3844 1172 3481 
z
" transform="scale(0.015625)"/>
       </defs>
       <use xlink:href="#DejaVuSans-30"/>
       <use xlink:href="#DejaVuSans-2e" transform="translate(63.623047 0)"/>
       <use xlink:href="#DejaVuSans-33" transform="translate(95.410156 0)"/>
       <use xlink:href="#DejaVuSans-38" transform="translate(159.033203 0)"/>
      </g>
     </g>
    </g>
    <g id="xtick_4">
     <g id="line2d_4">
      <g>
       <use xlink:href="#m22fa3437c3" x="364.760376" y="437.304906" style="stroke: #000000; stroke-width: 0.8"/>
      </g>
     </g>
     <g id="text_4">
      <!-- 0.39 -->
      <g transform="translate(351.401001 453.423031) scale(0.12 -0.12)">
       <defs>
        <path id="DejaVuSans-39" d="M 703 97 
L 703 672 
Q 941 559 1184 500 
Q 1428 441 1663 441 
Q 2288 441 2617 861 
Q 2947 1281 2994 2138 
Q 2813 1869 2534 1725 
Q 2256 1581 1919 1581 
Q 1219 1581 811 2004 
Q 403 2428 403 3163 
Q 403 3881 828 4315 
Q 1253 4750 1959 4750 
Q 2769 4750 3195 4129 
Q 3622 3509 3622 2328 
Q 3622 1225 3098 567 
Q 2575 -91 1691 -91 
Q 1453 -91 1209 -44 
Q 966 3 703 97 
z
M 1959 2075 
Q 2384 2075 2632 2365 
Q 2881 2656 2881 3163 
Q 2881 3666 2632 3958 
Q 2384 4250 1959 4250 
Q 1534 4250 1286 3958 
Q 1038 3666 1038 3163 
Q 1038 2656 1286 2365 
Q 1534 2075 1959 2075 
z
" transform="scale(0.015625)"/>
       </defs>
       <use xlink:href="#DejaVuSans-30"/>
       <use xlink:href="#DejaVuSans-2e" transform="translate(63.623047 0)"/>
       <use xlink:href="#DejaVuSans-33" transform="translate(95.410156 0)"/>
       <use xlink:href="#DejaVuSans-39" transform="translate(159.033203 0)"/>
      </g>
     </g>
    </g>
    <g id="xtick_5">
     <g id="line2d_5">
      <g>
       <use xlink:href="#m22fa3437c3" x="464.466175" y="437.304906" style="stroke: #000000; stroke-width: 0.8"/>
      </g>
     </g>
     <g id="text_5">
      <!-- 0.40 -->
      <g transform="translate(451.1068 453.423031) scale(0.12 -0.12)">
       <defs>
        <path id="DejaVuSans-34" d="M 2419 4116 
L 825 1625 
L 2419 1625 
L 2419 4116 
z
M 2253 4666 
L 3047 4666 
L 3047 1625 
L 3713 1625 
L 3713 1100 
L 3047 1100 
L 3047 0 
L 2419 0 
L 2419 1100 
L 313 1100 
L 313 1709 
L 2253 4666 
z
" transform="scale(0.015625)"/>
       </defs>
       <use xlink:href="#DejaVuSans-30"/>
       <use xlink:href="#DejaVuSans-2e" transform="translate(63.623047 0)"/>
       <use xlink:href="#DejaVuSans-34" transform="translate(95.410156 0)"/>
       <use xlink:href="#DejaVuSans-30" transform="translate(159.033203 0)"/>
      </g>
     </g>
    </g>
    <g id="xtick_6">
     <g id="line2d_6">
      <g>
       <use xlink:href="#m22fa3437c3" x="564.171974" y="437.304906" style="stroke: #000000; stroke-width: 0.8"/>
      </g>
     </g>
     <g id="text_6">
      <!-- 0.41 -->
      <g transform="translate(550.812599 453.423031) scale(0.12 -0.12)">
       <defs>
        <path id="DejaVuSans-31" d="M 794 531 
L 1825 531 
L 1825 4091 
L 703 3866 
L 703 4441 
L 1819 4666 
L 2450 4666 
L 2450 531 
L 3481 531 
L 3481 0 
L 794 0 
L 794 531 
z
" transform="scale(0.015625)"/>
       </defs>
       <use xlink:href="#DejaVuSans-30"/>
       <use xlink:href="#DejaVuSans-2e" transform="translate(63.623047 0)"/>
       <use xlink:href="#DejaVuSans-34" transform="translate(95.410156 0)"/>
       <use xlink:href="#DejaVuSans-31" transform="translate(159.033203 0)"/>
      </g>
     </g>
    </g>
    <g id="text_7">
     <!-- (RT)$^{-1}$ / mol $\cdot$ kJ$^{-1}$ -->
     <g transform="translate(250.439625 474.318656) scale(0.16 -0.16)">
      <defs>
       <path id="DejaVuSans-28" d="M 1984 4856 
Q 1566 4138 1362 3434 
Q 1159 2731 1159 2009 
Q 1159 1288 1364 580 
Q 1569 -128 1984 -844 
L 1484 -844 
Q 1016 -109 783 600 
Q 550 1309 550 2009 
Q 550 2706 781 3412 
Q 1013 4119 1484 4856 
L 1984 4856 
z
" transform="scale(0.015625)"/>
       <path id="DejaVuSans-52" d="M 2841 2188 
Q 3044 2119 3236 1894 
Q 3428 1669 3622 1275 
L 4263 0 
L 3584 0 
L 2988 1197 
Q 2756 1666 2539 1819 
Q 2322 1972 1947 1972 
L 1259 1972 
L 1259 0 
L 628 0 
L 628 4666 
L 2053 4666 
Q 2853 4666 3247 4331 
Q 3641 3997 3641 3322 
Q 3641 2881 3436 2590 
Q 3231 2300 2841 2188 
z
M 1259 4147 
L 1259 2491 
L 2053 2491 
Q 2509 2491 2742 2702 
Q 2975 2913 2975 3322 
Q 2975 3731 2742 3939 
Q 2509 4147 2053 4147 
L 1259 4147 
z
" transform="scale(0.015625)"/>
       <path id="DejaVuSans-54" d="M -19 4666 
L 3928 4666 
L 3928 4134 
L 2272 4134 
L 2272 0 
L 1638 0 
L 1638 4134 
L -19 4134 
L -19 4666 
z
" transform="scale(0.015625)"/>
       <path id="DejaVuSans-29" d="M 513 4856 
L 1013 4856 
Q 1481 4119 1714 3412 
Q 1947 2706 1947 2009 
Q 1947 1309 1714 600 
Q 1481 -109 1013 -844 
L 513 -844 
Q 928 -128 1133 580 
Q 1338 1288 1338 2009 
Q 1338 2731 1133 3434 
Q 928 4138 513 4856 
z
" transform="scale(0.015625)"/>
       <path id="DejaVuSans-2212" d="M 678 2272 
L 4684 2272 
L 4684 1741 
L 678 1741 
L 678 2272 
z
" transform="scale(0.015625)"/>
       <path id="DejaVuSans-20" transform="scale(0.015625)"/>
       <path id="DejaVuSans-2f" d="M 1625 4666 
L 2156 4666 
L 531 -594 
L 0 -594 
L 1625 4666 
z
" transform="scale(0.015625)"/>
       <path id="DejaVuSans-6d" d="M 3328 2828 
Q 3544 3216 3844 3400 
Q 4144 3584 4550 3584 
Q 5097 3584 5394 3201 
Q 5691 2819 5691 2113 
L 5691 0 
L 5113 0 
L 5113 2094 
Q 5113 2597 4934 2840 
Q 4756 3084 4391 3084 
Q 3944 3084 3684 2787 
Q 3425 2491 3425 1978 
L 3425 0 
L 2847 0 
L 2847 2094 
Q 2847 2600 2669 2842 
Q 2491 3084 2119 3084 
Q 1678 3084 1418 2786 
Q 1159 2488 1159 1978 
L 1159 0 
L 581 0 
L 581 3500 
L 1159 3500 
L 1159 2956 
Q 1356 3278 1631 3431 
Q 1906 3584 2284 3584 
Q 2666 3584 2933 3390 
Q 3200 3197 3328 2828 
z
" transform="scale(0.015625)"/>
       <path id="DejaVuSans-6f" d="M 1959 3097 
Q 1497 3097 1228 2736 
Q 959 2375 959 1747 
Q 959 1119 1226 758 
Q 1494 397 1959 397 
Q 2419 397 2687 759 
Q 2956 1122 2956 1747 
Q 2956 2369 2687 2733 
Q 2419 3097 1959 3097 
z
M 1959 3584 
Q 2709 3584 3137 3096 
Q 3566 2609 3566 1747 
Q 3566 888 3137 398 
Q 2709 -91 1959 -91 
Q 1206 -91 779 398 
Q 353 888 353 1747 
Q 353 2609 779 3096 
Q 1206 3584 1959 3584 
z
" transform="scale(0.015625)"/>
       <path id="DejaVuSans-6c" d="M 603 4863 
L 1178 4863 
L 1178 0 
L 603 0 
L 603 4863 
z
" transform="scale(0.015625)"/>
       <path id="DejaVuSans-22c5" d="M 684 2619 
L 1344 2619 
L 1344 1825 
L 684 1825 
L 684 2619 
z
" transform="scale(0.015625)"/>
       <path id="DejaVuSans-6b" d="M 581 4863 
L 1159 4863 
L 1159 1991 
L 2875 3500 
L 3609 3500 
L 1753 1863 
L 3688 0 
L 2938 0 
L 1159 1709 
L 1159 0 
L 581 0 
L 581 4863 
z
" transform="scale(0.015625)"/>
       <path id="DejaVuSans-4a" d="M 628 4666 
L 1259 4666 
L 1259 325 
Q 1259 -519 939 -900 
Q 619 -1281 -91 -1281 
L -331 -1281 
L -331 -750 
L -134 -750 
Q 284 -750 456 -515 
Q 628 -281 628 325 
L 628 4666 
z
" transform="scale(0.015625)"/>
      </defs>
      <use xlink:href="#DejaVuSans-28" transform="translate(0 0.684375)"/>
      <use xlink:href="#DejaVuSans-52" transform="translate(39.013672 0.684375)"/>
      <use xlink:href="#DejaVuSans-54" transform="translate(108.496094 0.684375)"/>
      <use xlink:href="#DejaVuSans-29" transform="translate(169.580078 0.684375)"/>
      <use xlink:href="#DejaVuSans-2212" transform="translate(209.550781 38.965625) scale(0.7)"/>
      <use xlink:href="#DejaVuSans-31" transform="translate(268.203125 38.965625) scale(0.7)"/>
      <use xlink:href="#DejaVuSans-20" transform="translate(315.473633 0.684375)"/>
      <use xlink:href="#DejaVuSans-2f" transform="translate(347.260742 0.684375)"/>
      <use xlink:href="#DejaVuSans-20" transform="translate(380.952148 0.684375)"/>
      <use xlink:href="#DejaVuSans-6d" transform="translate(412.739258 0.684375)"/>
      <use xlink:href="#DejaVuSans-6f" transform="translate(510.151367 0.684375)"/>
      <use xlink:href="#DejaVuSans-6c" transform="translate(571.333008 0.684375)"/>
      <use xlink:href="#DejaVuSans-20" transform="translate(599.116211 0.684375)"/>
      <use xlink:href="#DejaVuSans-22c5" transform="translate(630.90332 0.684375)"/>
      <use xlink:href="#DejaVuSans-20" transform="translate(662.69043 0.684375)"/>
      <use xlink:href="#DejaVuSans-6b" transform="translate(694.477539 0.684375)"/>
      <use xlink:href="#DejaVuSans-4a" transform="translate(752.387695 0.684375)"/>
      <use xlink:href="#DejaVuSans-2212" transform="translate(782.836914 38.965625) scale(0.7)"/>
      <use xlink:href="#DejaVuSans-31" transform="translate(841.489258 38.965625) scale(0.7)"/>
     </g>
    </g>
   </g>
   <g id="matplotlib.axis_2">
    <g id="ytick_1">
     <g id="line2d_7">
      <defs>
       <path id="m7e546a0fb1" d="M 0 0 
L -3.5 0 
" style="stroke: #000000; stroke-width: 0.8"/>
      </defs>
      <g>
       <use xlink:href="#m7e546a0fb1" x="51.410625" y="387.856381" style="stroke: #000000; stroke-width: 0.8"/>
      </g>
     </g>
     <g id="text_8">
      <!-- −7 -->
      <g transform="translate(26.72 392.415443) scale(0.12 -0.12)">
       <use xlink:href="#DejaVuSans-2212"/>
       <use xlink:href="#DejaVuSans-37" transform="translate(83.789062 0)"/>
      </g>
     </g>
    </g>
    <g id="ytick_2">
     <g id="line2d_8">
      <g>
       <use xlink:href="#m7e546a0fb1" x="51.410625" y="338.057134" style="stroke: #000000; stroke-width: 0.8"/>
      </g>
     </g>
     <g id="text_9">
      <!-- −6 -->
      <g transform="translate(26.72 342.616196) scale(0.12 -0.12)">
       <use xlink:href="#DejaVuSans-2212"/>
       <use xlink:href="#DejaVuSans-36" transform="translate(83.789062 0)"/>
      </g>
     </g>
    </g>
    <g id="ytick_3">
     <g id="line2d_9">
      <g>
       <use xlink:href="#m7e546a0fb1" x="51.410625" y="288.257887" style="stroke: #000000; stroke-width: 0.8"/>
      </g>
     </g>
     <g id="text_10">
      <!-- −5 -->
      <g transform="translate(26.72 292.816949) scale(0.12 -0.12)">
       <defs>
        <path id="DejaVuSans-35" d="M 691 4666 
L 3169 4666 
L 3169 4134 
L 1269 4134 
L 1269 2991 
Q 1406 3038 1543 3061 
Q 1681 3084 1819 3084 
Q 2600 3084 3056 2656 
Q 3513 2228 3513 1497 
Q 3513 744 3044 326 
Q 2575 -91 1722 -91 
Q 1428 -91 1123 -41 
Q 819 9 494 109 
L 494 744 
Q 775 591 1075 516 
Q 1375 441 1709 441 
Q 2250 441 2565 725 
Q 2881 1009 2881 1497 
Q 2881 1984 2565 2268 
Q 2250 2553 1709 2553 
Q 1456 2553 1204 2497 
Q 953 2441 691 2322 
L 691 4666 
z
" transform="scale(0.015625)"/>
       </defs>
       <use xlink:href="#DejaVuSans-2212"/>
       <use xlink:href="#DejaVuSans-35" transform="translate(83.789062 0)"/>
      </g>
     </g>
    </g>
    <g id="ytick_4">
     <g id="line2d_10">
      <g>
       <use xlink:href="#m7e546a0fb1" x="51.410625" y="238.45864" style="stroke: #000000; stroke-width: 0.8"/>
      </g>
     </g>
     <g id="text_11">
      <!-- −4 -->
      <g transform="translate(26.72 243.017703) scale(0.12 -0.12)">
       <use xlink:href="#DejaVuSans-2212"/>
       <use xlink:href="#DejaVuSans-34" transform="translate(83.789062 0)"/>
      </g>
     </g>
    </g>
    <g id="ytick_5">
     <g id="line2d_11">
      <g>
       <use xlink:href="#m7e546a0fb1" x="51.410625" y="188.659393" style="stroke: #000000; stroke-width: 0.8"/>
      </g>
     </g>
     <g id="text_12">
      <!-- −3 -->
      <g transform="translate(26.72 193.218456) scale(0.12 -0.12)">
       <use xlink:href="#DejaVuSans-2212"/>
       <use xlink:href="#DejaVuSans-33" transform="translate(83.789062 0)"/>
      </g>
     </g>
    </g>
    <g id="ytick_6">
     <g id="line2d_12">
      <g>
       <use xlink:href="#m7e546a0fb1" x="51.410625" y="138.860146" style="stroke: #000000; stroke-width: 0.8"/>
      </g>
     </g>
     <g id="text_13">
      <!-- −2 -->
      <g transform="translate(26.72 143.419209) scale(0.12 -0.12)">
       <defs>
        <path id="DejaVuSans-32" d="M 1228 531 
L 3431 531 
L 3431 0 
L 469 0 
L 469 531 
Q 828 903 1448 1529 
Q 2069 2156 2228 2338 
Q 2531 2678 2651 2914 
Q 2772 3150 2772 3378 
Q 2772 3750 2511 3984 
Q 2250 4219 1831 4219 
Q 1534 4219 1204 4116 
Q 875 4013 500 3803 
L 500 4441 
Q 881 4594 1212 4672 
Q 1544 4750 1819 4750 
Q 2544 4750 2975 4387 
Q 3406 4025 3406 3419 
Q 3406 3131 3298 2873 
Q 3191 2616 2906 2266 
Q 2828 2175 2409 1742 
Q 1991 1309 1228 531 
z
" transform="scale(0.015625)"/>
       </defs>
       <use xlink:href="#DejaVuSans-2212"/>
       <use xlink:href="#DejaVuSans-32" transform="translate(83.789062 0)"/>
      </g>
     </g>
    </g>
    <g id="ytick_7">
     <g id="line2d_13">
      <g>
       <use xlink:href="#m7e546a0fb1" x="51.410625" y="89.0609" style="stroke: #000000; stroke-width: 0.8"/>
      </g>
     </g>
     <g id="text_14">
      <!-- −1 -->
      <g transform="translate(26.72 93.619962) scale(0.12 -0.12)">
       <use xlink:href="#DejaVuSans-2212"/>
       <use xlink:href="#DejaVuSans-31" transform="translate(83.789062 0)"/>
      </g>
     </g>
    </g>
    <g id="text_15">
     <!-- ln($\eta$ / Pa $\cdot$ s) -->
     <g transform="translate(19.36 296.256906) rotate(-90) scale(0.16 -0.16)">
      <defs>
       <path id="DejaVuSans-6e" d="M 3513 2113 
L 3513 0 
L 2938 0 
L 2938 2094 
Q 2938 2591 2744 2837 
Q 2550 3084 2163 3084 
Q 1697 3084 1428 2787 
Q 1159 2491 1159 1978 
L 1159 0 
L 581 0 
L 581 3500 
L 1159 3500 
L 1159 2956 
Q 1366 3272 1645 3428 
Q 1925 3584 2291 3584 
Q 2894 3584 3203 3211 
Q 3513 2838 3513 2113 
z
" transform="scale(0.015625)"/>
       <path id="DejaVuSans-Oblique-3b7" d="M 3703 2113 
L 3034 -1331 
L 2459 -1331 
L 3125 2094 
Q 3222 2591 3075 2838 
Q 2931 3084 2544 3084 
Q 2078 3084 1750 2788 
Q 1425 2491 1325 1978 
L 941 0 
L 363 0 
L 1044 3500 
L 1622 3500 
L 1516 2956 
Q 1781 3272 2094 3428 
Q 2403 3584 2769 3584 
Q 3372 3584 3609 3213 
Q 3844 2838 3703 2113 
z
" transform="scale(0.015625)"/>
       <path id="DejaVuSans-50" d="M 1259 4147 
L 1259 2394 
L 2053 2394 
Q 2494 2394 2734 2622 
Q 2975 2850 2975 3272 
Q 2975 3691 2734 3919 
Q 2494 4147 2053 4147 
L 1259 4147 
z
M 628 4666 
L 2053 4666 
Q 2838 4666 3239 4311 
Q 3641 3956 3641 3272 
Q 3641 2581 3239 2228 
Q 2838 1875 2053 1875 
L 1259 1875 
L 1259 0 
L 628 0 
L 628 4666 
z
" transform="scale(0.015625)"/>
       <path id="DejaVuSans-61" d="M 2194 1759 
Q 1497 1759 1228 1600 
Q 959 1441 959 1056 
Q 959 750 1161 570 
Q 1363 391 1709 391 
Q 2188 391 2477 730 
Q 2766 1069 2766 1631 
L 2766 1759 
L 2194 1759 
z
M 3341 1997 
L 3341 0 
L 2766 0 
L 2766 531 
Q 2569 213 2275 61 
Q 1981 -91 1556 -91 
Q 1019 -91 701 211 
Q 384 513 384 1019 
Q 384 1609 779 1909 
Q 1175 2209 1959 2209 
L 2766 2209 
L 2766 2266 
Q 2766 2663 2505 2880 
Q 2244 3097 1772 3097 
Q 1472 3097 1187 3025 
Q 903 2953 641 2809 
L 641 3341 
Q 956 3463 1253 3523 
Q 1550 3584 1831 3584 
Q 2591 3584 2966 3190 
Q 3341 2797 3341 1997 
z
" transform="scale(0.015625)"/>
       <path id="DejaVuSans-73" d="M 2834 3397 
L 2834 2853 
Q 2591 2978 2328 3040 
Q 2066 3103 1784 3103 
Q 1356 3103 1142 2972 
Q 928 2841 928 2578 
Q 928 2378 1081 2264 
Q 1234 2150 1697 2047 
L 1894 2003 
Q 2506 1872 2764 1633 
Q 3022 1394 3022 966 
Q 3022 478 2636 193 
Q 2250 -91 1575 -91 
Q 1294 -91 989 -36 
Q 684 19 347 128 
L 347 722 
Q 666 556 975 473 
Q 1284 391 1588 391 
Q 1994 391 2212 530 
Q 2431 669 2431 922 
Q 2431 1156 2273 1281 
Q 2116 1406 1581 1522 
L 1381 1569 
Q 847 1681 609 1914 
Q 372 2147 372 2553 
Q 372 3047 722 3315 
Q 1072 3584 1716 3584 
Q 2034 3584 2315 3537 
Q 2597 3491 2834 3397 
z
" transform="scale(0.015625)"/>
      </defs>
      <use xlink:href="#DejaVuSans-6c" transform="translate(0 0.015625)"/>
      <use xlink:href="#DejaVuSans-6e" transform="translate(27.783203 0.015625)"/>
      <use xlink:href="#DejaVuSans-28" transform="translate(91.162109 0.015625)"/>
      <use xlink:href="#DejaVuSans-Oblique-3b7" transform="translate(130.175781 0.015625)"/>
      <use xlink:href="#DejaVuSans-20" transform="translate(193.554688 0.015625)"/>
      <use xlink:href="#DejaVuSans-2f" transform="translate(225.341797 0.015625)"/>
      <use xlink:href="#DejaVuSans-20" transform="translate(259.033203 0.015625)"/>
      <use xlink:href="#DejaVuSans-50" transform="translate(290.820312 0.015625)"/>
      <use xlink:href="#DejaVuSans-61" transform="translate(351.123047 0.015625)"/>
      <use xlink:href="#DejaVuSans-20" transform="translate(412.402344 0.015625)"/>
      <use xlink:href="#DejaVuSans-22c5" transform="translate(444.189453 0.015625)"/>
      <use xlink:href="#DejaVuSans-20" transform="translate(475.976562 0.015625)"/>
      <use xlink:href="#DejaVuSans-73" transform="translate(507.763672 0.015625)"/>
      <use xlink:href="#DejaVuSans-29" transform="translate(559.863281 0.015625)"/>
     </g>
    </g>
   </g>
   <g id="patch_3">
    <path d="M 51.410625 437.304906 
L 51.410625 59.368906 
" style="fill: none; stroke: #000000; stroke-width: 0.8; stroke-linejoin: miter; stroke-linecap: square"/>
   </g>
   <g id="patch_4">
    <path d="M 591.708625 437.304906 
L 591.708625 59.368906 
" style="fill: none; stroke: #000000; stroke-width: 0.8; stroke-linejoin: miter; stroke-linecap: square"/>
   </g>
   <g id="patch_5">
    <path d="M 51.410625 437.304906 
L 591.708625 437.304906 
" style="fill: none; stroke: #000000; stroke-width: 0.8; stroke-linejoin: miter; stroke-linecap: square"/>
   </g>
   <g id="patch_6">
    <path d="M 51.410625 59.368906 
L 591.708625 59.368906 
" style="fill: none; stroke: #000000; stroke-width: 0.8; stroke-linejoin: miter; stroke-linecap: square"/>
   </g>
   <g id="legend_1">
    <g id="patch_7">
     <path d="M 615.720545 505.248281 
L 759.29117 505.248281 
Q 761.69117 505.248281 761.69117 502.848281 
L 761.69117 61.768906 
Q 761.69117 59.368906 759.29117 59.368906 
L 615.720545 59.368906 
Q 613.320545 59.368906 613.320545 61.768906 
L 613.320545 502.848281 
Q 613.320545 505.248281 615.720545 505.248281 
z
" style="fill: #ffffff; opacity: 0.8; stroke: #cccccc; stroke-linejoin: miter"/>
    </g>
    <g id="text_16">
     <!-- Water mole fraction -->
     <g transform="translate(618.120545 74.806719) scale(0.14 -0.14)">
      <defs>
       <path id="DejaVuSans-57" d="M 213 4666 
L 850 4666 
L 1831 722 
L 2809 4666 
L 3519 4666 
L 4500 722 
L 5478 4666 
L 6119 4666 
L 4947 0 
L 4153 0 
L 3169 4050 
L 2175 0 
L 1381 0 
L 213 4666 
z
" transform="scale(0.015625)"/>
       <path id="DejaVuSans-74" d="M 1172 4494 
L 1172 3500 
L 2356 3500 
L 2356 3053 
L 1172 3053 
L 1172 1153 
Q 1172 725 1289 603 
Q 1406 481 1766 481 
L 2356 481 
L 2356 0 
L 1766 0 
Q 1100 0 847 248 
Q 594 497 594 1153 
L 594 3053 
L 172 3053 
L 172 3500 
L 594 3500 
L 594 4494 
L 1172 4494 
z
" transform="scale(0.015625)"/>
       <path id="DejaVuSans-65" d="M 3597 1894 
L 3597 1613 
L 953 1613 
Q 991 1019 1311 708 
Q 1631 397 2203 397 
Q 2534 397 2845 478 
Q 3156 559 3463 722 
L 3463 178 
Q 3153 47 2828 -22 
Q 2503 -91 2169 -91 
Q 1331 -91 842 396 
Q 353 884 353 1716 
Q 353 2575 817 3079 
Q 1281 3584 2069 3584 
Q 2775 3584 3186 3129 
Q 3597 2675 3597 1894 
z
M 3022 2063 
Q 3016 2534 2758 2815 
Q 2500 3097 2075 3097 
Q 1594 3097 1305 2825 
Q 1016 2553 972 2059 
L 3022 2063 
z
" transform="scale(0.015625)"/>
       <path id="DejaVuSans-72" d="M 2631 2963 
Q 2534 3019 2420 3045 
Q 2306 3072 2169 3072 
Q 1681 3072 1420 2755 
Q 1159 2438 1159 1844 
L 1159 0 
L 581 0 
L 581 3500 
L 1159 3500 
L 1159 2956 
Q 1341 3275 1631 3429 
Q 1922 3584 2338 3584 
Q 2397 3584 2469 3576 
Q 2541 3569 2628 3553 
L 2631 2963 
z
" transform="scale(0.015625)"/>
       <path id="DejaVuSans-66" d="M 2375 4863 
L 2375 4384 
L 1825 4384 
Q 1516 4384 1395 4259 
Q 1275 4134 1275 3809 
L 1275 3500 
L 2222 3500 
L 2222 3053 
L 1275 3053 
L 1275 0 
L 697 0 
L 697 3053 
L 147 3053 
L 147 3500 
L 697 3500 
L 697 3744 
Q 697 4328 969 4595 
Q 1241 4863 1831 4863 
L 2375 4863 
z
" transform="scale(0.015625)"/>
       <path id="DejaVuSans-63" d="M 3122 3366 
L 3122 2828 
Q 2878 2963 2633 3030 
Q 2388 3097 2138 3097 
Q 1578 3097 1268 2742 
Q 959 2388 959 1747 
Q 959 1106 1268 751 
Q 1578 397 2138 397 
Q 2388 397 2633 464 
Q 2878 531 3122 666 
L 3122 134 
Q 2881 22 2623 -34 
Q 2366 -91 2075 -91 
Q 1284 -91 818 406 
Q 353 903 353 1747 
Q 353 2603 823 3093 
Q 1294 3584 2113 3584 
Q 2378 3584 2631 3529 
Q 2884 3475 3122 3366 
z
" transform="scale(0.015625)"/>
       <path id="DejaVuSans-69" d="M 603 3500 
L 1178 3500 
L 1178 0 
L 603 0 
L 603 3500 
z
M 603 4863 
L 1178 4863 
L 1178 4134 
L 603 4134 
L 603 4863 
z
" transform="scale(0.015625)"/>
      </defs>
      <use xlink:href="#DejaVuSans-57"/>
      <use xlink:href="#DejaVuSans-61" transform="translate(92.501953 0)"/>
      <use xlink:href="#DejaVuSans-74" transform="translate(153.78125 0)"/>
      <use xlink:href="#DejaVuSans-65" transform="translate(192.990234 0)"/>
      <use xlink:href="#DejaVuSans-72" transform="translate(254.513672 0)"/>
      <use xlink:href="#DejaVuSans-20" transform="translate(295.626953 0)"/>
      <use xlink:href="#DejaVuSans-6d" transform="translate(327.414062 0)"/>
      <use xlink:href="#DejaVuSans-6f" transform="translate(424.826172 0)"/>
      <use xlink:href="#DejaVuSans-6c" transform="translate(486.007812 0)"/>
      <use xlink:href="#DejaVuSans-65" transform="translate(513.791016 0)"/>
      <use xlink:href="#DejaVuSans-20" transform="translate(575.314453 0)"/>
      <use xlink:href="#DejaVuSans-66" transform="translate(607.101562 0)"/>
      <use xlink:href="#DejaVuSans-72" transform="translate(642.306641 0)"/>
      <use xlink:href="#DejaVuSans-61" transform="translate(683.419922 0)"/>
      <use xlink:href="#DejaVuSans-63" transform="translate(744.699219 0)"/>
      <use xlink:href="#DejaVuSans-74" transform="translate(799.679688 0)"/>
      <use xlink:href="#DejaVuSans-69" transform="translate(838.888672 0)"/>
      <use xlink:href="#DejaVuSans-6f" transform="translate(866.671875 0)"/>
      <use xlink:href="#DejaVuSans-6e" transform="translate(927.853516 0)"/>
     </g>
    </g>
    <g id="PathCollection_25">
     <g>
      <use xlink:href="#mfed3fcfb60" x="665.528982" y="89.686406" style="fill: #f7fbff; stroke: #000000; stroke-width: 0.2"/>
     </g>
    </g>
    <g id="text_17">
     <!-- 0.000 -->
     <g transform="translate(687.128983 92.836406) scale(0.12 -0.12)">
      <use xlink:href="#DejaVuSans-30"/>
      <use xlink:href="#DejaVuSans-2e" transform="translate(63.623047 0)"/>
      <use xlink:href="#DejaVuSans-30" transform="translate(95.410156 0)"/>
      <use xlink:href="#DejaVuSans-30" transform="translate(159.033203 0)"/>
      <use xlink:href="#DejaVuSans-30" transform="translate(222.65625 0)"/>
     </g>
    </g>
    <g id="PathCollection_26">
     <g>
      <use xlink:href="#m2645dbf316" x="665.528982" y="107.300156" style="fill: #eef5fc; stroke: #000000; stroke-width: 0.2"/>
     </g>
    </g>
    <g id="text_18">
     <!-- 0.025 -->
     <g transform="translate(687.128983 110.450156) scale(0.12 -0.12)">
      <use xlink:href="#DejaVuSans-30"/>
      <use xlink:href="#DejaVuSans-2e" transform="translate(63.623047 0)"/>
      <use xlink:href="#DejaVuSans-30" transform="translate(95.410156 0)"/>
      <use xlink:href="#DejaVuSans-32" transform="translate(159.033203 0)"/>
      <use xlink:href="#DejaVuSans-35" transform="translate(222.65625 0)"/>
     </g>
    </g>
    <g id="PathCollection_27">
     <g>
      <use xlink:href="#m946cd59ce7" x="665.528982" y="124.913906" style="fill: #e6f0f9; stroke: #000000; stroke-width: 0.2"/>
     </g>
    </g>
    <g id="text_19">
     <!-- 0.049 -->
     <g transform="translate(687.128983 128.063906) scale(0.12 -0.12)">
      <use xlink:href="#DejaVuSans-30"/>
      <use xlink:href="#DejaVuSans-2e" transform="translate(63.623047 0)"/>
      <use xlink:href="#DejaVuSans-30" transform="translate(95.410156 0)"/>
      <use xlink:href="#DejaVuSans-34" transform="translate(159.033203 0)"/>
      <use xlink:href="#DejaVuSans-39" transform="translate(222.65625 0)"/>
     </g>
    </g>
    <g id="PathCollection_28">
     <g>
      <use xlink:href="#ma335f92795" x="665.528982" y="142.527656" style="fill: #ddeaf7; stroke: #000000; stroke-width: 0.2"/>
     </g>
    </g>
    <g id="text_20">
     <!-- 0.108 -->
     <g transform="translate(687.128983 145.677656) scale(0.12 -0.12)">
      <use xlink:href="#DejaVuSans-30"/>
      <use xlink:href="#DejaVuSans-2e" transform="translate(63.623047 0)"/>
      <use xlink:href="#DejaVuSans-31" transform="translate(95.410156 0)"/>
      <use xlink:href="#DejaVuSans-30" transform="translate(159.033203 0)"/>
      <use xlink:href="#DejaVuSans-38" transform="translate(222.65625 0)"/>
     </g>
    </g>
    <g id="PathCollection_29">
     <g>
      <use xlink:href="#me93c474788" x="665.528982" y="160.141406" style="fill: #d5e5f4; stroke: #000000; stroke-width: 0.2"/>
     </g>
    </g>
    <g id="text_21">
     <!-- 0.115 -->
     <g transform="translate(687.128983 163.291406) scale(0.12 -0.12)">
      <use xlink:href="#DejaVuSans-30"/>
      <use xlink:href="#DejaVuSans-2e" transform="translate(63.623047 0)"/>
      <use xlink:href="#DejaVuSans-31" transform="translate(95.410156 0)"/>
      <use xlink:href="#DejaVuSans-31" transform="translate(159.033203 0)"/>
      <use xlink:href="#DejaVuSans-35" transform="translate(222.65625 0)"/>
     </g>
    </g>
    <g id="PathCollection_30">
     <g>
      <use xlink:href="#m116545d90e" x="665.528982" y="177.755156" style="fill: #ccdff1; stroke: #000000; stroke-width: 0.2"/>
     </g>
    </g>
    <g id="text_22">
     <!-- 0.211 -->
     <g transform="translate(687.128983 180.905156) scale(0.12 -0.12)">
      <use xlink:href="#DejaVuSans-30"/>
      <use xlink:href="#DejaVuSans-2e" transform="translate(63.623047 0)"/>
      <use xlink:href="#DejaVuSans-32" transform="translate(95.410156 0)"/>
      <use xlink:href="#DejaVuSans-31" transform="translate(159.033203 0)"/>
      <use xlink:href="#DejaVuSans-31" transform="translate(222.65625 0)"/>
     </g>
    </g>
    <g id="PathCollection_31">
     <g>
      <use xlink:href="#m0952f15819" x="665.528982" y="195.368906" style="fill: #c3daee; stroke: #000000; stroke-width: 0.2"/>
     </g>
    </g>
    <g id="text_23">
     <!-- 0.238 -->
     <g transform="translate(687.128983 198.518906) scale(0.12 -0.12)">
      <use xlink:href="#DejaVuSans-30"/>
      <use xlink:href="#DejaVuSans-2e" transform="translate(63.623047 0)"/>
      <use xlink:href="#DejaVuSans-32" transform="translate(95.410156 0)"/>
      <use xlink:href="#DejaVuSans-33" transform="translate(159.033203 0)"/>
      <use xlink:href="#DejaVuSans-38" transform="translate(222.65625 0)"/>
     </g>
    </g>
    <g id="PathCollection_32">
     <g>
      <use xlink:href="#m96e466b3a6" x="665.528982" y="212.982656" style="fill: #b5d4e9; stroke: #000000; stroke-width: 0.2"/>
     </g>
    </g>
    <g id="text_24">
     <!-- 0.250 -->
     <g transform="translate(687.128983 216.132656) scale(0.12 -0.12)">
      <use xlink:href="#DejaVuSans-30"/>
      <use xlink:href="#DejaVuSans-2e" transform="translate(63.623047 0)"/>
      <use xlink:href="#DejaVuSans-32" transform="translate(95.410156 0)"/>
      <use xlink:href="#DejaVuSans-35" transform="translate(159.033203 0)"/>
      <use xlink:href="#DejaVuSans-30" transform="translate(222.65625 0)"/>
     </g>
    </g>
    <g id="PathCollection_33">
     <g>
      <use xlink:href="#m85c40048ce" x="665.528982" y="230.596406" style="fill: #a7cee4; stroke: #000000; stroke-width: 0.2"/>
     </g>
    </g>
    <g id="text_25">
     <!-- 0.254 -->
     <g transform="translate(687.128983 233.746406) scale(0.12 -0.12)">
      <use xlink:href="#DejaVuSans-30"/>
      <use xlink:href="#DejaVuSans-2e" transform="translate(63.623047 0)"/>
      <use xlink:href="#DejaVuSans-32" transform="translate(95.410156 0)"/>
      <use xlink:href="#DejaVuSans-35" transform="translate(159.033203 0)"/>
      <use xlink:href="#DejaVuSans-34" transform="translate(222.65625 0)"/>
     </g>
    </g>
    <g id="PathCollection_34">
     <g>
      <use xlink:href="#m03448c7940" x="665.528982" y="248.210156" style="fill: #97c6e0; stroke: #000000; stroke-width: 0.2"/>
     </g>
    </g>
    <g id="text_26">
     <!-- 0.291 -->
     <g transform="translate(687.128983 251.360156) scale(0.12 -0.12)">
      <use xlink:href="#DejaVuSans-30"/>
      <use xlink:href="#DejaVuSans-2e" transform="translate(63.623047 0)"/>
      <use xlink:href="#DejaVuSans-32" transform="translate(95.410156 0)"/>
      <use xlink:href="#DejaVuSans-39" transform="translate(159.033203 0)"/>
      <use xlink:href="#DejaVuSans-31" transform="translate(222.65625 0)"/>
     </g>
    </g>
    <g id="PathCollection_35">
     <g>
      <use xlink:href="#m8d7e8f8da4" x="665.528982" y="265.823906" style="fill: #86bddc; stroke: #000000; stroke-width: 0.2"/>
     </g>
    </g>
    <g id="text_27">
     <!-- 0.342 -->
     <g transform="translate(687.128983 268.973906) scale(0.12 -0.12)">
      <use xlink:href="#DejaVuSans-30"/>
      <use xlink:href="#DejaVuSans-2e" transform="translate(63.623047 0)"/>
      <use xlink:href="#DejaVuSans-33" transform="translate(95.410156 0)"/>
      <use xlink:href="#DejaVuSans-34" transform="translate(159.033203 0)"/>
      <use xlink:href="#DejaVuSans-32" transform="translate(222.65625 0)"/>
     </g>
    </g>
    <g id="PathCollection_36">
     <g>
      <use xlink:href="#mbca0e3318c" x="665.528982" y="283.437656" style="fill: #74b3d8; stroke: #000000; stroke-width: 0.2"/>
     </g>
    </g>
    <g id="text_28">
     <!-- 0.360 -->
     <g transform="translate(687.128983 286.587656) scale(0.12 -0.12)">
      <use xlink:href="#DejaVuSans-30"/>
      <use xlink:href="#DejaVuSans-2e" transform="translate(63.623047 0)"/>
      <use xlink:href="#DejaVuSans-33" transform="translate(95.410156 0)"/>
      <use xlink:href="#DejaVuSans-36" transform="translate(159.033203 0)"/>
      <use xlink:href="#DejaVuSans-30" transform="translate(222.65625 0)"/>
     </g>
    </g>
    <g id="PathCollection_37">
     <g>
      <use xlink:href="#m1ffd152335" x="665.528982" y="301.051406" style="fill: #64a9d3; stroke: #000000; stroke-width: 0.2"/>
     </g>
    </g>
    <g id="text_29">
     <!-- 0.402 -->
     <g transform="translate(687.128983 304.201406) scale(0.12 -0.12)">
      <use xlink:href="#DejaVuSans-30"/>
      <use xlink:href="#DejaVuSans-2e" transform="translate(63.623047 0)"/>
      <use xlink:href="#DejaVuSans-34" transform="translate(95.410156 0)"/>
      <use xlink:href="#DejaVuSans-30" transform="translate(159.033203 0)"/>
      <use xlink:href="#DejaVuSans-32" transform="translate(222.65625 0)"/>
     </g>
    </g>
    <g id="PathCollection_38">
     <g>
      <use xlink:href="#m7cd38d9264" x="665.528982" y="318.665156" style="fill: #569fce; stroke: #000000; stroke-width: 0.2"/>
     </g>
    </g>
    <g id="text_30">
     <!-- 0.471 -->
     <g transform="translate(687.128983 321.815156) scale(0.12 -0.12)">
      <use xlink:href="#DejaVuSans-30"/>
      <use xlink:href="#DejaVuSans-2e" transform="translate(63.623047 0)"/>
      <use xlink:href="#DejaVuSans-34" transform="translate(95.410156 0)"/>
      <use xlink:href="#DejaVuSans-37" transform="translate(159.033203 0)"/>
      <use xlink:href="#DejaVuSans-31" transform="translate(222.65625 0)"/>
     </g>
    </g>
    <g id="PathCollection_39">
     <g>
      <use xlink:href="#m48fb78cb6d" x="665.528982" y="336.278906" style="fill: #4796c8; stroke: #000000; stroke-width: 0.2"/>
     </g>
    </g>
    <g id="text_31">
     <!-- 0.558 -->
     <g transform="translate(687.128983 339.428906) scale(0.12 -0.12)">
      <use xlink:href="#DejaVuSans-30"/>
      <use xlink:href="#DejaVuSans-2e" transform="translate(63.623047 0)"/>
      <use xlink:href="#DejaVuSans-35" transform="translate(95.410156 0)"/>
      <use xlink:href="#DejaVuSans-35" transform="translate(159.033203 0)"/>
      <use xlink:href="#DejaVuSans-38" transform="translate(222.65625 0)"/>
     </g>
    </g>
    <g id="PathCollection_40">
     <g>
      <use xlink:href="#mcb6d78e956" x="665.528982" y="353.892656" style="fill: #3b8bc2; stroke: #000000; stroke-width: 0.2"/>
     </g>
    </g>
    <g id="text_32">
     <!-- 0.598 -->
     <g transform="translate(687.128983 357.042656) scale(0.12 -0.12)">
      <use xlink:href="#DejaVuSans-30"/>
      <use xlink:href="#DejaVuSans-2e" transform="translate(63.623047 0)"/>
      <use xlink:href="#DejaVuSans-35" transform="translate(95.410156 0)"/>
      <use xlink:href="#DejaVuSans-39" transform="translate(159.033203 0)"/>
      <use xlink:href="#DejaVuSans-38" transform="translate(222.65625 0)"/>
     </g>
    </g>
    <g id="PathCollection_41">
     <g>
      <use xlink:href="#m2ed2fdccb6" x="665.528982" y="371.506406" style="fill: #2f7fbc; stroke: #000000; stroke-width: 0.2"/>
     </g>
    </g>
    <g id="text_33">
     <!-- 0.720 -->
     <g transform="translate(687.128983 374.656406) scale(0.12 -0.12)">
      <use xlink:href="#DejaVuSans-30"/>
      <use xlink:href="#DejaVuSans-2e" transform="translate(63.623047 0)"/>
      <use xlink:href="#DejaVuSans-37" transform="translate(95.410156 0)"/>
      <use xlink:href="#DejaVuSans-32" transform="translate(159.033203 0)"/>
      <use xlink:href="#DejaVuSans-30" transform="translate(222.65625 0)"/>
     </g>
    </g>
    <g id="PathCollection_42">
     <g>
      <use xlink:href="#m8a004ba49d" x="665.528982" y="389.120156" style="fill: #2474b6; stroke: #000000; stroke-width: 0.2"/>
     </g>
    </g>
    <g id="text_34">
     <!-- 0.800 -->
     <g transform="translate(687.128983 392.270156) scale(0.12 -0.12)">
      <use xlink:href="#DejaVuSans-30"/>
      <use xlink:href="#DejaVuSans-2e" transform="translate(63.623047 0)"/>
      <use xlink:href="#DejaVuSans-38" transform="translate(95.410156 0)"/>
      <use xlink:href="#DejaVuSans-30" transform="translate(159.033203 0)"/>
      <use xlink:href="#DejaVuSans-30" transform="translate(222.65625 0)"/>
     </g>
    </g>
    <g id="PathCollection_43">
     <g>
      <use xlink:href="#mcca90e141e" x="665.528982" y="406.733906" style="fill: #1a69ae; stroke: #000000; stroke-width: 0.2"/>
     </g>
    </g>
    <g id="text_35">
     <!-- 0.857 -->
     <g transform="translate(687.128983 409.883906) scale(0.12 -0.12)">
      <use xlink:href="#DejaVuSans-30"/>
      <use xlink:href="#DejaVuSans-2e" transform="translate(63.623047 0)"/>
      <use xlink:href="#DejaVuSans-38" transform="translate(95.410156 0)"/>
      <use xlink:href="#DejaVuSans-35" transform="translate(159.033203 0)"/>
      <use xlink:href="#DejaVuSans-37" transform="translate(222.65625 0)"/>
     </g>
    </g>
    <g id="PathCollection_44">
     <g>
      <use xlink:href="#mc4e13f78d2" x="665.528982" y="424.347656" style="fill: #125ea6; stroke: #000000; stroke-width: 0.2"/>
     </g>
    </g>
    <g id="text_36">
     <!-- 0.901 -->
     <g transform="translate(687.128983 427.497656) scale(0.12 -0.12)">
      <use xlink:href="#DejaVuSans-30"/>
      <use xlink:href="#DejaVuSans-2e" transform="translate(63.623047 0)"/>
      <use xlink:href="#DejaVuSans-39" transform="translate(95.410156 0)"/>
      <use xlink:href="#DejaVuSans-30" transform="translate(159.033203 0)"/>
      <use xlink:href="#DejaVuSans-31" transform="translate(222.65625 0)"/>
     </g>
    </g>
    <g id="PathCollection_45">
     <g>
      <use xlink:href="#mc5b088969d" x="665.528982" y="441.961406" style="fill: #09529d; stroke: #000000; stroke-width: 0.2"/>
     </g>
    </g>
    <g id="text_37">
     <!-- 0.934 -->
     <g transform="translate(687.128983 445.111406) scale(0.12 -0.12)">
      <use xlink:href="#DejaVuSans-30"/>
      <use xlink:href="#DejaVuSans-2e" transform="translate(63.623047 0)"/>
      <use xlink:href="#DejaVuSans-39" transform="translate(95.410156 0)"/>
      <use xlink:href="#DejaVuSans-33" transform="translate(159.033203 0)"/>
      <use xlink:href="#DejaVuSans-34" transform="translate(222.65625 0)"/>
     </g>
    </g>
    <g id="PathCollection_46">
     <g>
      <use xlink:href="#ma485c2f2e1" x="665.528982" y="459.575156" style="fill: #08478d; stroke: #000000; stroke-width: 0.2"/>
     </g>
    </g>
    <g id="text_38">
     <!-- 0.960 -->
     <g transform="translate(687.128983 462.725156) scale(0.12 -0.12)">
      <use xlink:href="#DejaVuSans-30"/>
      <use xlink:href="#DejaVuSans-2e" transform="translate(63.623047 0)"/>
      <use xlink:href="#DejaVuSans-39" transform="translate(95.410156 0)"/>
      <use xlink:href="#DejaVuSans-36" transform="translate(159.033203 0)"/>
      <use xlink:href="#DejaVuSans-30" transform="translate(222.65625 0)"/>
     </g>
    </g>
    <g id="PathCollection_47">
     <g>
      <use xlink:href="#m3b281b1853" x="665.528982" y="477.188906" style="fill: #083b7c; stroke: #000000; stroke-width: 0.2"/>
     </g>
    </g>
    <g id="text_39">
     <!-- 0.982 -->
     <g transform="translate(687.128983 480.338906) scale(0.12 -0.12)">
      <use xlink:href="#DejaVuSans-30"/>
      <use xlink:href="#DejaVuSans-2e" transform="translate(63.623047 0)"/>
      <use xlink:href="#DejaVuSans-39" transform="translate(95.410156 0)"/>
      <use xlink:href="#DejaVuSans-38" transform="translate(159.033203 0)"/>
      <use xlink:href="#DejaVuSans-32" transform="translate(222.65625 0)"/>
     </g>
    </g>
    <g id="PathCollection_48">
     <g>
      <use xlink:href="#m734a440be7" x="665.528982" y="494.802656" style="fill: #08306b; stroke: #000000; stroke-width: 0.2"/>
     </g>
    </g>
    <g id="text_40">
     <!-- 1.000 -->
     <g transform="translate(687.128983 497.952656) scale(0.12 -0.12)">
      <use xlink:href="#DejaVuSans-31"/>
      <use xlink:href="#DejaVuSans-2e" transform="translate(63.623047 0)"/>
      <use xlink:href="#DejaVuSans-30" transform="translate(95.410156 0)"/>
      <use xlink:href="#DejaVuSans-30" transform="translate(159.033203 0)"/>
      <use xlink:href="#DejaVuSans-30" transform="translate(222.65625 0)"/>
     </g>
    </g>
   </g>
  </g>
  <g id="axes_2">
   <g id="matplotlib.axis_3">
    <g id="xtick_7">
     <g id="line2d_14">
      <defs>
       <path id="m7d6484357b" d="M 0 0 
L 0 -3.5 
" style="stroke: #000000; stroke-width: 0.8"/>
      </defs>
      <g>
       <use xlink:href="#m7d6484357b" x="591.708625" y="59.368906" style="stroke: #000000; stroke-width: 0.8"/>
      </g>
     </g>
     <g id="text_41">
      <!-- 291 -->
      <g transform="translate(580.256125 49.873281) scale(0.12 -0.12)">
       <use xlink:href="#DejaVuSans-32"/>
       <use xlink:href="#DejaVuSans-39" transform="translate(63.623047 0)"/>
       <use xlink:href="#DejaVuSans-31" transform="translate(127.246094 0)"/>
      </g>
     </g>
    </g>
    <g id="xtick_8">
     <g id="line2d_15">
      <g>
       <use xlink:href="#m7d6484357b" x="470.967918" y="59.368906" style="stroke: #000000; stroke-width: 0.8"/>
      </g>
     </g>
     <g id="text_42">
      <!-- 300 -->
      <g transform="translate(459.515418 49.873281) scale(0.12 -0.12)">
       <use xlink:href="#DejaVuSans-33"/>
       <use xlink:href="#DejaVuSans-30" transform="translate(63.623047 0)"/>
       <use xlink:href="#DejaVuSans-30" transform="translate(127.246094 0)"/>
      </g>
     </g>
    </g>
    <g id="xtick_9">
     <g id="line2d_16">
      <g>
       <use xlink:href="#m7d6484357b" x="357.109921" y="59.368906" style="stroke: #000000; stroke-width: 0.8"/>
      </g>
     </g>
     <g id="text_43">
      <!-- 309 -->
      <g transform="translate(345.657421 49.873281) scale(0.12 -0.12)">
       <use xlink:href="#DejaVuSans-33"/>
       <use xlink:href="#DejaVuSans-30" transform="translate(63.623047 0)"/>
       <use xlink:href="#DejaVuSans-39" transform="translate(127.246094 0)"/>
      </g>
     </g>
    </g>
    <g id="xtick_10">
     <g id="line2d_17">
      <g>
       <use xlink:href="#m7d6484357b" x="249.562428" y="59.368906" style="stroke: #000000; stroke-width: 0.8"/>
      </g>
     </g>
     <g id="text_44">
      <!-- 318 -->
      <g transform="translate(238.109928 49.873281) scale(0.12 -0.12)">
       <use xlink:href="#DejaVuSans-33"/>
       <use xlink:href="#DejaVuSans-31" transform="translate(63.623047 0)"/>
       <use xlink:href="#DejaVuSans-38" transform="translate(127.246094 0)"/>
      </g>
     </g>
    </g>
    <g id="xtick_11">
     <g id="line2d_18">
      <g>
       <use xlink:href="#m7d6484357b" x="147.814953" y="59.368906" style="stroke: #000000; stroke-width: 0.8"/>
      </g>
     </g>
     <g id="text_45">
      <!-- 327 -->
      <g transform="translate(136.362453 49.873281) scale(0.12 -0.12)">
       <use xlink:href="#DejaVuSans-33"/>
       <use xlink:href="#DejaVuSans-32" transform="translate(63.623047 0)"/>
       <use xlink:href="#DejaVuSans-37" transform="translate(127.246094 0)"/>
      </g>
     </g>
    </g>
    <g id="xtick_12">
     <g id="line2d_19">
      <g>
       <use xlink:href="#m7d6484357b" x="51.410625" y="59.368906" style="stroke: #000000; stroke-width: 0.8"/>
      </g>
     </g>
     <g id="text_46">
      <!-- 335 -->
      <g transform="translate(39.958125 49.873281) scale(0.12 -0.12)">
       <use xlink:href="#DejaVuSans-33"/>
       <use xlink:href="#DejaVuSans-33" transform="translate(63.623047 0)"/>
       <use xlink:href="#DejaVuSans-35" transform="translate(127.246094 0)"/>
      </g>
     </g>
    </g>
    <g id="text_47">
     <!-- Temperature / K -->
     <g transform="translate(257.862125 36.755156) scale(0.16 -0.16)">
      <defs>
       <path id="DejaVuSans-70" d="M 1159 525 
L 1159 -1331 
L 581 -1331 
L 581 3500 
L 1159 3500 
L 1159 2969 
Q 1341 3281 1617 3432 
Q 1894 3584 2278 3584 
Q 2916 3584 3314 3078 
Q 3713 2572 3713 1747 
Q 3713 922 3314 415 
Q 2916 -91 2278 -91 
Q 1894 -91 1617 61 
Q 1341 213 1159 525 
z
M 3116 1747 
Q 3116 2381 2855 2742 
Q 2594 3103 2138 3103 
Q 1681 3103 1420 2742 
Q 1159 2381 1159 1747 
Q 1159 1113 1420 752 
Q 1681 391 2138 391 
Q 2594 391 2855 752 
Q 3116 1113 3116 1747 
z
" transform="scale(0.015625)"/>
       <path id="DejaVuSans-75" d="M 544 1381 
L 544 3500 
L 1119 3500 
L 1119 1403 
Q 1119 906 1312 657 
Q 1506 409 1894 409 
Q 2359 409 2629 706 
Q 2900 1003 2900 1516 
L 2900 3500 
L 3475 3500 
L 3475 0 
L 2900 0 
L 2900 538 
Q 2691 219 2414 64 
Q 2138 -91 1772 -91 
Q 1169 -91 856 284 
Q 544 659 544 1381 
z
M 1991 3584 
L 1991 3584 
z
" transform="scale(0.015625)"/>
       <path id="DejaVuSans-4b" d="M 628 4666 
L 1259 4666 
L 1259 2694 
L 3353 4666 
L 4166 4666 
L 1850 2491 
L 4331 0 
L 3500 0 
L 1259 2247 
L 1259 0 
L 628 0 
L 628 4666 
z
" transform="scale(0.015625)"/>
      </defs>
      <use xlink:href="#DejaVuSans-54"/>
      <use xlink:href="#DejaVuSans-65" transform="translate(44.083984 0)"/>
      <use xlink:href="#DejaVuSans-6d" transform="translate(105.607422 0)"/>
      <use xlink:href="#DejaVuSans-70" transform="translate(203.019531 0)"/>
      <use xlink:href="#DejaVuSans-65" transform="translate(266.496094 0)"/>
      <use xlink:href="#DejaVuSans-72" transform="translate(328.019531 0)"/>
      <use xlink:href="#DejaVuSans-61" transform="translate(369.132812 0)"/>
      <use xlink:href="#DejaVuSans-74" transform="translate(430.412109 0)"/>
      <use xlink:href="#DejaVuSans-75" transform="translate(469.621094 0)"/>
      <use xlink:href="#DejaVuSans-72" transform="translate(533 0)"/>
      <use xlink:href="#DejaVuSans-65" transform="translate(571.863281 0)"/>
      <use xlink:href="#DejaVuSans-20" transform="translate(633.386719 0)"/>
      <use xlink:href="#DejaVuSans-2f" transform="translate(665.173828 0)"/>
      <use xlink:href="#DejaVuSans-20" transform="translate(698.865234 0)"/>
      <use xlink:href="#DejaVuSans-4b" transform="translate(730.652344 0)"/>
     </g>
    </g>
   </g>
   <g id="patch_8">
    <path d="M 51.410625 437.304906 
L 51.410625 59.368906 
" style="fill: none; stroke: #000000; stroke-width: 0.8; stroke-linejoin: miter; stroke-linecap: square"/>
   </g>
   <g id="patch_9">
    <path d="M 591.708625 437.304906 
L 591.708625 59.368906 
" style="fill: none; stroke: #000000; stroke-width: 0.8; stroke-linejoin: miter; stroke-linecap: square"/>
   </g>
   <g id="patch_10">
    <path d="M 51.410625 437.304906 
L 591.708625 437.304906 
" style="fill: none; stroke: #000000; stroke-width: 0.8; stroke-linejoin: miter; stroke-linecap: square"/>
   </g>
   <g id="patch_11">
    <path d="M 51.410625 59.368906 
L 591.708625 59.368906 
" style="fill: none; stroke: #000000; stroke-width: 0.8; stroke-linejoin: miter; stroke-linecap: square"/>
   </g>
   <g id="text_48">
    <!-- Arrhenius plot of Glyceline with different water mole fractions -->
    <g transform="translate(89.829547 18.597656) scale(0.15 -0.15)">
     <defs>
      <path id="DejaVuSans-41" d="M 2188 4044 
L 1331 1722 
L 3047 1722 
L 2188 4044 
z
M 1831 4666 
L 2547 4666 
L 4325 0 
L 3669 0 
L 3244 1197 
L 1141 1197 
L 716 0 
L 50 0 
L 1831 4666 
z
" transform="scale(0.015625)"/>
      <path id="DejaVuSans-68" d="M 3513 2113 
L 3513 0 
L 2938 0 
L 2938 2094 
Q 2938 2591 2744 2837 
Q 2550 3084 2163 3084 
Q 1697 3084 1428 2787 
Q 1159 2491 1159 1978 
L 1159 0 
L 581 0 
L 581 4863 
L 1159 4863 
L 1159 2956 
Q 1366 3272 1645 3428 
Q 1925 3584 2291 3584 
Q 2894 3584 3203 3211 
Q 3513 2838 3513 2113 
z
" transform="scale(0.015625)"/>
      <path id="DejaVuSans-47" d="M 3809 666 
L 3809 1919 
L 2778 1919 
L 2778 2438 
L 4434 2438 
L 4434 434 
Q 4069 175 3628 42 
Q 3188 -91 2688 -91 
Q 1594 -91 976 548 
Q 359 1188 359 2328 
Q 359 3472 976 4111 
Q 1594 4750 2688 4750 
Q 3144 4750 3555 4637 
Q 3966 4525 4313 4306 
L 4313 3634 
Q 3963 3931 3569 4081 
Q 3175 4231 2741 4231 
Q 1884 4231 1454 3753 
Q 1025 3275 1025 2328 
Q 1025 1384 1454 906 
Q 1884 428 2741 428 
Q 3075 428 3337 486 
Q 3600 544 3809 666 
z
" transform="scale(0.015625)"/>
      <path id="DejaVuSans-79" d="M 2059 -325 
Q 1816 -950 1584 -1140 
Q 1353 -1331 966 -1331 
L 506 -1331 
L 506 -850 
L 844 -850 
Q 1081 -850 1212 -737 
Q 1344 -625 1503 -206 
L 1606 56 
L 191 3500 
L 800 3500 
L 1894 763 
L 2988 3500 
L 3597 3500 
L 2059 -325 
z
" transform="scale(0.015625)"/>
      <path id="DejaVuSans-77" d="M 269 3500 
L 844 3500 
L 1563 769 
L 2278 3500 
L 2956 3500 
L 3675 769 
L 4391 3500 
L 4966 3500 
L 4050 0 
L 3372 0 
L 2619 2869 
L 1863 0 
L 1184 0 
L 269 3500 
z
" transform="scale(0.015625)"/>
      <path id="DejaVuSans-64" d="M 2906 2969 
L 2906 4863 
L 3481 4863 
L 3481 0 
L 2906 0 
L 2906 525 
Q 2725 213 2448 61 
Q 2172 -91 1784 -91 
Q 1150 -91 751 415 
Q 353 922 353 1747 
Q 353 2572 751 3078 
Q 1150 3584 1784 3584 
Q 2172 3584 2448 3432 
Q 2725 3281 2906 2969 
z
M 947 1747 
Q 947 1113 1208 752 
Q 1469 391 1925 391 
Q 2381 391 2643 752 
Q 2906 1113 2906 1747 
Q 2906 2381 2643 2742 
Q 2381 3103 1925 3103 
Q 1469 3103 1208 2742 
Q 947 2381 947 1747 
z
" transform="scale(0.015625)"/>
     </defs>
     <use xlink:href="#DejaVuSans-41"/>
     <use xlink:href="#DejaVuSans-72" transform="translate(68.408203 0)"/>
     <use xlink:href="#DejaVuSans-72" transform="translate(107.771484 0)"/>
     <use xlink:href="#DejaVuSans-68" transform="translate(147.134766 0)"/>
     <use xlink:href="#DejaVuSans-65" transform="translate(210.513672 0)"/>
     <use xlink:href="#DejaVuSans-6e" transform="translate(272.037109 0)"/>
     <use xlink:href="#DejaVuSans-69" transform="translate(335.416016 0)"/>
     <use xlink:href="#DejaVuSans-75" transform="translate(363.199219 0)"/>
     <use xlink:href="#DejaVuSans-73" transform="translate(426.578125 0)"/>
     <use xlink:href="#DejaVuSans-20" transform="translate(478.677734 0)"/>
     <use xlink:href="#DejaVuSans-70" transform="translate(510.464844 0)"/>
     <use xlink:href="#DejaVuSans-6c" transform="translate(573.941406 0)"/>
     <use xlink:href="#DejaVuSans-6f" transform="translate(601.724609 0)"/>
     <use xlink:href="#DejaVuSans-74" transform="translate(662.90625 0)"/>
     <use xlink:href="#DejaVuSans-20" transform="translate(702.115234 0)"/>
     <use xlink:href="#DejaVuSans-6f" transform="translate(733.902344 0)"/>
     <use xlink:href="#DejaVuSans-66" transform="translate(795.083984 0)"/>
     <use xlink:href="#DejaVuSans-20" transform="translate(830.289062 0)"/>
     <use xlink:href="#DejaVuSans-47" transform="translate(862.076172 0)"/>
     <use xlink:href="#DejaVuSans-6c" transform="translate(939.566406 0)"/>
     <use xlink:href="#DejaVuSans-79" transform="translate(967.349609 0)"/>
     <use xlink:href="#DejaVuSans-63" transform="translate(1026.529297 0)"/>
     <use xlink:href="#DejaVuSans-65" transform="translate(1081.509766 0)"/>
     <use xlink:href="#DejaVuSans-6c" transform="translate(1143.033203 0)"/>
     <use xlink:href="#DejaVuSans-69" transform="translate(1170.816406 0)"/>
     <use xlink:href="#DejaVuSans-6e" transform="translate(1198.599609 0)"/>
     <use xlink:href="#DejaVuSans-65" transform="translate(1261.978516 0)"/>
     <use xlink:href="#DejaVuSans-20" transform="translate(1323.501953 0)"/>
     <use xlink:href="#DejaVuSans-77" transform="translate(1355.289062 0)"/>
     <use xlink:href="#DejaVuSans-69" transform="translate(1437.076172 0)"/>
     <use xlink:href="#DejaVuSans-74" transform="translate(1464.859375 0)"/>
     <use xlink:href="#DejaVuSans-68" transform="translate(1504.068359 0)"/>
     <use xlink:href="#DejaVuSans-20" transform="translate(1567.447266 0)"/>
     <use xlink:href="#DejaVuSans-64" transform="translate(1599.234375 0)"/>
     <use xlink:href="#DejaVuSans-69" transform="translate(1662.710938 0)"/>
     <use xlink:href="#DejaVuSans-66" transform="translate(1690.494141 0)"/>
     <use xlink:href="#DejaVuSans-66" transform="translate(1725.699219 0)"/>
     <use xlink:href="#DejaVuSans-65" transform="translate(1760.904297 0)"/>
     <use xlink:href="#DejaVuSans-72" transform="translate(1822.427734 0)"/>
     <use xlink:href="#DejaVuSans-65" transform="translate(1861.291016 0)"/>
     <use xlink:href="#DejaVuSans-6e" transform="translate(1922.814453 0)"/>
     <use xlink:href="#DejaVuSans-74" transform="translate(1986.193359 0)"/>
     <use xlink:href="#DejaVuSans-20" transform="translate(2025.402344 0)"/>
     <use xlink:href="#DejaVuSans-77" transform="translate(2057.189453 0)"/>
     <use xlink:href="#DejaVuSans-61" transform="translate(2138.976562 0)"/>
     <use xlink:href="#DejaVuSans-74" transform="translate(2200.255859 0)"/>
     <use xlink:href="#DejaVuSans-65" transform="translate(2239.464844 0)"/>
     <use xlink:href="#DejaVuSans-72" transform="translate(2300.988281 0)"/>
     <use xlink:href="#DejaVuSans-20" transform="translate(2342.101562 0)"/>
     <use xlink:href="#DejaVuSans-6d" transform="translate(2373.888672 0)"/>
     <use xlink:href="#DejaVuSans-6f" transform="translate(2471.300781 0)"/>
     <use xlink:href="#DejaVuSans-6c" transform="translate(2532.482422 0)"/>
     <use xlink:href="#DejaVuSans-65" transform="translate(2560.265625 0)"/>
     <use xlink:href="#DejaVuSans-20" transform="translate(2621.789062 0)"/>
     <use xlink:href="#DejaVuSans-66" transform="translate(2653.576172 0)"/>
     <use xlink:href="#DejaVuSans-72" transform="translate(2688.78125 0)"/>
     <use xlink:href="#DejaVuSans-61" transform="translate(2729.894531 0)"/>
     <use xlink:href="#DejaVuSans-63" transform="translate(2791.173828 0)"/>
     <use xlink:href="#DejaVuSans-74" transform="translate(2846.154297 0)"/>
     <use xlink:href="#DejaVuSans-69" transform="translate(2885.363281 0)"/>
     <use xlink:href="#DejaVuSans-6f" transform="translate(2913.146484 0)"/>
     <use xlink:href="#DejaVuSans-6e" transform="translate(2974.328125 0)"/>
     <use xlink:href="#DejaVuSans-73" transform="translate(3037.707031 0)"/>
    </g>
   </g>
  </g>
 </g>
 <defs>
  <clipPath id="p628037eeff">
   <rect x="51.410625" y="59.368906" width="540.298" height="377.936"/>
  </clipPath>
 </defs>
</svg>
